<svg width="65" height="64" viewBox="0 0 65 64" fill="none" xmlns="http://www.w3.org/2000/svg">
<g id="&#208;&#159;&#209;&#128;&#208;&#181;&#208;&#184;&#208;&#188;&#209;&#131;&#209;&#137;&#208;&#181;&#209;&#129;&#209;&#130;&#208;&#178;&#208;&#176;">
<g id="Vector">
<path d="M38.0835 10.6667H27.4168C17.3602 10.6667 12.3319 10.6667 9.20769 13.7909C6.95825 16.0404 6.32842 19.2769 6.15207 24.6667H59.3482C59.1719 19.2769 58.5421 16.0404 56.2926 13.7909C53.1684 10.6667 48.1401 10.6667 38.0835 10.6667Z" fill="#6B73C2"/>
<path d="M27.4168 53.3334H38.0835C48.1401 53.3334 53.1684 53.3334 56.2926 50.2092C59.4168 47.085 59.4168 42.0567 59.4168 32.0001C59.4168 30.8216 59.4168 29.7122 59.4118 28.6667H6.08852C6.0835 29.7122 6.0835 30.8216 6.0835 32.0001C6.0835 42.0567 6.0835 47.085 9.20769 50.2092C12.3319 53.3334 17.3602 53.3334 27.4168 53.3334Z" fill="#6B73C2"/>
<path fill-rule="evenodd" clip-rule="evenodd" d="M14.7502 42.6667C14.7502 41.5622 15.6456 40.6667 16.7502 40.6667H27.4168C28.5214 40.6667 29.4168 41.5622 29.4168 42.6667C29.4168 43.7713 28.5214 44.6667 27.4168 44.6667H16.7502C15.6456 44.6667 14.7502 43.7713 14.7502 42.6667Z" fill="white"/>
<path fill-rule="evenodd" clip-rule="evenodd" d="M32.0835 42.6667C32.0835 41.5622 32.9789 40.6667 34.0835 40.6667H38.0835C39.1881 40.6667 40.0835 41.5622 40.0835 42.6667C40.0835 43.7713 39.1881 44.6667 38.0835 44.6667H34.0835C32.9789 44.6667 32.0835 43.7713 32.0835 42.6667Z" fill="white"/>
</g>
</g>
</svg>
