<svg width="80" height="80" viewBox="0 0 80 80" fill="none" xmlns="http://www.w3.org/2000/svg">
<path opacity="0.2" d="M6.66634 40.0001C6.66634 58.4096 21.5902 73.3334 39.9997 73.3334C58.4092 73.3334 73.333 58.4096 73.333 40.0001C73.333 21.5906 58.4092 6.66675 39.9997 6.66675C21.5902 6.66675 6.66634 21.5906 6.66634 40.0001Z" fill="url(#paint0_linear_2810_66702)"/>
<path d="M50.1008 29.899C49.1245 28.9227 47.5416 28.9227 46.5652 29.899L39.9996 36.4646L33.4341 29.899C32.4578 28.9227 30.8749 28.9227 29.8986 29.899C28.9223 30.8754 28.9223 32.4583 29.8986 33.4346L36.4641 40.0001L29.8986 46.5656C28.9223 47.5419 28.9223 49.1248 29.8986 50.1011C30.875 51.0774 32.4579 51.0774 33.4342 50.1011L39.9996 43.5357L46.5652 50.1012C47.5415 51.0775 49.1244 51.0775 50.1007 50.1012C51.077 49.1249 51.077 47.542 50.1007 46.5656L43.5352 40.0001L50.1008 33.4345C51.0771 32.4582 51.0771 30.8753 50.1008 29.899Z" fill="white"/>
<defs>
<linearGradient id="paint0_linear_2810_66702" x1="39.9997" y1="6.66675" x2="39.9997" y2="73.3334" gradientUnits="userSpaceOnUse">
<stop/>
<stop offset="1"/>
</linearGradient>
</defs>
</svg>
