<svg width="56" height="56" viewBox="0 0 56 56" fill="none" xmlns="http://www.w3.org/2000/svg">
<path d="M43.75 18.6666C43.75 19.6331 42.9665 20.4166 42 20.4166H14C13.0335 20.4166 12.25 19.6331 12.25 18.6666C12.25 17.7001 13.0335 16.9166 14 16.9166H42C42.9665 16.9166 43.75 17.7001 43.75 18.6666Z" fill="white"/>
<path d="M43.75 28C43.75 28.9665 42.9665 29.75 42 29.75H14C13.0335 29.75 12.25 28.9665 12.25 28C12.25 27.0335 13.0335 26.25 14 26.25H42C42.9665 26.25 43.75 27.0335 43.75 28Z" fill="white"/>
<path d="M43.75 37.3333C43.75 38.2998 42.9665 39.0833 42 39.0833H14C13.0335 39.0833 12.25 38.2998 12.25 37.3333C12.25 36.3668 13.0335 35.5833 14 35.5833H42C42.9665 35.5833 43.75 36.3668 43.75 37.3333Z" fill="white"/>
</svg>
