<svg width="65" height="64" viewBox="0 0 65 64" fill="none" xmlns="http://www.w3.org/2000/svg">
<g id="&#208;&#159;&#209;&#128;&#208;&#181;&#208;&#184;&#208;&#188;&#209;&#131;&#209;&#137;&#208;&#181;&#209;&#129;&#209;&#130;&#208;&#178;&#208;&#176;">
<path id="Vector" d="M42.9168 15.9999C42.9168 21.891 38.1412 26.6666 32.2502 26.6666C26.3591 26.6666 21.5835 21.891 21.5835 15.9999C21.5835 10.1089 26.3591 5.33325 32.2502 5.33325C38.1412 5.33325 42.9168 10.1089 42.9168 15.9999Z" fill="#6B73C2"/>
<path id="Subtract" d="M42.0584 36.0075C40.7968 36.0228 39.621 36.0688 38.5963 36.2066C36.8819 36.4371 35.0055 36.988 33.455 38.5385C31.9045 40.0889 31.3536 41.9654 31.1231 43.6798C30.9159 45.2204 30.9162 47.1027 30.9165 49.1041V49.5626C30.9162 51.5641 30.9159 53.4464 31.1231 54.987C31.2848 56.1899 31.6043 57.4727 32.3163 58.6667C32.2941 58.6667 32.272 58.6667 32.2498 58.6667C10.9165 58.6667 10.9165 53.2942 10.9165 46.6667C10.9165 40.0393 20.4678 34.6667 32.2498 34.6667C35.7863 34.6667 39.1218 35.1508 42.0584 36.0075Z" fill="#6B73C2"/>
<path id="Subtract_2" fill-rule="evenodd" clip-rule="evenodd" d="M36.2833 57.2998C37.6502 58.6667 39.8501 58.6667 44.2498 58.6667C48.6496 58.6667 50.8495 58.6667 52.2163 57.2998C53.5832 55.933 53.5832 53.7331 53.5832 49.3333C53.5832 44.9336 53.5832 42.7337 52.2163 41.3668C50.8495 40 48.6496 40 44.2498 40C39.8501 40 37.6502 40 36.2833 41.3668C34.9165 42.7337 34.9165 44.9336 34.9165 49.3333C34.9165 53.7331 34.9165 55.933 36.2833 57.2998ZM41.654 53.2706C39.782 51.93 37.5832 50.3555 37.5832 47.6261C37.5832 44.613 41.2499 42.4761 44.2498 45.3729C47.2497 42.4761 50.9165 44.613 50.9165 47.6261C50.9165 50.3555 48.7177 51.93 46.8457 53.2706C46.6511 53.4099 46.46 53.5467 46.2753 53.682C45.5832 54.1892 44.9165 54.6667 44.2498 54.6667C43.5832 54.6667 42.9165 54.1892 42.2243 53.682C42.0396 53.5467 41.8486 53.4099 41.654 53.2706Z" fill="#6B73C2"/>
</g>
</svg>
