<svg width="64" height="64" viewBox="0 0 64 64" fill="none" xmlns="http://www.w3.org/2000/svg">
<g id="&#208;&#159;&#209;&#128;&#208;&#181;&#208;&#184;&#208;&#188;&#209;&#131;&#209;&#137;&#208;&#181;&#209;&#129;&#209;&#130;&#208;&#178;&#208;&#176;">
<g id="Vector">
<path d="M20.6668 6.66675C20.6668 5.56218 19.7714 4.66675 18.6668 4.66675C17.5623 4.66675 16.6668 5.56218 16.6668 6.66675V10.8781C12.8286 11.1855 10.3089 11.9397 8.45769 13.7909C6.60649 15.6421 5.8522 18.1619 5.54485 22.0001H58.4555C58.1481 18.1619 57.3938 15.6421 55.5426 13.7909C53.6914 11.9397 51.1717 11.1855 47.3335 10.8781V6.66675C47.3335 5.56218 46.4381 4.66675 45.3335 4.66675C44.2289 4.66675 43.3335 5.56218 43.3335 6.66675V10.7012C41.5595 10.6667 39.5709 10.6667 37.3335 10.6667H26.6668C24.4294 10.6667 22.4409 10.6667 20.6668 10.7012V6.66675Z" fill="#6B73C2"/>
<path fill-rule="evenodd" clip-rule="evenodd" d="M58.6668 32.0001C58.6668 29.7627 58.6668 27.7741 58.6324 26.0001H5.3679C5.3335 27.7741 5.3335 29.7627 5.3335 32.0001V37.3334C5.3335 47.39 5.3335 52.4184 8.45769 55.5426C11.5819 58.6667 16.6102 58.6667 26.6668 58.6667H37.3335C47.3901 58.6667 52.4184 58.6667 55.5426 55.5426C58.6668 52.4184 58.6668 47.39 58.6668 37.3334V32.0001ZM37.3335 32.6667C34.7562 32.6667 32.6668 34.7561 32.6668 37.3334V42.6667C32.6668 45.2441 34.7562 47.3334 37.3335 47.3334C39.9108 47.3334 42.0002 45.2441 42.0002 42.6667V37.3334C42.0002 34.7561 39.9108 32.6667 37.3335 32.6667ZM37.3335 36.6667C36.9653 36.6667 36.6668 36.9652 36.6668 37.3334V42.6667C36.6668 43.0349 36.9653 43.3334 37.3335 43.3334C37.7017 43.3334 38.0002 43.0349 38.0002 42.6667V37.3334C38.0002 36.9652 37.7017 36.6667 37.3335 36.6667ZM28.7655 32.819C29.5129 33.1286 30.0002 33.8578 30.0002 34.6667V45.3334C30.0002 46.438 29.1047 47.3334 28.0002 47.3334C26.8956 47.3334 26.0002 46.438 26.0002 45.3334V39.4952L25.4144 40.081C24.6333 40.862 23.367 40.862 22.5859 40.081C21.8049 39.2999 21.8049 38.0336 22.5859 37.2525L26.5859 33.2525C27.1579 32.6805 28.0182 32.5094 28.7655 32.819Z" fill="#6B73C2"/>
</g>
</g>
</svg>
