<svg width="65" height="64" viewBox="0 0 65 64" fill="none" xmlns="http://www.w3.org/2000/svg">
<g id="&#208;&#159;&#209;&#128;&#208;&#181;&#208;&#184;&#208;&#188;&#209;&#131;&#209;&#137;&#208;&#181;&#209;&#129;&#209;&#130;&#208;&#178;&#208;&#176;">
<g id="Vector">
<path d="M59.4168 22.6666C59.4168 13.0936 51.6564 5.33325 42.0835 5.33325C36.5292 5.33325 31.585 7.95272 28.4128 12.0191C41.9424 12.5422 52.7502 23.6756 52.7502 37.3333C52.7502 37.6274 52.7451 37.9204 52.7352 38.2121L53.6212 38.4492C56.1981 39.1387 58.5556 36.7812 57.8661 34.2043L57.5265 32.9349C57.2521 31.9094 57.417 30.8261 57.8581 29.8605C58.859 27.6692 59.4168 25.233 59.4168 22.6666Z" fill="#6B73C2"/>
<path fill-rule="evenodd" clip-rule="evenodd" d="M48.7502 37.3333C48.7502 49.1153 39.1989 58.6666 27.4168 58.6666C24.1221 58.6666 21.0019 57.9197 18.2162 56.586C17.2587 56.1277 16.174 55.9667 15.1485 56.2411L11.8791 57.1159C9.3022 57.8054 6.94471 55.4479 7.63419 52.871L8.50897 49.6016C8.78335 48.5761 8.62241 47.4914 8.16403 46.5339C6.83036 43.7482 6.0835 40.6279 6.0835 37.3333C6.0835 25.5512 15.6348 15.9999 27.4168 15.9999C39.1989 15.9999 48.7502 25.5512 48.7502 37.3333ZM18.0835 39.9999C19.5563 39.9999 20.7502 38.806 20.7502 37.3333C20.7502 35.8605 19.5563 34.6666 18.0835 34.6666C16.6107 34.6666 15.4168 35.8605 15.4168 37.3333C15.4168 38.806 16.6107 39.9999 18.0835 39.9999ZM27.4168 39.9999C28.8896 39.9999 30.0835 38.806 30.0835 37.3333C30.0835 35.8605 28.8896 34.6666 27.4168 34.6666C25.9441 34.6666 24.7502 35.8605 24.7502 37.3333C24.7502 38.806 25.9441 39.9999 27.4168 39.9999ZM36.7502 39.9999C38.2229 39.9999 39.4168 38.806 39.4168 37.3333C39.4168 35.8605 38.2229 34.6666 36.7502 34.6666C35.2774 34.6666 34.0835 35.8605 34.0835 37.3333C34.0835 38.806 35.2774 39.9999 36.7502 39.9999Z" fill="#6B73C2"/>
</g>
</g>
</svg>
