<svg width="56" height="56" viewBox="0 0 56 56" fill="none" xmlns="http://www.w3.org/2000/svg">
<path opacity="0.1" d="M4.66683 28.0001C4.66683 40.8867 15.1135 51.3334 28.0002 51.3334C40.8868 51.3334 51.3335 40.8867 51.3335 28.0001C51.3335 15.1134 40.8868 4.66675 28.0002 4.66675C15.1135 4.66675 4.66683 15.1134 4.66683 28.0001Z" fill="white"/>
<path d="M35.0709 20.9293C34.3875 20.2459 33.2795 20.2459 32.5961 20.9293L28.0001 25.5252L23.4043 20.9294C22.7209 20.2459 21.6128 20.2459 20.9294 20.9294C20.246 21.6128 20.246 22.7208 20.9294 23.4042L25.5253 28.0001L20.9294 32.5959C20.246 33.2793 20.246 34.3874 20.9294 35.0708C21.6129 35.7542 22.7209 35.7542 23.4043 35.0708L28.0001 30.475L32.596 35.0709C33.2794 35.7543 34.3875 35.7543 35.0709 35.0709C35.7543 34.3874 35.7543 33.2794 35.0709 32.596L30.475 28.0001L35.0709 23.4042C35.7544 22.7208 35.7544 21.6127 35.0709 20.9293Z" fill="white"/>
</svg>
