<svg width="64" height="64" viewBox="0 0 64 64" fill="none" xmlns="http://www.w3.org/2000/svg">
<g id="Bold">
<g id="Vector">
<path fill-rule="evenodd" clip-rule="evenodd" d="M30.0002 5.3335C30.0002 4.22893 30.8956 3.3335 32.0002 3.3335C47.8323 3.3335 60.6668 16.168 60.6668 32.0002C60.6668 47.8323 47.8323 60.6668 32.0002 60.6668C16.168 60.6668 3.3335 47.8323 3.3335 32.0002C3.3335 30.8956 4.22893 30.0002 5.3335 30.0002C6.43807 30.0002 7.3335 30.8956 7.3335 32.0002C7.3335 45.6232 18.3771 56.6668 32.0002 56.6668C45.6232 56.6668 56.6668 45.6232 56.6668 32.0002C56.6668 18.3771 45.6232 7.3335 32.0002 7.3335C30.8956 7.3335 30.0002 6.43807 30.0002 5.3335ZM32.0002 22.0002C33.1047 22.0002 34.0002 22.8956 34.0002 24.0002V32.6668H42.6668C43.7714 32.6668 44.6668 33.5623 44.6668 34.6668C44.6668 35.7714 43.7714 36.6668 42.6668 36.6668H32.0002C30.8956 36.6668 30.0002 35.7714 30.0002 34.6668V24.0002C30.0002 22.8956 30.8956 22.0002 32.0002 22.0002Z" fill="#6B73C2"/>
<path fill-rule="evenodd" clip-rule="evenodd" d="M24.2657 6.3936C24.6635 7.42406 24.1506 8.58188 23.1201 8.97966C22.743 9.12525 22.3703 9.27985 22.0023 9.44321C20.9927 9.8914 19.811 9.43631 19.3628 8.42676C18.9146 7.4172 19.3697 6.23547 20.3793 5.78729C20.8073 5.59727 21.2408 5.41742 21.6796 5.24803C22.7101 4.85026 23.8679 5.36314 24.2657 6.3936ZM15.0607 11.3075C15.8225 12.1074 15.7916 13.3734 14.9917 14.1351C14.6993 14.4136 14.4136 14.6993 14.1351 14.9917C13.3734 15.7916 12.1074 15.8225 11.3075 15.0607C10.5077 14.2989 10.4768 13.033 11.2385 12.2331C11.5619 11.8936 11.8936 11.5619 12.2331 11.2385C13.033 10.4768 14.2989 10.5077 15.0607 11.3075ZM8.42676 19.3628C9.43631 19.811 9.8914 20.9927 9.44321 22.0023C9.27985 22.3703 9.12525 22.743 8.97965 23.1201C8.58188 24.1506 7.42406 24.6635 6.3936 24.2657C5.36314 23.8679 4.85025 22.7101 5.24803 21.6796C5.41742 21.2409 5.59727 20.8073 5.78728 20.3793C6.23547 19.3697 7.4172 18.9146 8.42676 19.3628Z" fill="#6B73C2"/>
</g>
</g>
</svg>
