<svg width="65" height="64" viewBox="0 0 65 64" fill="none" xmlns="http://www.w3.org/2000/svg">
<g id="&#208;&#159;&#209;&#128;&#208;&#181;&#208;&#184;&#208;&#188;&#209;&#131;&#209;&#137;&#208;&#181;&#209;&#129;&#209;&#130;&#208;&#178;&#208;&#176;">
<g id="Vector">
<path fill-rule="evenodd" clip-rule="evenodd" d="M16.9726 5.63061C14.8134 5.91502 13.67 6.43522 12.8557 7.2331C12.0413 8.03098 11.5103 9.15118 11.22 11.2666C10.9212 13.4442 10.9165 16.3302 10.9165 20.4684V43.3179C11.953 42.6082 13.1211 42.0683 14.3805 41.7377C15.7889 41.3679 17.4313 41.3684 19.8382 41.3692L53.5832 41.3693V20.4684C53.5832 16.3302 53.5785 13.4442 53.2797 11.2666C52.9894 9.15118 52.4584 8.03098 51.644 7.2331C50.8296 6.43522 49.6862 5.91502 47.5271 5.63061C45.3045 5.33784 42.3586 5.33325 38.1349 5.33325H26.3648C22.141 5.33325 19.1952 5.33784 16.9726 5.63061ZM18.2728 17.5855C18.2728 16.3914 19.2609 15.4233 20.4797 15.4233H44.02C45.2388 15.4233 46.2268 16.3914 46.2268 17.5855C46.2268 18.7796 45.2388 19.7477 44.02 19.7477H20.4797C19.2609 19.7477 18.2728 18.7796 18.2728 17.5855ZM20.4797 25.5134C19.2609 25.5134 18.2728 26.4815 18.2728 27.6756C18.2728 28.8697 19.2609 29.8378 20.4797 29.8378H35.1924C36.4112 29.8378 37.3993 28.8697 37.3993 27.6756C37.3993 26.4815 36.4112 25.5134 35.1924 25.5134H20.4797Z" fill="#6B73C2"/>
<path d="M23.4223 45.6936H20.1789C17.3004 45.6936 16.294 45.7122 15.5228 45.9146C13.4062 46.4703 11.7189 48.0117 10.9952 50.0153C11.04 51.0352 11.1101 51.9322 11.22 52.7333C11.5103 54.8487 12.0413 55.9689 12.8557 56.7667C13.67 57.5646 14.8134 58.0848 16.9726 58.3692C19.1952 58.662 22.141 58.6666 26.3648 58.6666H38.1349C42.3586 58.6666 45.3045 58.662 47.5271 58.3692C49.6862 58.0848 50.8296 57.5646 51.644 56.7667C52.4584 55.9689 52.9894 54.8487 53.2797 52.7333C53.5235 50.9567 53.5715 48.7085 53.5809 45.6936H35.1924V53.7112C35.1924 54.5057 35.1924 54.9029 34.9133 55.0635C34.6341 55.224 34.2524 55.0464 33.489 54.6911L29.8337 52.99C29.5754 52.8698 29.4462 52.8097 29.3073 52.8097C29.1684 52.8097 29.0392 52.8698 28.7809 52.99L25.1256 54.6911C24.3622 55.0464 23.9805 55.224 23.7014 55.0635C23.4223 54.9029 23.4223 54.5057 23.4223 53.7112V45.6936Z" fill="#6B73C2"/>
</g>
</g>
</svg>
