<svg width="64" height="64" viewBox="0 0 64 64" fill="none" xmlns="http://www.w3.org/2000/svg">
<g id="&#208;&#159;&#209;&#128;&#208;&#181;&#208;&#184;&#208;&#188;&#209;&#131;&#209;&#137;&#208;&#181;&#209;&#129;&#209;&#130;&#208;&#178;&#208;&#176;">
<path id="Vector" d="M42.6668 15.9999C42.6668 21.891 37.8912 26.6666 32.0002 26.6666C26.1091 26.6666 21.3335 21.891 21.3335 15.9999C21.3335 10.1089 26.1091 5.33325 32.0002 5.33325C37.8912 5.33325 42.6668 10.1089 42.6668 15.9999Z" fill="#6B73C2"/>
<path id="Subtract" d="M41.8084 36.0075C40.5468 36.0228 39.371 36.0688 38.3463 36.2066C36.6319 36.4371 34.7555 36.988 33.205 38.5385C31.6545 40.0889 31.1036 41.9654 30.8731 43.6798C30.6659 45.2204 30.6662 47.1027 30.6665 49.1041V49.5626C30.6662 51.5641 30.6659 53.4464 30.8731 54.987C31.0348 56.1899 31.3543 57.4727 32.0663 58.6667C32.0441 58.6667 32.022 58.6667 31.9998 58.6667C10.6665 58.6667 10.6665 53.2942 10.6665 46.6667C10.6665 40.0393 20.2178 34.6667 31.9998 34.6667C35.5363 34.6667 38.8718 35.1508 41.8084 36.0075Z" fill="#6B73C2"/>
<path id="Subtract_2" fill-rule="evenodd" clip-rule="evenodd" d="M36.0333 57.2998C37.4002 58.6667 39.6001 58.6667 43.9998 58.6667C48.3996 58.6667 50.5995 58.6667 51.9663 57.2998C53.3332 55.933 53.3332 53.7331 53.3332 49.3333C53.3332 44.9336 53.3332 42.7337 51.9663 41.3668C50.5995 40 48.3996 40 43.9998 40C39.6001 40 37.4002 40 36.0333 41.3668C34.6665 42.7337 34.6665 44.9336 34.6665 49.3333C34.6665 53.7331 34.6665 55.933 36.0333 57.2998ZM41.404 53.2706C39.532 51.93 37.3332 50.3555 37.3332 47.6261C37.3332 44.613 40.9999 42.4761 43.9998 45.3729C46.9997 42.4761 50.6665 44.613 50.6665 47.6261C50.6665 50.3555 48.4677 51.93 46.5957 53.2706C46.4011 53.4099 46.21 53.5467 46.0253 53.682C45.3332 54.1892 44.6665 54.6667 43.9998 54.6667C43.3332 54.6667 42.6665 54.1892 41.9743 53.682C41.7896 53.5467 41.5986 53.4099 41.404 53.2706Z" fill="#6B73C2"/>
</g>
</svg>
