<svg width="65" height="64" viewBox="0 0 65 64" fill="none" xmlns="http://www.w3.org/2000/svg">
<g id="&#208;&#159;&#209;&#128;&#208;&#181;&#208;&#184;&#208;&#188;&#209;&#131;&#209;&#137;&#208;&#181;&#209;&#129;&#209;&#130;&#208;&#178;&#208;&#176;">
<g id="Vector">
<path d="M38.1618 9.3324C34.3725 7.55587 30.1259 7.55587 26.3366 9.3324L14.8877 14.6999C16.9729 14.9249 18.8792 16.2384 19.7642 18.3034C21.0696 21.3492 19.6586 24.8764 16.6129 26.1818L13.7444 27.4111C12.319 28.022 11.5101 28.375 10.964 28.6549C10.961 28.6985 10.9582 28.7434 10.9556 28.7899L26.3368 36.0009C30.1261 37.7775 34.3727 37.7775 38.1621 36.0009L56.005 27.6358C59.8863 25.8161 59.8863 19.5173 56.0051 17.6977L38.1618 9.3324Z" fill="#6B73C2"/>
<path d="M13.5826 34.4393V44.3345C13.5826 47.0225 14.9253 49.5392 17.2769 50.8415C21.1925 53.01 27.46 56 32.2493 56C37.0387 56 43.3061 53.01 47.2218 50.8415C49.5733 49.5392 50.916 47.0225 50.916 44.3345V34.4394L39.86 39.6227C34.9949 41.9036 29.504 41.9036 24.6388 39.6227L13.5826 34.4393Z" fill="#6B73C2"/>
<path d="M15.0377 22.5055C16.0529 22.0704 16.5232 20.8946 16.0881 19.8793C15.653 18.8641 14.4773 18.3938 13.462 18.8289L10.4983 20.099C9.01174 20.7361 7.75191 21.276 6.76327 21.8321C5.7113 22.424 4.80588 23.1185 4.12768 24.147C3.44948 25.1755 3.16774 26.2814 3.03817 27.4814C2.91641 28.6092 2.91645 29.9798 2.91651 31.5971V39.3338C2.91651 40.4384 3.81194 41.3338 4.91651 41.3338C6.02108 41.3338 6.91651 40.4384 6.91651 39.3338V31.7007C6.91651 29.952 6.91921 28.7986 7.01506 27.9108C7.10571 27.0712 7.26439 26.6563 7.46704 26.349C7.66969 26.0417 7.98855 25.7324 8.72451 25.3183C9.50277 24.8805 10.5618 24.4237 12.1692 23.7348L15.0377 22.5055Z" fill="#6B73C2"/>
</g>
</g>
</svg>
