<svg width="65" height="64" viewBox="0 0 65 64" fill="none" xmlns="http://www.w3.org/2000/svg">
<g id="&#208;&#159;&#209;&#128;&#208;&#181;&#208;&#184;&#208;&#188;&#209;&#131;&#209;&#137;&#208;&#181;&#209;&#129;&#209;&#130;&#208;&#178;&#208;&#176;">
<g id="Vector">
<path d="M21.0003 6.6665C21.0003 5.56193 20.1049 4.6665 19.0003 4.6665C17.8958 4.6665 17.0003 5.56193 17.0003 6.6665V10.8779C13.1621 11.1852 10.6424 11.9395 8.79119 13.7907C6.93999 15.6419 6.18569 18.1616 5.87834 21.9998H58.789C58.4816 18.1616 57.7273 15.6419 55.8761 13.7907C54.0249 11.9395 51.5052 11.1852 47.667 10.8779V6.6665C47.667 5.56193 46.7716 4.6665 45.667 4.6665C44.5624 4.6665 43.667 5.56193 43.667 6.6665V10.7009C41.8929 10.6665 39.9044 10.6665 37.667 10.6665H27.0003C24.7629 10.6665 22.7744 10.6665 21.0003 10.7009V6.6665Z" fill="#6B73C2"/>
<path fill-rule="evenodd" clip-rule="evenodd" d="M59.0003 31.9998C59.0003 29.7624 59.0003 27.7739 58.9659 25.9998H5.7014C5.66699 27.7739 5.66699 29.7624 5.66699 31.9998V37.3332C5.66699 47.3898 5.66699 52.4181 8.79119 55.5423C11.9154 58.6665 16.9437 58.6665 27.0003 58.6665H37.667C47.7236 58.6665 52.7519 58.6665 55.8761 55.5423C59.0003 52.4181 59.0003 47.3898 59.0003 37.3332V31.9998ZM37.667 32.6665C35.0897 32.6665 33.0003 34.7558 33.0003 37.3332V42.6665C33.0003 45.2438 35.0897 47.3332 37.667 47.3332C40.2443 47.3332 42.3337 45.2438 42.3337 42.6665V37.3332C42.3337 34.7558 40.2443 32.6665 37.667 32.6665ZM37.667 36.6665C37.2988 36.6665 37.0003 36.965 37.0003 37.3332V42.6665C37.0003 43.0347 37.2988 43.3332 37.667 43.3332C38.0352 43.3332 38.3337 43.0347 38.3337 42.6665V37.3332C38.3337 36.965 38.0352 36.6665 37.667 36.6665ZM29.099 32.8187C29.8464 33.1283 30.3337 33.8576 30.3337 34.6665V45.3332C30.3337 46.4377 29.4382 47.3332 28.3337 47.3332C27.2291 47.3332 26.3337 46.4377 26.3337 45.3332V39.4949L25.7479 40.0807C24.9668 40.8618 23.7005 40.8618 22.9194 40.0807C22.1384 39.2997 22.1384 38.0333 22.9194 37.2523L26.9194 33.2523C27.4914 32.6803 28.3517 32.5092 29.099 32.8187Z" fill="#6B73C2"/>
</g>
</g>
</svg>
