<svg width="65" height="64" viewBox="0 0 65 64" fill="none" xmlns="http://www.w3.org/2000/svg">
<g id="&#208;&#159;&#209;&#128;&#208;&#181;&#208;&#184;&#208;&#188;&#209;&#131;&#209;&#137;&#208;&#181;&#209;&#129;&#209;&#130;&#208;&#178;&#208;&#176;">
<path id="Vector" d="M19.333 32.0002V34.6668H32.6663H45.9997V32.0002C45.9997 27.5879 49.5716 24.01 53.9815 24.0002C53.959 23.1255 53.9083 22.4903 53.7947 21.9192C52.953 17.6878 49.6453 14.3801 45.414 13.5385C44.3836 13.3335 43.1445 13.3335 40.6663 13.3335H32.6663H24.6663C22.1882 13.3335 20.9491 13.3335 19.9187 13.5385C15.6873 14.3801 12.3796 17.6878 11.538 21.9192C11.4244 22.4903 11.3737 23.1255 11.3512 24.0002C15.7611 24.01 19.333 27.5879 19.333 32.0002Z" fill="#6B73C2"/>
<path id="Vector_2" d="M49.8518 47.9998H15.4815C14.7427 47.9998 14.0236 47.9153 13.3333 47.7555V50.6665C13.3333 51.7711 12.4379 52.6665 11.3333 52.6665C10.2288 52.6665 9.33333 51.7711 9.33333 50.6665V45.7365C7.29354 43.9975 6 41.409 6 38.5184V31.9998C6 29.0543 8.38781 26.6665 11.3333 26.6665C14.2789 26.6665 16.6667 29.0543 16.6667 31.9998V35.1998C16.6667 36.378 17.6218 37.3332 18.8 37.3332H46.5333C47.7115 37.3332 48.6667 36.378 48.6667 35.1998V31.9998C48.6667 29.0543 51.0545 26.6665 54 26.6665C56.9455 26.6665 59.3333 29.0543 59.3333 31.9998V38.5184C59.3333 41.409 58.0398 43.9975 56 45.7365V50.6665C56 51.7711 55.1046 52.6665 54 52.6665C52.8954 52.6665 52 51.7711 52 50.6665V47.7555C51.3098 47.9153 50.5907 47.9998 49.8518 47.9998Z" fill="#6B73C2"/>
</g>
</svg>
