<svg width="48" height="48" viewBox="0 0 48 48" fill="none" xmlns="http://www.w3.org/2000/svg">
<g id="Bold / Arrows Action / Undo Left Round">
<path id="Vector" fill-rule="evenodd" clip-rule="evenodd" d="M15.0607 6.93934C15.6464 7.52513 15.6464 8.47487 15.0607 9.06066L11.6213 12.5H30C36.3513 12.5 41.5 17.6487 41.5 24C41.5 30.3513 36.3513 35.5 30 35.5H16C15.1716 35.5 14.5 34.8284 14.5 34C14.5 33.1716 15.1716 32.5 16 32.5H30C34.6944 32.5 38.5 28.6944 38.5 24C38.5 19.3056 34.6944 15.5 30 15.5H11.6213L15.0607 18.9393C15.6464 19.5251 15.6464 20.4749 15.0607 21.0607C14.4749 21.6464 13.5251 21.6464 12.9393 21.0607L6.93934 15.0607C6.35355 14.4749 6.35355 13.5251 6.93934 12.9393L12.9393 6.93934C13.5251 6.35355 14.4749 6.35355 15.0607 6.93934Z" fill="#BCBCC5"/>
</g>
</svg>
