<svg width="114" height="114" viewBox="0 0 114 114" fill="none" xmlns="http://www.w3.org/2000/svg">
<path fill-rule="evenodd" clip-rule="evenodd" d="M35.3006 37.3417C36.5479 35.9055 38.4754 35.263 40.3652 35.5275C40.7431 35.5653 41.1211 35.6409 41.4613 35.7543C41.6124 35.7921 41.7636 35.9055 41.8014 36.0189C41.877 36.2456 41.7258 36.4724 41.688 36.5102C40.2896 38.2866 38.2109 39.496 35.8298 40.1386C35.2628 40.2519 34.5069 40.4031 34.129 40.5165C33.6376 40.6677 33.4109 40.7433 32.9951 40.8945C32.9951 40.8945 32.9195 40.9323 32.8439 40.8945C32.7683 40.8567 32.8061 40.7055 32.8439 40.7055C33.3353 39.4204 34.6959 37.9842 35.3006 37.3417Z" fill="#FEFEFE"/>
<path fill-rule="evenodd" clip-rule="evenodd" d="M31.937 40.1764C31.7858 38.6645 31.9748 36.8504 32.3527 35.4519C32.9196 33.5244 34.6204 30.5386 37.3417 30.3496C38.0976 30.274 37.6818 31.1055 37.6818 31.1055C37.644 31.1811 37.6062 31.2189 37.6062 31.2945C37.1149 32.6173 36.6992 33.411 36.6236 34.885C36.6236 34.885 36.6236 35.074 36.5102 35.3008C36.3968 35.4897 36.2078 35.6031 36.2078 35.6409C35.6409 35.9433 35.1496 36.359 34.7338 36.8504C33.8267 37.7953 32.7685 39.0047 32.2393 40.2519C32.2393 40.2519 32.1637 40.3653 32.0503 40.3275C31.9748 40.2897 31.937 40.2142 31.937 40.1764Z" fill="#FEFEFE"/>
<path fill-rule="evenodd" clip-rule="evenodd" d="M40.4032 80.315C38.8158 79.2567 37.9465 77.4047 37.9087 75.515C37.9087 75.137 37.9465 74.7591 38.0221 74.3811C38.0599 74.2677 38.1355 74.0787 38.2488 74.0032C38.4756 73.9276 38.7024 74.041 38.7402 74.041C40.7055 75.2504 42.1796 77.1402 43.0866 79.4079C43.3134 79.937 43.5402 80.6929 43.6914 81.0331C43.9181 81.5244 44.0315 81.7512 44.2205 82.1291C44.2205 82.1291 44.2583 82.2047 44.2205 82.2803C44.1827 82.3559 44.0693 82.3181 44.0315 82.3181C42.7087 81.978 41.0835 80.8063 40.4032 80.315Z" fill="#FEFEFE"/>
<path fill-rule="evenodd" clip-rule="evenodd" d="M43.6536 83.263C42.1796 83.641 40.3276 83.6788 38.8914 83.452C36.0946 83.0362 33.9024 81.6378 32.5418 79.5213C32.504 79.4835 32.4284 79.1811 32.5418 79.0299C32.6552 78.8788 33.1087 78.9166 33.1087 78.9166C33.1843 78.9543 33.2599 78.9543 33.3355 78.9921C34.6961 79.2945 36.3213 79.4457 37.7576 79.2945C37.7954 79.2945 37.9843 79.2945 38.2111 79.3701C38.4379 79.4457 38.5513 79.5969 38.5891 79.6347C38.967 80.126 39.4206 80.5795 39.9875 80.9197C41.0458 81.6756 42.3686 82.5827 43.6536 82.9606C43.6536 82.9606 43.8048 82.9984 43.767 83.1496C43.7292 83.2252 43.6914 83.263 43.6536 83.263Z" fill="#FEFEFE"/>
<path fill-rule="evenodd" clip-rule="evenodd" d="M34.3934 74.6079C33.1839 73.1717 32.8438 71.1307 33.3729 69.3166C33.4863 68.9386 33.5997 68.5985 33.7887 68.2583C33.8265 68.1449 33.9398 67.9937 34.091 67.9559C34.3178 67.9559 34.5068 68.1071 34.5446 68.1449C36.0942 69.8079 37.0013 72.0378 37.228 74.4945C37.3036 75.0614 37.3036 75.8551 37.3792 76.2331C37.417 76.7622 37.4926 76.989 37.5682 77.4048C37.5682 77.4048 37.606 77.5181 37.5304 77.5559C37.4548 77.6315 37.3414 77.5559 37.3414 77.5559C36.1698 76.8378 34.9225 75.2882 34.3934 74.6079Z" fill="#FEFEFE"/>
<path fill-rule="evenodd" clip-rule="evenodd" d="M36.6991 78.3874C35.1873 78.274 33.3731 77.8205 32.0881 77.2158C29.518 76.0063 27.8172 74.0788 27.0991 71.6599C27.0613 71.6221 27.0613 71.3197 27.2125 71.2063C27.3637 71.0551 27.7794 71.2441 27.7794 71.2441C27.855 71.2819 27.9306 71.3197 27.9684 71.3575C29.1779 72.0378 30.7275 72.6425 32.1637 72.9071C32.1637 72.9071 32.3905 72.9449 32.5794 73.0961C32.7684 73.2473 32.844 73.4362 32.844 73.474C33.0708 74.041 33.4109 74.6079 33.8267 75.0992C34.6204 76.1197 35.6786 77.367 36.8125 78.0851C36.8125 78.0851 36.9259 78.1607 36.8503 78.274C36.8125 78.3496 36.7369 78.3496 36.6991 78.3874Z" fill="#FEFEFE"/>
<path fill-rule="evenodd" clip-rule="evenodd" d="M30.2742 67.6913C29.5561 65.9149 29.8585 63.9118 30.9167 62.3244C31.1057 62.022 31.3703 61.7196 31.6348 61.4551C31.7104 61.3795 31.8616 61.2661 32.0128 61.3039C32.2396 61.3417 32.3529 61.5307 32.3907 61.5685C33.3356 63.6472 33.5246 66.0661 32.9955 68.4472C32.8821 69.0141 32.6553 69.77 32.5797 70.148C32.5041 70.6771 32.4663 70.9039 32.4285 71.3196C32.4285 71.3196 32.4285 71.433 32.3529 71.4708C32.2774 71.5086 32.164 71.3952 32.164 71.3952C31.2569 70.3748 30.5766 68.5228 30.2742 67.6913Z" fill="#FEFEFE"/>
<path fill-rule="evenodd" clip-rule="evenodd" d="M31.2945 71.9622C29.8961 71.4331 28.3087 70.4126 27.2504 69.4677C25.1717 67.5402 24.1512 65.1591 24.189 62.6646C24.189 62.589 24.2646 62.2866 24.4536 62.2488C24.6803 62.1732 24.9827 62.4756 24.9827 62.4756C25.0583 62.5512 25.0961 62.589 25.1339 62.6268C26.0788 63.685 27.4016 64.7055 28.6488 65.3858C28.6866 65.3858 28.8378 65.4992 28.989 65.6882C29.1024 65.8772 29.1402 66.1039 29.1402 66.1039V66.1417C29.178 66.7465 29.3292 67.3512 29.5559 67.9559C30.0473 69.2032 30.652 70.6772 31.4835 71.7354C31.4835 71.7354 31.5591 71.8488 31.4457 71.9244C31.4079 72 31.3323 72 31.2945 71.9622Z" fill="#FEFEFE"/>
<path fill-rule="evenodd" clip-rule="evenodd" d="M28.2332 59.9055C28.0064 58.0158 28.8001 56.126 30.2363 54.8787C30.5009 54.6142 30.841 54.3874 31.1434 54.1984C31.2568 54.1606 31.4458 54.085 31.5591 54.1606C31.7859 54.2362 31.8237 54.5008 31.8615 54.5386C32.2395 56.7685 31.8237 59.1496 30.6898 61.3039C30.4253 61.8331 30.0095 62.5512 29.8584 62.8536C29.6316 63.3449 29.556 63.5717 29.4048 63.9496C29.4048 63.9496 29.367 64.063 29.2914 64.063C29.2158 64.1008 29.1402 63.9874 29.1402 63.9874V63.9496C28.5355 62.7402 28.3465 60.7748 28.2332 59.9055Z" fill="#FEFEFE"/>
<path fill-rule="evenodd" clip-rule="evenodd" d="M28.1574 64.2897C26.9102 63.4205 25.6629 62.0598 24.907 60.8504C23.3574 58.4693 22.9795 55.8992 23.6598 53.4803C23.6976 53.4047 23.811 53.1779 24.0377 53.1401C24.2267 53.1401 24.4913 53.5181 24.4913 53.5181C24.4913 53.5937 24.5291 53.6315 24.5669 53.7071C25.2472 54.9543 26.2299 56.2771 27.2881 57.2598C27.2881 57.2598 27.4393 57.411 27.5149 57.6378C27.5905 57.8645 27.5527 58.0535 27.5527 58.0913C27.4393 58.696 27.4393 59.3386 27.5149 59.9811C27.6283 61.3039 27.8551 62.8913 28.3842 64.1386C28.3842 64.1386 28.4598 64.2519 28.3086 64.2897C28.2708 64.3275 28.1952 64.3275 28.1574 64.2897Z" fill="#FEFEFE"/>
<path fill-rule="evenodd" clip-rule="evenodd" d="M28.3838 51.7796C28.6862 49.8898 29.9712 48.3024 31.7098 47.5087C32.0499 47.3197 32.3901 47.2063 32.768 47.093C32.8814 47.093 33.0704 47.0552 33.1838 47.1686C33.3728 47.3197 33.3728 47.5843 33.3728 47.6221C33.1082 49.8898 32.0499 52.0063 30.3491 53.8205C29.9712 54.2363 29.3665 54.8032 29.1397 55.0678C28.7995 55.4457 28.6484 55.6725 28.3838 56.0126C28.3838 56.0126 28.346 56.0882 28.2326 56.0882C28.157 56.0504 28.1192 55.9371 28.1192 55.9371C27.8925 54.5764 28.2326 52.6111 28.3838 51.7796Z" fill="#FEFEFE"/>
<path fill-rule="evenodd" clip-rule="evenodd" d="M27.0989 55.9748C26.1541 54.8031 25.3226 53.1401 24.9068 51.7417C24.1131 49.0205 24.4533 46.4504 25.7761 44.3338C25.8139 44.2961 26.0407 44.0693 26.2296 44.1071C26.4186 44.1449 26.5698 44.5984 26.5698 44.5984C26.5698 44.674 26.5698 44.7496 26.6076 44.7874C26.8722 46.1858 27.4769 47.6976 28.195 48.9827C28.195 48.9827 28.3084 49.1716 28.3462 49.3984C28.3462 49.6252 28.2706 49.8142 28.2328 49.852C27.9682 50.4189 27.7793 51.0236 27.6659 51.6283C27.4391 52.9512 27.1745 54.5386 27.3635 55.8614C27.3635 55.8614 27.4013 56.0126 27.2501 56.0126C27.1745 56.0504 27.1367 56.0126 27.0989 55.9748Z" fill="#FEFEFE"/>
<path fill-rule="evenodd" clip-rule="evenodd" d="M30.8032 44.0315C31.5969 42.2929 33.2977 41.159 35.1497 40.8567C35.5276 40.7811 35.9434 40.7433 36.2835 40.7811C36.4347 40.7811 36.6237 40.8189 36.6993 40.9322C36.8127 41.1212 36.7371 41.3858 36.7371 41.4236C35.8678 43.5401 34.2426 45.2787 32.126 46.5637C31.6347 46.8661 30.9166 47.2063 30.6142 47.433C30.1607 47.6976 29.9717 47.8488 29.6316 48.1133C29.6316 48.1133 29.556 48.1511 29.4804 48.1511C29.4048 48.1133 29.4048 47.9622 29.4048 47.9622C29.556 46.6015 30.4253 44.8252 30.8032 44.0315Z" fill="#FEFEFE"/>
<path fill-rule="evenodd" clip-rule="evenodd" d="M28.3841 47.7354C27.8172 46.337 27.4771 44.485 27.4771 43.0488C27.4393 40.2142 28.4975 37.8709 30.3495 36.1701C30.3873 36.1323 30.6519 35.9811 30.8408 36.0945C31.0298 36.1701 31.0298 36.6236 31.0298 36.6236C31.0298 36.6992 30.992 36.7748 30.992 36.8504C30.9164 38.2488 31.0298 39.874 31.4078 41.3102C31.4078 41.3102 31.4456 41.4992 31.4078 41.726C31.37 41.9527 31.2188 42.1417 31.181 42.1417C30.7652 42.5953 30.4251 43.1244 30.1605 43.7291C29.5558 44.9008 28.8755 46.3748 28.6865 47.6976C28.6865 47.6976 28.6865 47.8488 28.5353 47.811C28.4597 47.811 28.4219 47.7732 28.3841 47.7354Z" fill="#FEFEFE"/>
<path fill-rule="evenodd" clip-rule="evenodd" d="M47.4328 83.8677C45.6565 83.2252 44.3336 81.6756 43.8423 79.8614C43.7289 79.4834 43.6533 79.1055 43.6533 78.7275C43.6533 78.5763 43.6533 78.3874 43.7667 78.3118C43.9557 78.1606 44.2202 78.2362 44.2202 78.2362C46.4502 78.8787 48.3399 80.3149 49.814 82.2803C50.1541 82.7338 50.6077 83.4141 50.8344 83.7165C50.8722 83.7543 50.91 83.8299 50.9478 83.8677C52.4596 84.3212 55.3321 85.3039 59.6029 87.0047C62.5888 88.1763 65.6124 89.6126 68.0691 90.822C67.0864 91.1622 66.0659 91.4267 65.0454 91.6913C61.6061 89.6126 57.0706 87.0047 54.1982 86.1354C52.8376 85.6819 50.6832 84.9637 49.1714 84.4346C48.4911 84.2456 47.8486 83.9811 47.4328 83.8677Z" fill="#FEFEFE"/>
<path fill-rule="evenodd" clip-rule="evenodd" d="M51.099 85.6063C49.7761 86.4 48.0375 87.0048 46.6013 87.2315C43.8045 87.6851 41.31 87.0048 39.3824 85.4174C39.3446 85.3796 39.1557 85.115 39.1934 84.926C39.269 84.737 39.7226 84.6614 39.7226 84.6614C39.7982 84.6614 39.8738 84.6614 39.9494 84.6614C41.3478 84.5481 42.9352 84.1701 44.2958 83.6032C44.2958 83.6032 44.4848 83.5276 44.7116 83.5276C44.9383 83.5276 45.1273 83.641 45.1651 83.6788C45.6942 84.0189 46.2612 84.3213 46.8659 84.4725C48.1131 84.8882 49.6627 85.3418 51.0234 85.304C51.0234 85.304 51.1368 85.304 51.1745 85.4551C51.1745 85.5307 51.1368 85.5685 51.099 85.6063Z" fill="#FEFEFE"/>
<path fill-rule="evenodd" clip-rule="evenodd" d="M46.1481 30.2362C46.2615 30.3118 46.4504 30.3874 46.4882 30.5386C46.526 30.7654 46.3748 30.9543 46.3748 30.9921C44.9008 32.7685 42.8221 33.9402 40.4032 34.4693C39.8363 34.6205 39.0426 34.7339 38.7024 34.8095C38.1733 34.9606 37.9843 35.0362 37.5685 35.1874C37.5685 35.1874 37.4552 35.2252 37.4174 35.1496C37.3418 35.1118 37.3796 34.9984 37.3796 34.9984V34.9606C38.8158 30.0473 41.3481 28.5732 46.1481 30.2362Z" fill="#FEFEFE"/>
<path fill-rule="evenodd" clip-rule="evenodd" d="M78.1982 37.3417C76.951 35.9055 74.9856 35.263 73.1337 35.5275C72.7557 35.5653 72.3777 35.6409 71.9998 35.7543C71.8864 35.7921 71.7352 35.9055 71.6974 36.0189C71.6218 36.2456 71.773 36.4724 71.773 36.5102C73.2092 38.2866 75.2502 39.496 77.6313 40.1386C78.1982 40.2519 78.9919 40.4031 79.3699 40.5165C79.8612 40.6677 80.088 40.7433 80.5037 40.8945C80.5037 40.8945 80.5793 40.9323 80.6549 40.8945C80.6927 40.8567 80.6549 40.7055 80.6549 40.7055C80.1636 39.4204 78.8029 37.9842 78.1982 37.3417Z" fill="#FEFEFE"/>
<path fill-rule="evenodd" clip-rule="evenodd" d="M81.5619 40.1764C81.713 38.6645 81.5241 36.8504 81.1083 35.4519C80.5792 33.5244 78.8406 30.5386 76.1193 30.3496C75.4012 30.274 75.817 31.1055 75.817 31.1055C75.8548 31.1811 75.8548 31.2189 75.8926 31.2945C76.3839 32.6173 76.7996 33.411 76.8752 34.885C76.8752 34.885 76.8752 35.074 76.9886 35.3008C77.102 35.4897 77.2532 35.6031 77.291 35.6409C77.8201 35.9433 78.3115 36.359 78.765 36.8504C79.6343 37.7953 80.7304 39.0047 81.2595 40.2519C81.2595 40.2519 81.3351 40.3653 81.4485 40.3275C81.5241 40.2897 81.5619 40.2142 81.5619 40.1764Z" fill="#FEFEFE"/>
<path fill-rule="evenodd" clip-rule="evenodd" d="M73.096 80.315C74.6834 79.2567 75.5527 77.4047 75.5527 75.515C75.5527 75.137 75.5149 74.7591 75.4771 74.3811C75.4393 74.2677 75.3638 74.0787 75.2126 74.0032C75.0236 73.9276 74.7968 74.041 74.759 74.041C72.7937 75.2504 71.3197 77.1402 70.4126 79.4079C70.1858 79.937 69.959 80.6929 69.8078 81.0331C69.5811 81.5244 69.4677 81.7512 69.2787 82.1291C69.2787 82.1291 69.2031 82.2047 69.2787 82.2803C69.3165 82.3559 69.4299 82.3181 69.4299 82.3181C70.7905 81.978 72.3779 80.8063 73.096 80.315Z" fill="#FEFEFE"/>
<path fill-rule="evenodd" clip-rule="evenodd" d="M69.8457 83.263C71.3197 83.641 73.1717 83.6788 74.6079 83.452C77.4048 83.0362 79.5591 81.6378 80.9575 79.5213C80.9575 79.4835 81.0709 79.1811 80.9575 79.0299C80.8441 78.8788 80.3906 78.9166 80.3906 78.9166C80.315 78.9543 80.2394 78.9543 80.1638 78.9921C78.8032 79.2945 77.178 79.4457 75.704 79.2945C75.704 79.2945 75.515 79.2945 75.2882 79.3701C75.0615 79.4457 74.9103 79.5969 74.9103 79.6347C74.4945 80.126 74.041 80.5795 73.5119 80.9197C72.4536 81.6756 71.093 82.5827 69.8079 82.9606C69.8079 82.9606 69.6945 82.9984 69.7323 83.1496C69.7323 83.2252 69.8079 83.263 69.8457 83.263Z" fill="#FEFEFE"/>
<path fill-rule="evenodd" clip-rule="evenodd" d="M79.1056 74.6079C80.3151 73.1716 80.6552 71.1307 80.1261 69.3165C80.0127 68.9386 79.8615 68.5984 79.7104 68.2583C79.6348 68.1449 79.5214 67.9937 79.3702 67.9937C79.1434 67.9559 78.9545 68.1071 78.9545 68.1449C77.3671 69.8079 76.4978 72.0378 76.271 74.4945C76.1954 75.0614 76.1576 75.8551 76.1198 76.2331C76.082 76.7622 76.0064 76.989 75.9308 77.4047C75.9308 77.4047 75.893 77.5181 75.9686 77.5559C76.0064 77.6315 76.1198 77.5559 76.1576 77.5559C77.3293 76.8378 78.5387 75.2882 79.1056 74.6079Z" fill="#FEFEFE"/>
<path fill-rule="evenodd" clip-rule="evenodd" d="M76.8002 78.3874C78.312 78.274 80.0884 77.8205 81.4112 77.2158C83.9813 76.0063 85.6821 74.0788 86.4002 71.6599C86.438 71.6221 86.438 71.3197 86.2868 71.2063C86.0978 71.0551 85.6821 71.2441 85.6821 71.2441C85.6443 71.2819 85.5687 71.3197 85.4931 71.3575C84.2837 72.0378 82.7341 72.6425 81.3356 72.9071C81.2979 72.9071 81.1089 72.9449 80.9199 73.0961C80.7309 73.2473 80.6553 73.4362 80.6553 73.474H80.6175C80.3908 74.041 80.0884 74.6079 79.6727 75.0992C78.8412 76.1197 77.8207 77.367 76.6868 78.0851C76.6868 78.0851 76.5734 78.1607 76.649 78.274C76.6868 78.3496 76.7624 78.3496 76.8002 78.3874Z" fill="#FEFEFE"/>
<path fill-rule="evenodd" clip-rule="evenodd" d="M83.2252 67.6913C83.9433 65.9149 83.6409 63.9118 82.5827 62.3244C82.3559 62.022 82.1291 61.7196 81.8645 61.4551C81.789 61.3795 81.6 61.2661 81.4866 61.3039C81.2598 61.3417 81.1086 61.5307 81.1086 61.5685C80.126 63.6472 79.9748 66.0661 80.5039 68.4472C80.6173 69.0141 80.8441 69.77 80.9197 70.148C80.9953 70.6771 80.9953 70.9039 81.0708 71.3196C81.0708 71.3196 81.0708 71.433 81.1464 71.4708C81.222 71.5086 81.2976 71.3952 81.3354 71.3952C82.2425 70.3748 82.9228 68.5228 83.2252 67.6913Z" fill="#FEFEFE"/>
<path fill-rule="evenodd" clip-rule="evenodd" d="M82.2047 71.9622C83.6031 71.4331 85.1527 70.4126 86.211 69.4677C88.3275 67.5402 89.3102 65.1591 89.2724 62.6646C89.2724 62.589 89.1968 62.2866 89.0079 62.2488C88.8189 62.1732 88.4787 62.4756 88.4787 62.4756C88.4409 62.5512 88.4031 62.589 88.3275 62.6268C87.3827 63.685 86.0976 64.7055 84.8126 65.3858C84.8126 65.3858 84.6614 65.4992 84.5102 65.6882C84.359 65.8772 84.359 66.1039 84.359 66.1039V66.1417C84.2834 66.7465 84.1701 67.3512 83.9055 67.9559C83.4519 69.2032 82.8472 70.6772 82.0157 71.7354C82.0157 71.7354 81.9023 71.8488 82.0157 71.9244C82.0913 72 82.1669 72 82.2047 71.9622Z" fill="#FEFEFE"/>
<path fill-rule="evenodd" clip-rule="evenodd" d="M85.2661 59.9055C85.4929 58.0158 84.6992 56.126 83.2629 54.8787C82.9606 54.6142 82.6582 54.3874 82.3558 54.1984C82.2425 54.1606 82.0535 54.085 81.9023 54.1606C81.7133 54.2362 81.6377 54.5008 81.6377 54.5386C81.222 56.7685 81.6755 59.1496 82.7716 61.3039C83.0362 61.8331 83.4519 62.5512 83.6031 62.8536C83.8299 63.3449 83.9055 63.5717 84.0944 63.9496C84.0944 63.9496 84.0944 64.063 84.2078 64.063C84.2834 64.1008 84.3212 63.9874 84.359 63.9874V63.9496C84.9637 62.7402 85.1527 60.7748 85.2661 59.9055Z" fill="#FEFEFE"/>
<path fill-rule="evenodd" clip-rule="evenodd" d="M85.3419 64.2897C86.5514 63.4205 87.7986 62.0598 88.5923 60.8504C90.1419 58.4693 90.5199 55.8992 89.8395 53.4803C89.8017 53.4047 89.6506 53.1779 89.4616 53.1401C89.2726 53.1401 89.008 53.5181 89.008 53.5181C88.9702 53.5937 88.9325 53.6315 88.8947 53.7071C88.2521 54.9543 87.2695 56.2771 86.2112 57.2598C86.2112 57.2598 86.06 57.411 85.9844 57.6378C85.871 57.8645 85.9088 58.0535 85.9088 58.0913C86.06 58.696 86.06 59.3386 85.9844 59.9811C85.8332 61.3039 85.6443 62.8913 85.0773 64.1386C85.0773 64.1386 85.0395 64.2519 85.1529 64.2897C85.2285 64.3275 85.3041 64.3275 85.3419 64.2897Z" fill="#FEFEFE"/>
<path fill-rule="evenodd" clip-rule="evenodd" d="M85.0772 51.7796C84.8126 49.8898 83.4898 48.3024 81.789 47.5087C81.4488 47.3197 81.0709 47.2063 80.7307 47.093C80.5795 47.093 80.3905 47.0552 80.2772 47.1686C80.126 47.3197 80.126 47.5843 80.126 47.6221C80.3527 49.8898 81.4488 52.0063 83.1118 53.8205C83.5276 54.2363 84.0945 54.8032 84.359 55.0678C84.6992 55.4457 84.8504 55.6725 85.115 56.0126C85.115 56.0126 85.1527 56.0882 85.2283 56.0882C85.3039 56.0504 85.3417 55.9371 85.3417 55.9371C85.6063 54.5764 85.2283 52.6111 85.0772 51.7796Z" fill="#FEFEFE"/>
<path fill-rule="evenodd" clip-rule="evenodd" d="M86.4001 55.9748C87.345 54.8031 88.1387 53.1401 88.5544 51.7417C89.3859 49.0205 89.008 46.4504 87.6851 44.3338C87.6851 44.2961 87.4583 44.0693 87.2694 44.1071C87.0426 44.1449 86.9292 44.5984 86.9292 44.5984C86.9292 44.674 86.8914 44.7496 86.8914 44.7874C86.5891 46.1858 86.0221 47.6976 85.2662 48.9827C85.2662 48.9827 85.1906 49.1716 85.1528 49.3984C85.1528 49.6252 85.2284 49.8142 85.2284 49.852C85.5308 50.4189 85.7198 51.0236 85.8331 51.6283C86.0599 52.9512 86.2867 54.5386 86.0977 55.8614C86.0977 55.8614 86.0977 56.0126 86.2489 56.0126C86.3245 56.0504 86.3623 56.0126 86.4001 55.9748Z" fill="#FEFEFE"/>
<path fill-rule="evenodd" clip-rule="evenodd" d="M82.6581 44.0315C81.8643 42.2929 80.2014 41.159 78.3116 40.8567C77.9336 40.7811 77.5557 40.7433 77.1777 40.7811C77.0643 40.7811 76.8754 40.8189 76.7998 40.9322C76.6864 41.1212 76.762 41.3858 76.762 41.4236C77.6313 43.5401 79.2565 45.2787 81.3352 46.5637C81.8643 46.8661 82.5825 47.2063 82.8848 47.433C83.3384 47.6976 83.4895 47.8488 83.8675 48.1133C83.8675 48.1133 83.9431 48.1511 84.0187 48.1511C84.0943 48.1133 84.0943 47.9622 84.0943 47.9622C83.9431 46.6015 83.0738 44.8252 82.6581 44.0315Z" fill="#FEFEFE"/>
<path fill-rule="evenodd" clip-rule="evenodd" d="M85.0768 47.7354C85.6816 46.337 85.9839 44.485 86.0217 43.0488C86.0217 40.2142 85.0013 37.8709 83.1115 36.1701C83.0737 36.1323 82.8091 35.9811 82.6579 36.0945C82.469 36.1701 82.469 36.6236 82.469 36.6236C82.469 36.6992 82.469 36.7748 82.469 36.8504C82.5824 38.2488 82.4312 39.874 82.091 41.3102C82.091 41.3102 82.0532 41.4992 82.091 41.726C82.1288 41.9527 82.28 42.1417 82.28 42.1417C82.7335 42.5953 83.0737 43.1244 83.3383 43.7291C83.943 44.9008 84.6233 46.3748 84.7745 47.6976C84.7745 47.6976 84.8123 47.8488 84.9635 47.811C85.039 47.811 85.0768 47.7732 85.0768 47.7354Z" fill="#FEFEFE"/>
<path fill-rule="evenodd" clip-rule="evenodd" d="M66.0283 83.8677C67.8425 83.2252 69.1653 81.6756 69.6567 79.8614C69.77 79.4834 69.8078 79.1055 69.8456 78.7275C69.8456 78.5763 69.8456 78.3874 69.6945 78.3118C69.5433 78.1606 69.2787 78.2362 69.2409 78.2362C67.0488 78.8787 65.1212 80.3149 63.685 82.2803C63.3071 82.7338 62.8913 83.4141 62.6645 83.7165C62.6267 83.7543 62.5889 83.8299 62.5511 83.8677C61.0015 84.3212 58.1291 85.3039 53.8582 87.0047C50.9102 88.1763 47.8488 89.6126 45.3921 90.8598C46.3748 91.1622 47.3952 91.4645 48.4157 91.6913C51.8551 89.6126 56.4283 87.0047 59.263 86.1354C60.6614 85.6819 62.8157 84.9637 64.3275 84.4346C65.0078 84.2456 65.6504 83.9811 66.0283 83.8677Z" fill="#FEFEFE"/>
<path fill-rule="evenodd" clip-rule="evenodd" d="M62.3998 85.6063C63.6848 86.4 65.4612 87.0048 66.8597 87.2315C69.6565 87.6851 72.151 87.0048 74.1163 85.4174C74.1541 85.3796 74.3431 85.115 74.2675 84.926C74.1919 84.737 73.7384 84.6614 73.7384 84.6614C73.7006 84.6614 73.625 84.6614 73.5494 84.6614C72.151 84.5481 70.5258 84.1701 69.203 83.6032C69.203 83.6032 69.014 83.5276 68.7494 83.5276C68.5226 83.5276 68.3715 83.641 68.3337 83.6788C67.8045 84.0189 67.2376 84.3213 66.6329 84.4725C65.3478 84.8882 63.7982 85.3418 62.4754 85.304C62.4754 85.304 62.3242 85.304 62.3242 85.4551C62.3242 85.5307 62.362 85.5685 62.3998 85.6063Z" fill="#FEFEFE"/>
<path fill-rule="evenodd" clip-rule="evenodd" d="M67.3134 30.2362C67.2 30.3118 67.0488 30.3874 67.011 30.5386C66.9732 30.7654 67.0866 30.9543 67.1244 30.9921C68.5984 32.7685 70.6772 33.9402 73.0583 34.4693C73.6252 34.6205 74.4189 34.7339 74.7969 34.8095C75.2882 34.9606 75.515 35.0362 75.9307 35.1874C75.9307 35.1874 76.0063 35.2252 76.0819 35.1496C76.1575 35.1118 76.1197 34.9984 76.0819 34.9984V34.9606C74.6835 30.0473 72.1134 28.5732 67.3134 30.2362Z" fill="#FEFEFE"/>
<path d="M56.6927 19.6536C66.9352 19.6536 76.1951 23.811 82.8848 30.5008C89.5746 37.1906 93.7321 46.4504 93.7321 56.6929C93.7321 66.9355 89.5746 76.1953 82.8848 82.8851C76.1951 89.5748 66.9352 93.7323 56.6927 93.7323C46.4502 93.7323 37.1903 89.5748 30.5006 82.8851C23.8108 76.1953 19.6533 66.9355 19.6533 56.6929C19.6533 46.4504 23.8108 37.1906 30.5006 30.5008C37.1903 23.811 46.4502 19.6536 56.6927 19.6536ZM81.9777 31.4079C75.5147 24.9071 66.5573 20.9008 56.6927 20.9008C46.8281 20.9008 37.8706 24.9071 31.4077 31.4079C24.9069 37.8709 20.9006 46.8284 20.9006 56.6929C20.9006 66.5575 24.9069 75.515 31.4077 81.978C37.8706 88.4788 46.8281 92.4851 56.6927 92.4851C66.5573 92.4851 75.5147 88.4788 81.9777 81.978C88.4785 75.515 92.4848 66.5575 92.4848 56.6929C92.4848 46.8284 88.4785 37.8709 81.9777 31.4079Z" fill="#FEFEFE"/>
<path d="M39.0426 63.5338L43.2001 47.1685L43.3512 47.1307C43.3512 47.1307 47.0552 45.77 51.2883 46.0724C54.3119 46.2992 55.9749 47.0551 56.693 47.4708V63.7984C56.0505 63.5338 52.7623 62.1732 47.6977 62.7401C41.9906 63.3448 39.3827 63.9118 39.3827 63.9118L38.9292 63.9874L39.0426 63.5338ZM51.2883 46.6393C51.1749 47.6598 51.0615 48.6803 50.9859 49.7385C50.8725 50.6078 50.7969 51.5527 50.6835 52.4976C51.5528 52.5354 52.3843 52.611 53.178 52.7622C54.3497 52.9511 55.5213 53.4047 56.6552 53.8582V53.2535C55.7481 52.8756 54.8788 52.5732 53.9717 52.3086C54.9166 51.5149 55.7859 50.8724 56.6552 50.3055V49.7385C56.2016 50.0409 55.7103 50.3433 55.2568 50.6834C54.652 51.137 54.0473 51.6283 53.4426 52.1952C53.178 52.1197 52.8757 52.0819 52.6111 52.0441C53.4048 51.326 54.1229 50.6456 54.8788 50.0787C55.4835 49.6252 56.0883 49.2472 56.6552 48.9071V48.1134C56.5796 48.0378 56.3906 47.9244 56.126 47.811C55.4835 48.2267 54.7654 48.6803 54.0851 49.2472C53.2536 49.8897 52.4221 50.6834 51.5528 51.5149C51.6662 50.57 51.7418 49.7008 51.8174 48.8315C51.8552 48.1134 51.9308 47.3952 51.9686 46.7149C51.7418 46.6771 51.515 46.6771 51.2883 46.6393ZM50.4946 54.3118C50.3812 55.4078 50.2678 56.5039 50.1166 57.6756C49.9654 59.074 49.7764 60.5102 49.6253 62.022C49.9276 62.022 50.23 62.022 50.5323 62.022C50.6457 60.926 50.7591 59.8299 50.8725 58.7716C50.9859 57.6378 51.0993 56.5417 51.2127 55.4834C51.9686 56.6173 52.7623 57.8267 53.556 59.1118C54.3119 60.3212 55.1056 61.5685 55.8993 62.8913C56.2016 63.0047 56.4662 63.1181 56.6552 63.1937V61.9464C55.9371 60.737 55.2568 59.6031 54.5764 58.5071C53.8205 57.2976 53.1024 56.1637 52.3843 55.1055C52.6867 55.1433 52.989 55.1811 53.2536 55.2567C53.8583 56.126 54.4253 57.0708 55.03 58.0535C55.5591 58.885 56.0883 59.7921 56.6552 60.6992V59.9433C56.2016 59.2252 55.7859 58.5071 55.3323 57.7889C54.841 56.9574 54.3119 56.126 53.8205 55.37C54.7654 55.5968 55.7103 55.8992 56.6552 56.2771V55.6346C55.4835 55.1811 54.2741 54.7653 53.1024 54.5385C52.2331 54.3874 51.3638 54.3118 50.4946 54.3118ZM47.0174 62.2488C47.2442 60.6614 47.5087 59.1874 47.7355 57.7511C47.9245 56.5795 48.1135 55.4456 48.2646 54.3496C47.3198 54.3874 46.3749 54.5008 45.4678 54.6519C44.1827 54.8787 42.9355 55.1811 41.6883 55.4834L41.4993 56.1637C42.5953 55.8992 43.6158 55.6724 44.6741 55.4456C43.9938 56.2393 43.2379 57.0708 42.482 57.8645C41.8772 58.5826 41.1969 59.263 40.5544 59.9433L40.3654 60.6614C41.1591 59.8299 41.9528 58.9984 42.7465 58.1669C43.6158 57.1842 44.4473 56.2393 45.2788 55.3322C45.5812 55.2945 45.8835 55.2567 46.1859 55.2189C45.1654 56.3149 44.1449 57.4488 43.0489 58.6582C42.104 59.7165 41.0835 60.7748 40.0631 61.8708L39.6851 63.2693C39.8741 63.2315 40.1009 63.1937 40.3654 63.1559C41.5749 61.833 42.7465 60.548 43.8804 59.3008C45.052 57.9779 46.1859 56.7307 47.2442 55.559C47.093 56.6173 46.8662 57.7511 46.6772 58.885C46.4883 60.0189 46.2615 61.1527 46.0725 62.3244C46.3749 62.2866 46.715 62.2488 47.0174 62.2488ZM48.5292 52.5354C48.6426 51.5905 48.756 50.6456 48.8694 49.7385C49.0205 48.6803 49.1717 47.622 49.2851 46.6393C49.0583 46.6393 48.7938 46.6393 48.567 46.6771C48.4914 47.3952 48.378 48.1134 48.2646 48.8693C48.1135 49.7385 48.0001 50.6078 47.8489 51.5527C47.2064 50.6834 46.5638 49.8519 45.9213 49.1338C45.3922 48.4913 44.8631 47.9244 44.3717 47.3952C44.0694 47.5086 43.8048 47.5842 43.6914 47.622L43.5024 48.3779C43.956 48.8693 44.4473 49.3606 44.9386 49.9275C45.5056 50.6078 46.0725 51.326 46.6772 52.0819C46.4127 52.1197 46.1103 52.1574 45.8457 52.1952C45.3544 51.5905 44.8631 51.0236 44.4095 50.4945C44.0316 50.0787 43.6536 49.663 43.2757 49.2472L43.1245 49.8141C43.8426 50.57 44.5229 51.4015 45.2788 52.3086C44.2961 52.4976 43.3135 52.7622 42.293 53.0267L42.1418 53.6315C43.389 53.3291 44.5607 53.0267 45.7701 52.8C46.715 52.6488 47.6221 52.5732 48.5292 52.5354Z" fill="#FEFEFE"/>
<path fill-rule="evenodd" clip-rule="evenodd" d="M54.9165 66.1795H36.8882L41.2347 49.5118H40.7811L35.9055 66.9354L54.7654 67.1244H55.4079C55.4835 67.2377 55.5591 67.3133 55.6347 67.4267C55.8992 67.6913 56.2772 67.8425 56.6929 67.8425V68.4472C56.126 68.4472 55.5969 68.1826 55.2189 67.8425C55.1811 67.8047 55.1433 67.7291 55.1055 67.6913L35.1118 67.5401C36.8504 61.3039 38.589 55.1055 40.3276 48.907H41.3858L41.5748 48.1889C41.5748 48.1889 41.8394 48.0755 42.2929 47.9622L38.0976 64.3653L37.9843 64.8189L38.4756 64.7055C38.4756 64.7055 41.1591 64.1385 47.1307 63.496C52.2709 62.9291 55.6724 64.2897 56.4284 64.6299C55.6347 64.7433 55.0299 65.3858 54.9165 66.1795Z" fill="#FEFEFE"/>
<path fill-rule="evenodd" clip-rule="evenodd" d="M58.4692 66.1795H76.4976L72.1511 49.5118H72.6047L77.4803 66.9354L58.6204 67.1244H57.9779C57.9023 67.2378 57.8267 67.3134 57.7511 67.4268C57.4866 67.6914 57.1086 67.8425 56.6929 67.8425V68.4473C57.2598 68.4473 57.7889 68.1827 58.1669 67.8425C58.2047 67.8047 58.2425 67.7291 58.2803 67.6914L78.274 67.5402C76.5354 61.304 74.7968 55.1055 73.0582 48.9071H72L71.811 48.189C71.811 48.189 71.5464 48.0756 71.0929 47.9622L75.2881 64.3654L75.4015 64.8189L74.9102 64.7055C74.9102 64.7055 74.3433 64.5921 73.1338 64.4032C74.1921 64.3654 74.7968 64.2898 74.7968 64.2898L75.1748 64.252L69.4677 44.9386L69.1275 45.6567C68.2204 47.7354 65.4236 47.1307 63.3448 46.6772C62.7023 46.5638 62.0976 46.4126 61.6063 46.3748C59.5653 46.2236 57.4488 47.1307 56.6929 47.4709V48.1134C56.8818 48 59.3007 46.7906 61.5685 46.9795C62.022 47.0173 62.5889 47.1307 63.2315 47.2819C65.3102 47.6977 67.9937 48.3024 69.3165 46.526L74.3811 63.7229C73.5496 63.7984 71.2818 63.9496 68.1826 63.7229C67.5779 63.6473 66.9354 63.5717 66.2551 63.4961C61.1149 62.9291 57.7133 64.2898 56.9574 64.6299C57.7511 64.7433 58.3559 65.3858 58.4692 66.1795Z" fill="#FEFEFE"/>
<path fill-rule="evenodd" clip-rule="evenodd" d="M62.0599 49.5874C62.0599 49.5874 62.4378 49.6252 62.4378 49.5496C62.4378 49.474 62.2489 49.1339 62.3244 49.0961C62.4378 49.0205 62.4378 48.7937 62.4378 48.7937C62.4378 48.7937 62.5134 48.5291 62.589 48.4913C62.6646 48.4913 63.5717 48.6803 63.7229 48.6803C63.874 48.6425 63.9118 48.6425 64.0252 48.8315C64.1386 49.0583 63.6473 49.5118 63.5717 49.5874C63.4961 49.7008 63.3827 49.7764 63.4961 49.852C63.5717 49.9276 63.4961 50.1921 63.4961 50.1921C63.4961 50.1921 63.8363 50.1921 63.9496 50.1921C64.063 50.1921 64.0252 50.0787 64.2898 50.1921C64.5922 50.3055 65.0835 50.1921 65.1969 50.3811C65.3481 50.5701 65.2725 50.9102 65.1969 51.0992C65.1213 51.2882 65.0457 51.6661 64.8945 51.7417C64.7811 51.8173 64.441 51.9685 64.5166 52.0441C64.63 52.1197 64.8567 52.3465 64.8567 52.3465C64.8567 52.3465 64.63 52.4976 64.4788 52.5354C64.2898 52.611 64.2898 52.7622 64.3276 52.8C64.3654 52.8 64.8189 52.8 64.8189 52.8C64.8189 52.8 64.9701 52.6866 65.1213 52.8C65.1969 52.8756 65.2725 52.9134 65.3481 52.9512C65.2725 53.0268 65.2347 53.1024 65.1969 53.1402V53.1779C65.1591 53.2913 65.1213 53.3669 65.2347 53.4803C65.2725 53.4803 65.2725 53.5181 65.3103 53.5559C65.3103 53.5937 65.3103 53.6315 65.3103 53.6315C65.3103 53.6315 65.1969 53.6693 65.1213 53.7071C65.0835 53.7071 65.0457 53.7071 65.0079 53.7449C64.9701 53.7449 64.9323 53.7827 64.8945 53.8205C64.8567 53.8583 64.8189 53.8961 64.7811 53.9716L64.7433 54.0094C64.7055 54.085 64.63 54.2362 64.5544 54.2362C64.5166 54.2362 64.4788 54.2362 64.441 54.2362C64.3276 54.2362 64.252 54.274 64.1764 54.3118C64.1764 54.274 64.1386 54.274 64.1008 54.274C64.0252 54.274 63.9874 54.4252 63.7985 54.4252C63.5717 54.4252 63.3071 54.3496 63.1937 54.4252C63.0426 54.5386 62.778 54.463 62.6646 54.3496C62.5512 54.2362 62.5512 54.085 62.6268 53.9339C62.7024 53.8205 62.8158 53.5559 62.8914 53.4803C62.9292 53.4047 62.8914 53.3669 62.8158 53.2535C62.778 53.1024 62.5512 52.8 62.4378 52.8378C62.2866 52.8756 62.2866 53.1402 62.2866 53.2157C62.2866 53.3291 62.2489 53.6315 62.1355 53.5937C62.0221 53.5559 61.9087 53.4047 61.9087 53.2157C61.9087 53.0646 62.0221 52.6488 62.0221 52.6488C62.0221 52.6488 61.8709 52.611 61.7197 52.5732C61.5685 52.4976 61.5685 52.3842 61.6441 52.3842C61.7197 52.3465 62.0221 52.2709 62.0599 52.1575C62.1355 52.0063 61.7575 51.8929 61.6819 51.8551C61.6063 51.8551 61.6063 51.6661 61.6063 51.5528C61.6063 51.4394 61.7197 51.4394 61.8331 51.2882C61.9465 51.137 62.0599 51.0614 61.9843 50.9858C61.9465 50.8724 61.5307 50.759 61.4929 50.6079C61.4174 50.4945 61.1906 50.3811 61.1906 50.3055C61.1906 50.2677 61.1528 50.1921 61.3418 50.1165C61.5307 50.0409 61.6819 49.9653 61.6819 50.0409C61.7197 50.1165 61.9087 50.5323 61.9465 50.4945C62.0221 50.4567 61.9843 50.2299 61.9465 50.1921C61.9465 50.1543 61.9843 49.852 61.9843 49.8142C61.9843 49.7764 62.0599 49.5874 62.0599 49.5874ZM65.4237 53.0268C65.4237 53.0646 65.4615 53.0646 65.4615 53.0646C65.6126 53.1779 65.7638 53.2913 65.8394 53.4047C65.915 53.5559 65.915 53.5937 65.9528 53.7827C66.0284 53.9339 66.104 54.2362 66.2174 54.3496C66.3307 54.463 66.5197 54.7653 66.7465 54.8409C66.9733 54.8787 67.389 55.1811 67.4646 55.3701C67.578 55.5213 68.1071 56.0504 68.0693 56.126C68.0693 56.2016 68.0693 56.1638 68.1449 56.2394C68.0693 56.2772 67.9937 56.315 67.9181 56.2772C67.8048 56.2772 67.6914 56.2772 67.578 56.2772C67.4268 56.2772 67.2756 56.315 67.2 56.315C67.0866 56.3528 66.8599 56.3905 66.6709 56.4283C66.5575 56.4283 66.4441 56.4661 66.4063 56.4283C66.3685 56.4283 66.2929 56.3905 66.2174 56.315C66.104 56.2016 65.9906 56.0504 65.915 55.9748C65.8772 55.937 65.8772 55.8614 65.8772 55.8236C65.8772 55.7858 65.8772 55.748 65.8772 55.7102C65.8772 55.5968 65.6882 55.5213 65.537 55.4835C65.4615 55.4457 65.4237 55.4079 65.3859 55.4079C65.3859 55.4079 65.3859 55.4079 65.4237 55.3701L65.4615 55.3323C65.537 55.2945 65.537 55.2567 65.5748 55.1811C65.6126 55.1055 65.6504 54.9921 65.6504 54.9543C65.6504 54.9543 65.6504 54.9165 65.6126 54.8409C65.6126 54.8031 65.5748 54.7653 65.537 54.6898C65.537 54.6898 65.4992 54.652 65.4615 54.6142C65.3481 54.5008 65.2725 54.4252 65.2347 54.3496C65.1969 54.3118 65.2347 54.274 65.2347 54.274C65.2347 54.1984 65.2725 54.1606 65.2347 54.0472C65.1591 53.9716 65.0457 53.8961 65.0079 53.8583C65.0079 53.8583 65.0457 53.8583 65.0457 53.8205H65.1591C65.2725 53.7449 65.4237 53.7071 65.4237 53.6315C65.4237 53.5937 65.4237 53.5559 65.3859 53.4803C65.3859 53.4425 65.3481 53.4047 65.3103 53.3669C65.2725 53.3291 65.2725 53.2913 65.3103 53.2157V53.1779C65.3481 53.1402 65.3859 53.1024 65.4237 53.0268ZM68.2205 56.315V56.3528C68.3717 56.5417 68.5985 56.7685 68.6363 56.8441C68.6363 56.9575 68.2583 57.0331 68.3339 57.1842C68.4095 57.2598 68.5607 57.2976 68.674 57.2976C68.5985 57.3732 68.4473 57.411 68.3717 57.4488H68.3339C68.2961 57.4488 68.2205 57.4488 68.1449 57.4488C68.0315 57.411 67.9181 57.411 67.8803 57.4866C67.8048 57.5244 67.8803 57.6 67.9181 57.7134C67.9181 57.7512 67.9559 57.8268 67.9559 57.8268C67.9559 57.8646 67.8803 57.9024 67.8048 57.9402H67.767C67.7292 57.9402 67.7292 57.9402 67.7292 57.9402C67.6914 57.9402 67.6914 57.9779 67.6536 57.9779C67.578 58.0157 67.4646 58.0535 67.4268 58.0535C67.389 58.0913 67.3512 58.0913 67.2756 58.1291C67.1622 58.1669 67.0489 58.2425 66.9733 58.2425C66.9355 58.2425 66.9733 58.0913 66.9733 58.0535C67.0111 58.0157 67.0489 57.9779 67.0866 57.9779C67.2 57.9024 67.2 57.789 67.2 57.789L67.1622 57.7512C67.1622 57.7512 66.7843 57.4866 66.7087 57.4488C66.6709 57.4488 66.6331 57.411 66.6331 57.3732C66.5575 57.2976 66.5197 57.1842 66.5197 57.1842C66.4819 57.0709 66.2929 57.0709 66.1796 57.0709C66.2174 57.0709 66.2174 57.0709 66.2174 57.0709C66.3307 56.9953 66.3307 56.9575 66.2929 56.8441L66.2552 56.7685C66.2174 56.6929 66.104 56.6173 66.0284 56.5795C66.0662 56.5039 66.0662 56.3905 66.0662 56.315C66.0662 56.3528 66.104 56.3528 66.1418 56.3905C66.2174 56.4661 66.2929 56.5417 66.3685 56.5417C66.4441 56.5795 66.5575 56.5417 66.6709 56.5417C66.8599 56.5039 67.1244 56.4661 67.2 56.4283C67.3134 56.4283 67.4268 56.3905 67.578 56.3905C67.6914 56.3905 67.8048 56.3905 67.9181 56.4283C68.0315 56.4283 68.1071 56.3905 68.2205 56.315ZM68.9008 57.222C69.0142 57.1842 69.2032 57.1842 69.5055 57.2976C69.8079 57.411 70.4882 57.7134 70.526 57.8646C70.5638 58.0157 70.7528 58.3937 70.526 58.5827C70.2992 58.7716 70.1859 58.885 70.0347 58.9606C69.8835 58.9984 69.7323 58.9984 69.7323 59.1118C69.7323 59.1496 69.7323 59.1496 69.7323 59.1496C69.5433 59.1496 69.3922 59.1118 69.3544 59.1118C69.3166 59.1118 69.3166 59.1118 69.2788 59.1118C69.2788 59.074 69.241 58.9984 69.1654 58.9606C69.1276 58.9228 69.0898 58.885 69.0142 58.885C68.9764 58.885 68.9008 58.8472 68.7874 58.8094C68.7118 58.7339 68.5985 58.6961 68.5229 58.6961C68.3717 58.6961 68.1071 58.7716 67.9937 58.7716L67.9559 58.7339C67.8803 58.6583 67.767 58.6205 67.7292 58.6205C67.7292 58.5827 67.7292 58.5827 67.767 58.5449C67.8048 58.4315 67.8048 58.2047 67.8048 58.0535H67.8426C67.9559 57.9779 68.0315 57.9402 68.0693 57.9024C68.1071 57.8268 68.0693 57.7512 67.9937 57.6378C67.9937 57.6 67.9559 57.5622 67.9559 57.5244C67.9559 57.5244 68.0315 57.5244 68.1071 57.5622C68.2205 57.5622 68.2961 57.6 68.3717 57.5622H68.4095C68.5229 57.5244 68.7496 57.4488 68.9008 57.222ZM69.7323 59.263C69.7701 59.3386 69.7701 59.3764 69.7701 59.3764C69.7701 59.3764 70.2615 59.4898 70.4126 59.4898C70.5638 59.5276 70.6394 59.5653 70.6394 59.6787C70.6394 59.7921 69.7323 60.1701 69.3544 60.0945C69.0142 60.0567 68.5229 59.8677 68.4095 59.9055C68.2961 59.9055 67.3512 59.8299 67.2756 59.9055C67.2 60.0189 66.7465 59.8677 66.6331 59.7921C66.5953 59.7543 66.5575 59.7543 66.5197 59.7543C66.4819 59.6409 66.4441 59.5653 66.4441 59.5276H66.5197C66.5953 59.4898 66.6709 59.452 66.6709 59.3764C66.6709 59.3386 66.6709 59.263 66.6331 59.2252C66.6331 59.1874 66.5953 59.1496 66.5953 59.1496C66.6331 59.1496 66.7087 59.1118 66.7087 59.1118C66.8221 59.074 66.8977 58.9984 66.8599 58.9228V58.885C66.8221 58.8472 66.7465 58.8094 66.7087 58.7716C66.5953 58.6961 66.5197 58.6583 66.5197 58.6205C66.5197 58.5449 66.5575 58.3937 66.5575 58.3181C66.6331 58.2803 66.7465 58.2047 66.8221 58.1291C66.8221 58.2425 66.8599 58.3559 66.9733 58.3559C67.0489 58.3559 67.2 58.2803 67.3134 58.2425C67.389 58.2047 67.4268 58.2047 67.4646 58.2047C67.5024 58.1669 67.578 58.1669 67.6914 58.1291C67.6914 58.2425 67.6914 58.4315 67.6536 58.4693C67.6158 58.5449 67.6158 58.5827 67.6158 58.6205C67.6158 58.6961 67.6536 58.6961 67.6914 58.7339C67.7292 58.7339 67.8048 58.7716 67.8803 58.8094C67.9181 58.8472 67.9937 58.9228 67.9937 58.9606C68.0693 59.0362 68.1449 59.1496 68.2205 59.1874C68.3339 59.263 68.4095 59.3008 68.4851 59.3008C68.4851 59.3008 68.5607 59.3386 68.6363 59.3386C68.7874 59.3764 68.9386 59.4142 69.0142 59.3764C69.052 59.3386 69.1276 59.3008 69.2032 59.263C69.241 59.2252 69.2788 59.2252 69.3166 59.2252C69.3544 59.2252 69.5433 59.263 69.7323 59.263ZM66.3685 59.7543C66.2929 59.7921 66.2174 59.7921 66.2174 59.8299C66.1418 59.8677 65.8772 59.9055 65.6882 59.8299C65.4992 59.7165 65.1969 59.4898 64.7433 59.6787C64.252 59.8299 64.3276 59.9055 64.252 60.0189C64.1386 60.0945 63.7607 60.0945 63.4583 60.0945C63.1559 60.0945 62.6646 60.0945 62.5512 60.2457C62.4 60.4346 61.9087 60.3968 61.9087 60.3213C61.9087 60.2457 62.7024 59.8677 62.778 59.7543C62.8536 59.6031 63.1559 59.1874 63.3827 59.1874C63.6095 59.1874 64.5166 59.1874 64.7055 59.1496C64.8567 59.074 64.8189 58.9606 64.7055 58.885C64.7811 58.8472 64.8567 58.8094 64.8945 58.8094C64.9701 58.7716 65.0457 58.7339 65.1213 58.6583C65.1969 58.5827 65.2725 58.5071 65.2725 58.4693V58.4315C65.3103 58.4315 65.3103 58.4693 65.3481 58.4693C65.3859 58.4693 65.4992 58.4315 65.6126 58.3937C65.6882 58.3559 65.726 58.3181 65.7638 58.3181C65.8016 58.3181 65.8772 58.2803 65.9906 58.2425C66.1418 58.2047 66.2929 58.1291 66.3685 58.1669C66.3685 58.1669 66.3685 58.1669 66.4063 58.2047C66.4063 58.2425 66.4063 58.2803 66.4441 58.2803C66.4441 58.3937 66.4063 58.5449 66.4063 58.6205C66.4063 58.6961 66.5197 58.7716 66.6331 58.8472C66.6709 58.885 66.7465 58.9228 66.7465 58.9606C66.7465 58.9606 66.7087 58.9606 66.6709 58.9984H66.6331C66.5953 59.0362 66.5575 59.0362 66.5575 59.0362C66.4819 59.1118 66.5197 59.1874 66.5197 59.263C66.5575 59.3008 66.5575 59.3386 66.5575 59.3764C66.5575 59.3764 66.5197 59.3764 66.4819 59.4142C66.4063 59.4142 66.3685 59.452 66.3307 59.4898C66.3307 59.5276 66.3307 59.6409 66.3685 59.7543ZM64.5922 58.8472C64.3654 58.7716 63.9496 58.6583 63.7985 58.5827C63.6473 58.5071 63.3449 58.3181 63.1559 58.3937C62.9292 58.4693 62.5134 58.5449 62.5134 58.5449C62.5134 58.5449 62.2866 58.2803 62.3622 58.2047C62.4378 58.1291 63.1181 57.9024 63.2693 57.789C63.4205 57.7134 63.5717 57.6 63.5339 57.411C63.4961 57.1842 63.5339 56.8819 63.3827 56.8819C63.2315 56.8441 63.0048 56.9575 63.0048 56.9575L62.967 56.6929L63.1937 56.5417C63.1937 56.5417 63.0048 56.3905 63.0426 56.2772C63.0803 56.1638 63.4583 56.2016 63.4583 56.2016C63.4583 56.2016 63.5717 56.5039 63.7229 56.4283C63.874 56.3528 64.4788 56.4661 64.5544 56.3528C64.5922 56.3528 64.5922 56.3528 64.5922 56.3528C64.63 56.3528 64.63 56.3905 64.6678 56.4283C64.7433 56.5417 64.7811 56.6173 64.8189 56.6929C64.8567 56.7307 64.8567 56.7685 64.8945 56.8063C64.8567 56.8441 64.8189 56.8441 64.7811 56.8441C64.6678 56.8819 64.63 56.9953 64.5922 57.0331C64.5922 57.0709 64.5922 57.1087 64.63 57.1087L64.8189 57.222C64.8189 57.2598 64.7055 57.3354 64.63 57.3732L64.5544 57.411C64.5166 57.4866 64.5166 57.5244 64.5544 57.5622C64.5922 57.6 64.6678 57.6378 64.7433 57.6756C64.7811 57.6756 64.8189 57.6756 64.8567 57.7134C64.8189 57.7134 64.7811 57.7512 64.7811 57.7512C64.7055 57.789 64.63 57.8268 64.63 57.9024C64.63 57.9402 64.63 57.9779 64.6678 58.0157C64.6678 58.0535 64.7055 58.1291 64.7433 58.1669C64.8189 58.2047 64.8567 58.2425 64.9323 58.2425C64.9323 58.2425 64.9323 58.2425 64.9701 58.2425C65.0079 58.2425 65.0835 58.3181 65.1969 58.3559C65.1591 58.3937 65.1591 58.4315 65.1591 58.4693C65.1591 58.4693 65.0835 58.5071 65.0457 58.5827C64.9701 58.6205 64.8945 58.6583 64.8567 58.6583C64.7811 58.6961 64.6678 58.7716 64.5922 58.8472ZM64.63 56.2016C64.6678 56.0504 64.6678 55.8236 64.7055 55.748C64.7433 55.6724 65.0835 55.4079 64.8945 55.2945C64.7055 55.1811 64.5166 55.4835 64.441 55.3701C64.3276 55.2189 64.1008 54.8031 64.1386 54.652C64.1386 54.6142 64.1386 54.5764 64.1764 54.5008C64.2142 54.463 64.252 54.3874 64.252 54.3874C64.2898 54.3874 64.3654 54.3874 64.441 54.3496C64.4788 54.3496 64.5544 54.3496 64.5922 54.3496C64.7055 54.3496 64.7811 54.1606 64.8567 54.0472V54.0094C64.8945 53.9716 64.9323 53.9339 64.9701 53.8961L64.9323 53.9716C64.9323 53.9716 65.0835 54.0094 65.1213 54.1228C65.1213 54.1606 65.1213 54.1984 65.1213 54.2362C65.0835 54.274 65.0835 54.3496 65.1213 54.4252C65.1591 54.5008 65.2725 54.6142 65.3481 54.6898C65.3859 54.7276 65.4237 54.7653 65.4615 54.7653C65.4992 54.8031 65.4992 54.8409 65.4992 54.8787C65.4992 54.9165 65.4992 54.9543 65.4992 54.9543C65.4992 54.9921 65.4992 55.0677 65.4615 55.1433C65.4615 55.1811 65.4237 55.2189 65.4237 55.2189C65.3859 55.2567 65.3481 55.2945 65.3103 55.2945C65.3103 55.3323 65.2725 55.3701 65.2725 55.3701C65.2725 55.4079 65.2725 55.4457 65.2725 55.4835C65.3103 55.4835 65.3103 55.4835 65.3103 55.4835C65.3481 55.5213 65.4237 55.559 65.4992 55.559C65.6126 55.6346 65.7638 55.6724 65.7638 55.7102C65.7638 55.748 65.7638 55.7858 65.7638 55.7858C65.7638 55.8614 65.726 55.937 65.8394 56.0504C65.8394 56.0882 65.8772 56.126 65.915 56.1638C65.915 56.1638 65.9906 56.5795 65.915 56.5795C65.726 56.5795 65.6504 56.5795 65.5748 56.6551C65.537 56.6929 65.4615 56.7685 65.3481 56.8441C65.2725 56.8819 65.2347 56.8819 65.1969 56.8819C65.1591 56.8819 65.1213 56.8819 65.0835 56.8441C65.0835 56.8063 65.0457 56.8063 65.0457 56.7685H65.0079C65.0079 56.7307 65.0079 56.7307 64.9701 56.6929C64.9701 56.6929 64.9323 56.6551 64.9323 56.6173C64.8945 56.5417 64.8567 56.4661 64.7811 56.3528C64.7055 56.315 64.6678 56.2394 64.63 56.2016ZM68.1071 58.885C68.1449 58.9606 68.2205 59.0362 68.2961 59.1118C68.3717 59.1496 68.4473 59.1874 68.4473 59.1874C68.5229 59.1874 68.5985 59.2252 68.674 59.2252C68.7874 59.263 68.9008 59.3008 68.9386 59.263C68.9764 59.2252 69.052 59.1874 69.1654 59.1496C69.1654 59.1118 69.1276 59.074 69.0898 59.0362C69.0898 58.9984 69.052 58.9984 69.0142 58.9984C68.9386 58.9984 68.863 58.9606 68.7496 58.885C68.674 58.8472 68.5607 58.8094 68.4851 58.8094C68.4095 58.8094 68.2205 58.8472 68.1071 58.885ZM66.5197 58.2047C66.5953 58.1669 66.7087 58.0913 66.8221 57.9779C66.8977 57.9402 66.9733 57.9024 67.0111 57.8646C67.0489 57.8646 67.0489 57.8268 67.0489 57.8268C66.9733 57.7512 66.7087 57.6 66.6331 57.5622C66.5953 57.5244 66.5575 57.4866 66.5197 57.411C66.4819 57.3354 66.4441 57.2598 66.4063 57.222H66.104L66.0662 57.1842C66.0662 57.1842 66.0284 57.0331 66.1796 56.9575C66.2174 56.9575 66.1796 56.9197 66.1796 56.9197L66.1418 56.8441C66.104 56.7685 66.0284 56.7307 65.9906 56.6929C65.9528 56.6929 65.9528 56.6929 65.915 56.6929C65.7638 56.6929 65.726 56.6929 65.6504 56.7307C65.6126 56.7685 65.537 56.8819 65.4237 56.9197C65.3481 56.9953 65.2347 57.0331 65.1969 56.9953C65.1213 56.9953 65.0457 56.9575 65.0079 56.9197C64.9323 56.9197 64.8567 56.9575 64.8189 56.9575C64.7811 56.9953 64.7433 56.9953 64.7433 57.0331C64.7811 57.0709 64.8945 57.1465 64.9323 57.1842C64.9701 57.2598 64.8189 57.3732 64.7055 57.4866H64.6678C64.7055 57.5244 64.7433 57.5244 64.7811 57.5622C64.8189 57.5622 64.8567 57.6 64.9323 57.6378C64.9701 57.6756 64.9701 57.7134 64.9701 57.7512C64.9323 57.789 64.8945 57.8268 64.8189 57.8646C64.7811 57.8646 64.7433 57.9024 64.7433 57.9024C64.7433 57.9024 64.7433 57.9402 64.7811 57.9779C64.7811 58.0157 64.8189 58.0535 64.8567 58.0913C64.8567 58.1291 64.8945 58.1291 64.8945 58.1291C65.0079 58.0913 65.1591 58.2047 65.2725 58.2803L65.3103 58.3181C65.3103 58.3181 65.3103 58.3181 65.3481 58.3181C65.3481 58.3181 65.3481 58.3559 65.3859 58.3559C65.3859 58.3559 65.4615 58.3181 65.537 58.2803C65.6504 58.2425 65.726 58.2047 65.7638 58.2047C65.7638 58.2047 65.8772 58.1669 65.9528 58.1291C66.104 58.0913 66.2929 58.0157 66.3685 58.0157C66.4819 58.0535 66.4819 58.0913 66.5197 58.1669C66.5197 58.1669 66.5197 58.1669 66.5197 58.2047Z" fill="#FEFEFE"/>
<path fill-rule="evenodd" clip-rule="evenodd" d="M58.2802 56.8441C58.2802 56.8441 58.2802 57.1087 58.0912 57.2221C57.9023 57.3732 57.5999 57.5244 57.6755 57.6C57.7133 57.6378 57.6755 57.7134 57.6755 57.8268C57.6755 57.9024 57.2975 58.0158 57.1842 58.0914C57.0708 58.2047 57.0708 58.2803 57.1842 58.3181C57.2975 58.3937 57.3353 58.5071 57.2598 58.6205C57.222 58.7339 57.1842 58.9606 57.3353 58.9606C57.4487 58.9984 57.5999 58.7717 57.7133 58.8851C57.8267 58.9606 57.7133 59.0362 57.7889 59.074C57.8645 59.1496 58.2802 59.263 58.2802 59.074C58.2802 58.8851 59.1873 58.6205 59.4897 58.3559C59.792 58.0914 59.792 57.8268 60.0566 57.8268C60.359 57.8268 61.0015 57.8268 61.0771 57.6756C61.1905 57.5244 61.455 57.1087 61.4928 56.9953C61.4928 56.8441 61.4928 56.504 61.4928 56.2772C61.4928 56.0504 61.3794 56.0126 61.3794 55.7858C61.3416 55.6725 61.2661 55.5591 61.2283 55.4457C61.1905 55.4457 61.1527 55.4079 61.1149 55.4079C61.0393 55.3323 60.8881 55.1811 60.8125 55.0677C60.7369 54.9921 60.6991 54.9543 60.6991 54.9165C60.6991 54.9165 60.6991 54.9165 60.6613 54.9165C60.6613 54.9543 60.6613 54.9543 60.6613 54.9543C60.6235 54.9543 60.6235 54.9921 60.6235 55.0299C60.5857 55.1055 60.5479 55.1433 60.5101 55.2189C60.4346 55.2945 60.359 55.3323 60.3212 55.3323C60.2834 55.3323 60.0566 55.2567 59.9054 55.2189H59.8676C59.792 55.1811 59.792 55.1433 59.7542 55.1055V55.0677C59.7542 55.0677 59.7542 55.0299 59.7164 54.9921C59.6409 54.8788 59.4897 54.841 59.4897 54.841H59.4141C59.3763 54.9165 59.3007 55.0299 59.3007 55.0299C59.3007 55.0299 59.2251 55.1811 59.0739 55.1433C58.9227 55.1055 58.4314 55.0299 58.0912 55.0677C57.7889 55.1433 57.6755 55.4457 57.6755 55.4835C57.6755 55.5591 57.7889 55.7858 57.7889 55.7858L58.129 55.748C58.129 55.748 58.1668 55.8614 58.129 55.8992C58.0912 55.9748 57.7511 56.0882 57.7133 56.1638C57.6755 56.2772 57.6755 56.4662 57.7133 56.504C57.7511 56.5417 57.8267 56.6551 57.9023 56.6551C58.0157 56.6551 58.2802 56.5795 58.3558 56.6551C58.3936 56.7307 58.2802 56.8441 58.2802 56.8441ZM61.3416 55.3701C61.5306 55.2945 61.9464 55.1811 61.9464 55.1055C61.9464 55.0299 62.3243 54.9543 62.2487 54.7654C62.2109 54.5764 61.9464 54.652 61.9086 54.4252C61.9086 54.2362 61.6818 53.8961 61.644 53.7449C61.5684 53.6315 61.3416 53.7071 61.1905 53.6693C61.1527 53.6693 61.0771 53.6693 61.0393 53.6693C61.0015 53.7071 60.9637 53.7449 60.8881 53.7827C60.8125 53.8583 60.6613 53.9339 60.5857 53.9717C60.4723 53.9717 60.3968 54.1984 60.3212 54.274C60.3212 54.3496 60.2834 54.3496 60.2834 54.3874C60.2456 54.4252 60.17 54.4252 60.0566 54.4252C59.981 54.463 59.9432 54.463 59.9054 54.463H59.9432L59.981 54.5008C60.0188 54.5386 60.0566 54.6142 59.981 54.6898C59.9054 54.7276 59.792 54.7654 59.7164 54.8032C59.7542 54.841 59.792 54.8788 59.8298 54.9165C59.8676 54.9543 59.8676 54.9921 59.8676 55.0299C59.9054 55.0677 59.9054 55.1055 59.9054 55.1055H59.9432C60.0566 55.1433 60.2834 55.2189 60.3212 55.2189C60.3212 55.2189 60.359 55.1811 60.4346 55.1433C60.4723 55.1055 60.4723 55.0299 60.5101 54.9921C60.5101 54.9543 60.5479 54.9165 60.5479 54.8788C60.5857 54.841 60.6235 54.841 60.6235 54.841C60.6613 54.8032 60.6991 54.8032 60.7369 54.8032C60.7369 54.841 60.7747 54.841 60.7747 54.841C60.7747 54.8788 60.8503 54.9165 60.8881 54.9921C60.9637 55.1055 61.1149 55.2567 61.1905 55.2945C61.1905 55.3323 61.2661 55.3323 61.3416 55.3701ZM60.7369 53.7449C60.6991 53.7449 60.6235 53.7449 60.6235 53.6693C60.5857 53.4803 60.4723 53.4047 60.359 53.3669C60.2834 53.3669 59.981 53.7449 59.8676 53.7071C59.792 53.6693 59.4519 53.7071 59.3763 53.7827C59.3385 53.8583 59.2629 54.0473 59.3007 54.0851C59.3385 54.1228 59.4141 54.274 59.3007 54.274C59.1873 54.3118 58.9983 54.463 59.0361 54.5386C59.0739 54.6142 59.2251 54.6142 59.3007 54.6142C59.3385 54.652 59.4141 54.6898 59.4141 54.7276H59.5275C59.5275 54.7276 59.8298 54.6898 59.9054 54.6142C59.9054 54.5764 59.9054 54.5764 59.9054 54.5764H59.8676C59.8298 54.5386 59.792 54.5008 59.792 54.4252H59.8298C59.8298 54.3496 59.9432 54.3496 60.0566 54.3118C60.1322 54.3118 60.17 54.3118 60.17 54.3118C60.2078 54.3118 60.2078 54.274 60.2078 54.2362C60.2834 54.1228 60.3968 53.8961 60.5479 53.8583C60.5857 53.8205 60.6613 53.7827 60.7369 53.7449Z" fill="#FEFEFE"/>
<path fill-rule="evenodd" clip-rule="evenodd" d="M50.3054 33.8268L50.6834 37.2661C50.7212 37.4551 50.5322 37.6063 50.3432 37.6063H49.6251H48.9448C48.7558 37.6063 48.5668 37.4551 48.6046 37.2661L48.9826 33.8268C48.6802 33.6 48.4912 33.2598 48.4912 32.8819C48.4912 32.4284 48.7558 32.0504 49.096 31.8614C49.1338 31.0299 49.3227 29.8583 49.8519 28.989L46.9416 28.0441C46.6015 27.9307 46.6015 27.7795 46.9416 27.6661L56.0881 24.6425C56.4283 24.5669 56.9574 24.5669 57.2975 24.6803L66.444 27.6661C66.7842 27.7417 66.7842 27.9307 66.444 28.0441L57.2975 31.0299C56.9574 31.1433 56.4283 31.1433 56.0881 31.0299L50.8724 29.3291C50.8724 29.3669 50.8346 29.4425 50.7968 29.4803C50.3432 30.1228 50.192 31.1055 50.1542 31.8614C50.5322 32.0504 50.7968 32.4284 50.7968 32.8819C50.7968 33.2598 50.6078 33.6 50.3054 33.8268ZM62.022 30.274L62.2109 32.5795C62.2109 32.6551 62.2109 32.7307 62.2109 32.7685C62.2109 34.2047 59.7542 35.3386 56.6928 35.3386C53.6314 35.3386 51.1747 34.2047 51.1747 32.7685C51.1747 32.7307 51.1747 32.6551 51.1747 32.5795L51.3637 30.274L55.7857 31.7102C56.3149 31.8992 57.0708 31.8992 57.5999 31.7102L62.022 30.274Z" fill="#FEFEFE"/>
<path d="M56.6928 4.87561C71.0172 4.87561 83.9432 10.6583 93.3164 20.0693C102.727 29.4425 108.51 42.3685 108.51 56.6929C108.51 71.0173 102.727 83.9433 93.3164 93.3166C83.9432 102.728 71.0172 108.51 56.6928 108.51C42.3684 108.51 29.4424 102.728 20.0692 93.3166C10.6582 83.9433 4.87549 71.0173 4.87549 56.6929C4.87549 42.3685 10.6582 29.4425 20.0692 20.0693C29.4424 10.6583 42.3684 4.87561 56.6928 4.87561ZM92.6739 20.7118C83.4519 11.5276 70.7527 5.82049 56.6928 5.82049C42.633 5.82049 29.9338 11.5276 20.7117 20.7118C11.5275 29.9339 5.82037 42.6331 5.82037 56.6929C5.82037 70.7528 11.5275 83.452 20.7117 92.674C29.9338 101.858 42.633 107.565 56.6928 107.565C70.7527 107.565 83.4519 101.858 92.6739 92.674C101.858 83.452 107.565 70.7528 107.565 56.6929C107.565 42.6331 101.858 29.9339 92.6739 20.7118Z" fill="#FEFEFE"/>
<path fill-rule="evenodd" clip-rule="evenodd" d="M17.1592 35.1496C18.1419 35.1496 18.9356 35.9433 18.9356 36.926C18.9356 37.9087 18.1419 38.7024 17.1592 38.7024C16.1765 38.7024 15.3828 37.9087 15.3828 36.926C15.3828 35.9433 16.1765 35.1496 17.1592 35.1496Z" fill="#FEFEFE"/>
<path fill-rule="evenodd" clip-rule="evenodd" d="M70.6392 12.9638C71.6218 12.9638 72.4155 13.7575 72.4155 14.7402C72.4155 15.7229 71.6218 16.5166 70.6392 16.5166C69.6565 16.5166 68.8628 15.7229 68.8628 14.7402C68.8628 13.7575 69.6565 12.9638 70.6392 12.9638Z" fill="#FEFEFE"/>
<path fill-rule="evenodd" clip-rule="evenodd" d="M92.0693 28.4221C93.052 28.4221 93.8457 29.2158 93.8457 30.1984C93.8457 31.1811 93.052 31.9748 92.0693 31.9748C91.0867 31.9748 90.293 31.1811 90.293 30.1984C90.293 29.2158 91.0867 28.4221 92.0693 28.4221Z" fill="#FEFEFE"/>
<path fill-rule="evenodd" clip-rule="evenodd" d="M85.3794 88.5543C86.3243 88.5543 87.1558 89.348 87.1558 90.3307C87.1558 91.3134 86.3243 92.1071 85.3794 92.1071C84.3967 92.1071 83.603 91.3134 83.603 90.3307C83.603 89.348 84.3967 88.5543 85.3794 88.5543Z" fill="#FEFEFE"/>
<path fill-rule="evenodd" clip-rule="evenodd" d="M29.0645 89.2725C30.0471 89.2725 30.8408 90.0662 30.8408 91.0488C30.8408 91.9937 30.0471 92.8252 29.0645 92.8252C28.0818 92.8252 27.2881 91.9937 27.2881 91.0488C27.2881 90.0662 28.0818 89.2725 29.0645 89.2725Z" fill="#FEFEFE"/>
<path d="M23.3575 85.4174C23.8867 85.0016 24.189 84.5103 24.3024 83.9433C24.4158 83.3764 24.3024 82.8851 23.9245 82.4315C23.5843 81.978 23.1308 81.7512 22.526 81.7134C21.9591 81.6756 21.3922 81.9024 20.9008 82.2803C20.3717 82.6961 20.0694 83.1874 19.956 83.7544C19.8426 84.3213 19.956 84.8504 20.2961 85.304C20.6363 85.7197 21.1276 85.9843 21.6946 85.9843C22.2615 86.0221 22.8284 85.8331 23.3575 85.4174ZM24.4914 86.8914C24.0757 87.2315 23.5843 87.4583 23.093 87.6095C22.6016 87.7607 22.0725 87.8362 21.5434 87.7607C21.0142 87.7229 20.5607 87.5717 20.1071 87.3071C19.6536 87.0803 19.2757 86.7402 18.9733 86.3244C18.6331 85.9465 18.4064 85.4929 18.293 85.0016C18.1418 84.5103 18.104 84.0189 18.1796 83.4898C18.2552 82.9607 18.4064 82.4693 18.6709 82.0158C18.9355 81.6 19.3134 81.1843 19.7292 80.8441C20.1071 80.5418 20.5229 80.315 20.9008 80.1638C21.3166 80.0126 21.7323 79.937 22.1859 79.937C22.7906 79.8992 23.3575 80.0126 23.9245 80.2772C24.4536 80.5418 24.9071 80.9197 25.2851 81.3733C25.5875 81.789 25.8142 82.2048 25.9654 82.6961C26.0788 83.1874 26.1166 83.7166 26.041 84.2079C25.9654 84.737 25.8142 85.2284 25.5497 85.6819C25.2851 86.1355 24.9449 86.5512 24.4914 86.8914ZM21.5812 76.611L14.4757 79.8236L14.4001 79.6725L16.4788 73.5496L12.6993 75.2882L12.019 73.7764L19.1623 70.526L19.2001 70.6772L17.1591 76.8L20.9008 75.0992L21.5812 76.611ZM18.0662 68.1071L10.7339 69.8079L10.3182 68.0693L16.1008 66.7465L15.4205 63.874L17.0079 63.4961L18.0662 68.1071ZM16.7812 61.6819L9.2599 62.2488L9.10872 60.4725L16.63 59.9055L16.7812 61.6819ZM16.3276 57.2221L8.57959 56.6173V56.4284L13.3418 52.0819L9.18431 51.7796L9.3355 50.1166L17.1213 50.7213V50.8725L12.3591 55.2567L16.4788 55.5591L16.3276 57.2221ZM17.3481 48.0756L10.0914 46.0347L11.3764 41.5748L12.8505 41.9906L12.0568 44.7874L13.3796 45.1276L14.0599 42.7465L15.5339 43.1622L14.8536 45.5811L16.2898 45.9591L17.0835 43.1244L18.6331 43.578L17.3481 48.0756ZM21.4678 33.0331C21.9591 32.8441 22.3749 32.6551 22.6394 32.4662C22.9418 32.2772 23.1686 32.0882 23.3575 31.8236C23.5843 31.5969 23.6599 31.3323 23.6599 31.1055C23.6977 30.8788 23.6221 30.6898 23.4331 30.5764C23.2064 30.3874 22.715 30.4252 21.9969 30.7276C21.8835 30.7654 21.8079 30.8032 21.7323 30.841L21.2032 31.0299C20.6741 31.2567 20.1827 31.3701 19.767 31.3323C19.3512 31.2945 18.9355 31.1433 18.5953 30.8788C18.104 30.5008 17.8772 30.0095 17.8394 29.4047C17.8016 28.8 18.0284 28.2331 18.482 27.6662C18.6331 27.4394 18.8599 27.2126 19.0867 27.0236C19.3134 26.8347 19.6158 26.6079 19.956 26.3811L21.3544 27.4772C20.9386 27.6284 20.5985 27.7796 20.2961 27.9685C19.9938 28.1575 19.767 28.3087 19.6158 28.4977C19.4646 28.6866 19.389 28.9134 19.389 29.0646C19.389 29.2536 19.4646 29.4047 19.6158 29.5181C19.7292 29.5937 19.8426 29.6315 19.9938 29.6315C20.1071 29.6315 20.2961 29.5937 20.4473 29.5181L21.3922 29.1402C22.1859 28.8 22.7906 28.6488 23.2064 28.6488C23.6221 28.6866 24.0379 28.8378 24.4158 29.1402C24.9827 29.5937 25.3229 30.1607 25.3607 30.8032C25.3985 31.4835 25.1717 32.1638 24.6426 32.8063C24.4914 33.0331 24.2646 33.2599 24.0379 33.4866C23.7733 33.6756 23.4709 33.9402 23.1308 34.167L21.4678 33.0331ZM28.1197 21.2788C27.6662 21.241 27.2505 21.2788 26.9103 21.3921C26.5323 21.5055 26.23 21.6945 25.9654 21.9591C25.5119 22.4126 25.2851 22.904 25.2851 23.5087C25.2851 24.1134 25.5497 24.6803 26.041 25.1717C26.4946 25.663 27.0237 25.9276 27.6284 25.9654C28.1953 26.0032 28.7245 25.7764 29.2158 25.3229C29.4804 25.0583 29.7071 24.7559 29.8583 24.378C30.0095 24 30.1229 23.5843 30.1985 23.0929L31.4835 24.6047C31.4079 24.9827 31.2568 25.3607 31.0678 25.7008C30.8788 26.041 30.6142 26.3433 30.3119 26.6457C30.0095 26.9481 29.6316 27.1748 29.2536 27.3638C28.8757 27.5528 28.4599 27.6662 28.0064 27.704C27.4016 27.7796 26.7969 27.704 26.23 27.4772C25.6631 27.2504 25.1717 26.9103 24.7182 26.4189C24.3402 26.041 24.0379 25.5874 23.8489 25.0961C23.6599 24.6047 23.5465 24.1134 23.5465 23.5843C23.5465 23.0551 23.6599 22.5638 23.8867 22.0725C24.0757 21.6189 24.378 21.2032 24.756 20.8252C25.0961 20.5229 25.3985 20.2961 25.7764 20.1071C26.1166 19.9181 26.5323 19.8047 26.9481 19.7292L28.1197 21.2788ZM33.6001 23.6221L29.8205 17.0835L31.3701 16.1764L32.7686 18.5953L35.2631 17.1213L33.9024 14.7402L35.4142 13.8331L39.1938 20.3717L37.6442 21.2788L36.0946 18.5197L33.5623 19.9559L35.1497 22.715L33.6001 23.6221ZM41.915 15.1937C42.0662 15.7984 42.4064 16.2898 42.8977 16.5922C43.389 16.9323 43.9182 17.0079 44.4473 16.8567C45.0142 16.7055 45.3922 16.3654 45.6568 15.8362C45.8835 15.3071 45.9213 14.7402 45.7323 14.0977C45.5434 13.4551 45.241 12.9638 44.7497 12.6614C44.2583 12.3213 43.7292 12.2457 43.2001 12.3969C42.6331 12.5481 42.2552 12.8882 41.9906 13.4173C41.7638 13.9465 41.726 14.5512 41.915 15.1937ZM40.1386 15.6851C39.9875 15.1559 39.9119 14.6268 39.9875 14.0977C40.0253 13.5685 40.1764 13.0772 40.441 12.6236C40.6678 12.1701 41.0079 11.7544 41.3859 11.452C41.8016 11.1496 42.2174 10.9229 42.7087 10.7717C43.2001 10.6205 43.7292 10.5827 44.2205 10.6583C44.7497 10.7339 45.2032 10.8851 45.6568 11.1496C46.1103 11.3764 46.4883 11.7166 46.8284 12.1323C47.1308 12.5481 47.3575 13.0394 47.5087 13.5685C47.6599 14.0221 47.6977 14.4756 47.6977 14.9292C47.6977 15.3449 47.5843 15.7607 47.4331 16.1764C47.2064 16.7433 46.904 17.2347 46.4505 17.6504C45.9969 18.0662 45.5056 18.3307 44.9008 18.4819C44.4095 18.6331 43.9182 18.6709 43.4268 18.5953C42.9355 18.5575 42.4442 18.4063 41.9906 18.1418C41.5371 17.8772 41.1591 17.537 40.819 17.1213C40.5166 16.7055 40.2898 16.2142 40.1386 15.6851ZM51.8174 12.9638C51.8552 13.6441 52.082 14.1733 52.4977 14.589C52.9134 14.967 53.4048 15.1559 53.9717 15.1181C54.5386 15.0803 54.9922 14.8158 55.3323 14.3622C55.6725 13.9087 55.8237 13.3418 55.7859 12.6614C55.7103 12.0189 55.4835 11.4898 55.0678 11.074C54.652 10.6583 54.1985 10.4693 53.6316 10.5071C53.0646 10.5449 52.6111 10.8095 52.2709 11.263C51.893 11.7544 51.7418 12.3213 51.8174 12.9638ZM49.9654 13.115C49.9276 12.5481 49.9654 12.0189 50.1166 11.5276C50.2678 11.0362 50.5323 10.5827 50.8725 10.167C51.2127 9.75121 51.5906 9.44884 52.0442 9.22207C52.4977 8.9953 52.989 8.84412 53.4804 8.80632C54.0095 8.76853 54.5009 8.84412 54.9922 8.9953C55.4835 9.14648 55.8993 9.41105 56.2772 9.75121C56.693 10.0914 56.9953 10.5071 57.2221 10.9607C57.4489 11.452 57.6001 11.9811 57.6379 12.5481C57.6757 13.0016 57.6379 13.4551 57.5245 13.8709C57.4489 14.2866 57.2599 14.7024 57.0331 15.0425C56.693 15.5717 56.2772 15.9874 55.7481 16.2898C55.2568 16.5922 54.6898 16.7811 54.0851 16.8189C53.5938 16.8567 53.1024 16.8189 52.6111 16.6299C52.1197 16.4788 51.704 16.2142 51.326 15.874C50.9103 15.5339 50.6079 15.1181 50.3812 14.6646C50.1544 14.1733 50.0032 13.6819 49.9654 13.115ZM60.0946 16.5922L61.0394 9.10869L62.8158 9.33546L62.0977 15.2315L65.0079 15.6095L64.819 17.1969L60.0946 16.5922ZM77.4426 17.915C77.1402 18.4819 77.0268 19.0488 77.1402 19.6158C77.2536 20.1827 77.556 20.6362 78.0473 20.9008C78.5386 21.2032 79.03 21.241 79.5969 21.052C80.1638 20.863 80.5796 20.4851 80.9197 19.8803C81.2599 19.3134 81.3733 18.7465 81.2599 18.1796C81.1465 17.6126 80.8442 17.1591 80.3528 16.8945C79.8615 16.6299 79.3323 16.5544 78.8032 16.7433C78.2363 16.9701 77.7827 17.3481 77.4426 17.915ZM75.8552 16.9701C76.1197 16.5166 76.4599 16.1008 76.8757 15.7607C77.2914 15.4583 77.7449 15.1937 78.2741 15.0803C78.7654 14.9292 79.2568 14.8914 79.7859 14.9292C80.2772 15.0047 80.7308 15.1559 81.1843 15.4205C81.6379 15.6851 82.0158 16.0252 82.3182 16.4032C82.6205 16.8189 82.8473 17.2725 82.9985 17.7638C83.1119 18.2929 83.1497 18.7843 83.0741 19.3134C82.9985 19.8425 82.8095 20.3339 82.5071 20.8252C82.2804 21.241 82.0158 21.5811 81.6757 21.8835C81.3733 22.1859 80.9953 22.4126 80.6174 22.5638C80.0505 22.8284 79.4835 22.904 78.8788 22.8662C78.2741 22.8662 77.7071 22.6772 77.178 22.3748C76.7623 22.1481 76.3843 21.8079 76.082 21.3921C75.7418 20.9764 75.5528 20.5229 75.4016 20.0315C75.2883 19.5024 75.2505 19.011 75.326 18.4819C75.4016 17.9528 75.5906 17.4614 75.8552 16.9701ZM82.2804 25.5496L87.4961 20.1071L90.8977 23.3575L89.8394 24.4536L87.7229 22.4504L86.7024 23.5465L88.5922 25.3229L87.5339 26.4189L85.6442 24.6425L83.6032 26.7969L82.2804 25.5496ZM91.8426 37.1528L98.5701 33.7134L100.687 37.8709L99.2883 38.589L98.0032 35.9811L96.756 36.6236L97.8898 38.8158L96.5292 39.5339L95.3953 37.304L94.0725 37.9843L95.3953 40.6299L93.9969 41.3481L91.8426 37.1528ZM94.904 43.5024L102.501 41.726L102.539 41.915L99.2883 47.4709L103.332 46.526L103.71 48.1512L96.0757 49.9276L96.0379 49.7764L99.2883 44.1827L95.282 45.0898L94.904 43.5024ZM101.14 58.7717L97.4741 58.8473C97.2095 58.3559 97.0205 57.8646 96.8694 57.411C96.7182 56.9197 96.6426 56.4662 96.6426 56.0126C96.6048 54.841 96.9449 53.8961 97.7009 53.1024C98.419 52.3465 99.4016 51.9307 100.535 51.8929C101.707 51.8929 102.69 52.2331 103.446 52.989C104.239 53.7449 104.655 54.6898 104.693 55.8614C104.693 56.315 104.655 56.7307 104.542 57.1465C104.428 57.5622 104.239 57.9402 104.013 58.3181L102.123 58.167C102.463 57.8268 102.728 57.4488 102.879 57.1087C103.03 56.7685 103.106 56.3906 103.068 56.0126C103.068 55.3323 102.841 54.8032 102.35 54.3496C101.896 53.9339 101.329 53.7071 100.649 53.7449C99.9308 53.7449 99.3638 53.9717 98.9103 54.4252C98.4568 54.841 98.2678 55.4079 98.2678 56.0882C98.2678 56.2394 98.3056 56.3906 98.3434 56.5796C98.3812 56.7307 98.419 56.8819 98.4568 57.0709L99.5528 57.0331L99.515 55.5969L101.065 55.5591L101.14 58.7717ZM96.7182 61.304L104.126 62.6268L103.824 64.4032L97.9654 63.3449L97.4741 66.2551L95.8867 65.9528L96.7182 61.304ZM95.3575 67.7292L102.614 69.7701L102.123 71.5087L94.8662 69.4677L95.3575 67.7292ZM96.0001 72.5292C95.5465 72.8315 95.2064 73.0961 94.9796 73.3607C94.715 73.5874 94.526 73.852 94.4127 74.1544C94.2993 74.4189 94.2615 74.6835 94.2993 74.9103C94.3371 75.137 94.4505 75.326 94.6772 75.4016C94.9418 75.515 95.3953 75.3638 96.0379 74.9103C96.1134 74.8347 96.189 74.7591 96.2646 74.7213L96.7182 74.3811C97.1717 74.041 97.6253 73.852 98.041 73.7764C98.4568 73.7008 98.8725 73.7764 99.2883 73.9654C99.8552 74.1922 100.195 74.6079 100.384 75.1748C100.535 75.7796 100.46 76.3843 100.158 77.0268C100.044 77.2914 99.9308 77.5559 99.7418 77.7827C99.5528 78.0473 99.326 78.3118 99.0237 78.6142L97.4363 77.8961C97.7764 77.6693 98.0788 77.4047 98.3434 77.178C98.5701 76.9134 98.7591 76.6866 98.8347 76.4977C98.9481 76.2709 98.9859 76.0441 98.9481 75.8929C98.9103 75.704 98.7969 75.5528 98.6457 75.4772C98.4946 75.4394 98.3812 75.4394 98.23 75.4772C98.1166 75.4772 97.9654 75.5528 97.7764 75.704L96.9827 76.3087C96.3024 76.8 95.7733 77.1024 95.3197 77.178C94.904 77.2914 94.4883 77.2158 94.0347 77.0268C93.3922 76.7244 92.9386 76.2331 92.7497 75.5906C92.5229 74.9481 92.5985 74.2677 92.9386 73.5118C93.052 73.2473 93.2032 72.9827 93.3922 72.7181C93.5812 72.4536 93.8079 72.1512 94.1103 71.8488L96.0001 72.5292ZM90.8599 78.0095L96.9827 82.3937L95.9623 83.8299L93.6945 82.2425L92.0316 84.6236L94.2615 86.2111L93.241 87.6473L87.1182 83.3008L88.1386 81.8268L90.7087 83.6788L92.4095 81.2977L89.8016 79.4835L90.8599 78.0095Z" fill="#FEFEFE"/>
<path d="M56.6931 2.94806C71.5467 2.94806 84.964 8.95751 94.6774 18.7087C104.429 28.4221 110.438 41.8394 110.438 56.6929C110.438 71.5465 104.429 84.9638 94.6774 94.6772C84.964 104.428 71.5467 110.438 56.6931 110.438C41.8396 110.438 28.4223 104.428 18.7089 94.6772C8.95769 84.9638 2.94824 71.5465 2.94824 56.6929C2.94824 41.8394 8.95769 28.4221 18.7089 18.7087C28.4223 8.95751 41.8396 2.94806 56.6931 2.94806ZM94.0349 19.3512C84.4726 9.8268 71.2821 3.89294 56.6931 3.89294C42.1041 3.89294 28.9136 9.8268 19.3514 19.3512C9.82698 28.9134 3.89312 42.104 3.89312 56.6929C3.89312 71.2819 9.82698 84.4725 19.3514 94.0347C28.9136 103.559 42.1041 109.493 56.6931 109.493C71.2821 109.493 84.4726 103.559 94.0349 94.0347C103.559 84.4725 109.493 71.2819 109.493 56.6929C109.493 42.104 103.559 28.9134 94.0349 19.3512Z" fill="#FEFEFE"/>
<path d="M34.5448 97.5874L35.2251 97.9654C35.5652 98.1165 35.8676 98.1543 36.1322 98.1165C36.3967 98.041 36.6235 97.852 36.7369 97.5874C36.8881 97.3228 36.9259 97.0583 36.8125 96.7937C36.6991 96.5669 36.4723 96.378 36.1322 96.189L35.4518 95.8488L34.5448 97.5874ZM36.0566 94.715L36.5857 94.9795C36.9259 95.1307 37.1904 95.2063 37.455 95.1685C37.7196 95.0929 37.9085 94.9417 38.0219 94.715C38.1731 94.4504 38.1731 94.2236 38.0597 93.9969C37.9463 93.8079 37.7196 93.5811 37.3416 93.4299L36.8503 93.1654L36.0566 94.715ZM32.4282 98.0787L35.9432 91.2378L38.0597 92.2961C38.8534 92.7118 39.3826 93.1654 39.6471 93.6945C39.9117 94.1858 39.8739 94.715 39.6093 95.2819C39.4203 95.6221 39.1558 95.8866 38.8534 96.0378C38.5511 96.189 38.1731 96.2268 37.7196 96.189C38.0975 96.4913 38.3243 96.8315 38.3999 97.2473C38.4755 97.663 38.4377 98.0787 38.2109 98.5323C37.8707 99.1748 37.3794 99.5528 36.6991 99.6284C36.0566 99.7039 35.2629 99.515 34.2802 99.0236L32.4282 98.0787ZM44.4471 96.4536L44.1448 96.378L43.5778 98.4189L43.9558 98.5323C44.4093 98.6457 44.7495 98.6457 45.0518 98.5323C45.3164 98.4189 45.5054 98.1921 45.6188 97.852C45.7322 97.5118 45.6566 97.2473 45.5054 97.0205C45.3164 96.7937 44.9763 96.6047 44.4471 96.4536ZM40.7054 101.934L42.8219 94.526L44.7117 95.0929C45.3164 95.2441 45.8077 95.4331 46.1101 95.5843C46.4125 95.7732 46.677 96 46.9038 96.2646C47.0928 96.5291 47.244 96.8315 47.3196 97.1717C47.3952 97.5118 47.3574 97.8142 47.2818 98.1543C47.1684 98.6079 46.9038 98.9858 46.5637 99.2882C46.2613 99.5528 45.8077 99.7417 45.3164 99.8173L46.677 103.635L44.6739 103.068L43.5022 99.5906L43.2755 99.515L42.444 102.425L40.7054 101.934ZM49.8896 104.088L50.8723 96.4536L52.6865 96.6803L51.7038 104.315L49.8896 104.088ZM62.3999 100.157L62.4755 103.899C61.9841 104.164 61.455 104.391 61.0015 104.504C60.5101 104.655 60.0188 104.731 59.5652 104.769C58.3936 104.769 57.4109 104.428 56.6172 103.672C55.8235 102.917 55.4077 101.934 55.4077 100.762C55.37 99.5906 55.7479 98.6079 56.5038 97.7764C57.2597 96.9827 58.2424 96.5669 59.4518 96.5669C59.9054 96.5291 60.3211 96.6047 60.7369 96.7181C61.1526 96.8315 61.5306 96.9827 61.9463 97.2473L61.7952 99.1748C61.4172 98.7969 61.0392 98.5701 60.6991 98.4189C60.3589 98.2299 59.981 98.1543 59.5652 98.1921C58.8849 98.1921 58.318 98.4567 57.9022 98.9102C57.4487 99.4016 57.2219 99.9685 57.2597 100.649C57.2597 101.405 57.4865 101.972 57.94 102.425C58.3936 102.879 58.9605 103.106 59.6408 103.068C59.8298 103.068 59.981 103.068 60.1322 103.03C60.2833 102.992 60.4723 102.954 60.6235 102.879V101.783L59.1495 101.82L59.1117 100.233L62.3999 100.157ZM66.444 103.597L64.7054 96.0756L69.3164 95.0173L69.6566 96.5669L66.7841 97.2473L67.1243 98.5701L69.581 98.0032L69.9211 99.5528L67.4644 100.12L67.8046 101.594L70.7148 100.913L71.0928 102.501L66.444 103.597ZM74.2298 101.518L72.0377 93.7323L72.1511 93.6567L76.9889 96.7937L77.1778 91.0866L77.2912 91.0488L82.318 97.3606L80.7684 98.1543L78.614 95.3197L78.5007 99.6662L78.3873 99.7039L74.6455 97.285L75.666 100.762L74.2298 101.518Z" fill="#FEFEFE"/>
</svg>
