<svg width="64" height="64" viewBox="0 0 64 64" fill="none" xmlns="http://www.w3.org/2000/svg">
<path opacity="0.1" d="M31.9998 5.33463C46.7274 5.33463 58.6665 17.2737 58.6665 32.0013C58.6665 46.7289 46.7274 58.668 31.9998 58.668C17.2722 58.668 5.33317 46.7289 5.33317 32.0013C5.33317 17.2737 17.2722 5.33463 31.9998 5.33463Z" fill="#6B73C2"/>
<path d="M36.0807 41.4142C35.2997 42.1953 34.0333 42.1953 33.2523 41.4142C32.4712 40.6332 32.4712 39.3668 33.2523 38.5858L37.8381 34H21.3332C20.2286 34 19.3332 33.1046 19.3332 32C19.3332 30.8954 20.2286 30 21.3332 30L37.8381 30L33.2523 25.4142C32.4712 24.6332 32.4712 23.3668 33.2523 22.5858C34.0333 21.8047 35.2997 21.8047 36.0807 22.5858L44.0807 30.5858C44.8618 31.3668 44.8618 32.6332 44.0807 33.4142L36.0807 41.4142Z" fill="#6B73C2"/>
</svg>
