<svg width="810" height="215" viewBox="0 0 810 215" fill="none" xmlns="http://www.w3.org/2000/svg">
<g clip-path="url(#clip0_3185_71162)">
<path d="M-16.1674 132.998C-14.5914 128.04 -13.8034 125.56 -11.9478 125.183C-10.0921 124.805 -8.39768 126.779 -5.00885 130.727L-4.13212 131.748C-3.16912 132.87 -2.68762 133.431 -2.0527 133.737C-1.41778 134.042 -0.701313 134.058 0.731611 134.089L2.03617 134.117C7.07869 134.227 9.59995 134.281 10.5487 136.009C11.4975 137.736 10.2455 139.992 7.74137 144.504L7.09353 145.671C6.38195 146.953 6.02616 147.594 5.9536 148.312C5.88103 149.031 6.09991 149.745 6.53767 151.173L6.93621 152.473C8.4767 157.499 9.24695 160.013 7.97765 161.458C6.70836 162.903 4.24014 162.323 -0.69631 161.164L-1.97343 160.864C-3.37621 160.534 -4.0776 160.37 -4.75737 160.508C-5.43714 160.646 -6.01833 161.072 -7.1807 161.924L-8.23895 162.699C-12.3294 165.696 -14.3746 167.194 -16.1079 166.36C-17.8411 165.526 -18.1145 162.912 -18.6613 157.684L-18.8028 156.331C-18.9582 154.845 -19.0358 154.102 -19.3834 153.47C-19.731 152.837 -20.309 152.386 -21.4652 151.484L-22.5178 150.663C-26.5863 147.489 -28.6205 145.902 -28.4225 143.941C-28.2244 141.98 -25.9251 140.944 -21.3266 138.873L-20.1369 138.337C-18.8302 137.748 -18.1768 137.453 -17.7118 136.924C-17.2469 136.395 -17.0229 135.69 -16.5751 134.281L-16.1674 132.998Z" fill="#EFEEF4"/>
<path opacity="0.8" fill-rule="evenodd" clip-rule="evenodd" d="M-16.5359 102.644C-14.9123 102.314 -13.3283 103.362 -12.9978 104.985L-11.4021 112.825C-11.0717 114.448 -12.1199 116.032 -13.7435 116.363C-15.367 116.693 -16.9511 115.645 -17.2816 114.021L-18.8772 106.182C-19.2077 104.559 -18.1595 102.974 -16.5359 102.644ZM-50.0952 153.357C-50.4257 151.733 -49.3774 150.149 -47.7538 149.819L-39.9146 148.223C-38.291 147.892 -36.707 148.941 -36.3765 150.564C-36.046 152.188 -37.0943 153.772 -38.7178 154.102L-46.5571 155.698C-48.1807 156.028 -49.7647 154.98 -50.0952 153.357ZM20.4581 138.996C20.1276 137.372 21.1759 135.788 22.7994 135.458L30.6387 133.862C32.2622 133.531 33.8463 134.58 34.1768 136.203C34.5072 137.827 33.459 139.411 31.8354 139.741L23.9962 141.337C22.3726 141.668 20.7885 140.619 20.4581 138.996ZM-2.17493 173.197C-0.551367 172.867 1.03269 173.915 1.36317 175.539L2.95883 183.378C3.2893 185.001 2.24104 186.585 0.617484 186.916C-1.00608 187.246 -2.59014 186.198 -2.92061 184.575L-4.51627 176.735C-4.84675 175.112 -3.79849 173.528 -2.17493 173.197Z" fill="#EFEEF4"/>
<g opacity="0.5">
<path d="M12.4279 113.972C13.8096 114.887 14.1885 116.748 13.2741 118.13L12.2025 119.749C11.2882 121.131 9.42683 121.51 8.04513 120.595C6.66341 119.681 6.28454 117.82 7.1989 116.438L8.27049 114.819C9.18484 113.437 11.0462 113.058 12.4279 113.972Z" fill="#EFEEF4"/>
<path d="M-38.7654 124.393C-37.851 123.012 -35.9897 122.633 -34.608 123.547L-32.9887 124.619C-31.607 125.533 -31.2281 127.394 -32.1424 128.776C-33.0568 130.158 -34.9181 130.537 -36.2998 129.622L-37.9192 128.551C-39.3009 127.636 -39.6797 125.775 -38.7654 124.393Z" fill="#EFEEF4"/>
<path d="M-23.9628 168.964C-22.5811 169.878 -22.2022 171.739 -23.1166 173.121L-24.1875 174.739C-25.1018 176.121 -26.9632 176.5 -28.3449 175.586C-29.7266 174.671 -30.1054 172.81 -29.1911 171.428L-28.1202 169.81C-27.2058 168.428 -25.3445 168.049 -23.9628 168.964Z" fill="#EFEEF4"/>
<path d="M16.2254 160.784C17.1398 159.403 19.0011 159.024 20.3828 159.938L22.0011 161.009C23.3828 161.923 23.7617 163.785 22.8473 165.167C21.933 166.548 20.0717 166.927 18.69 166.013L17.0717 164.942C15.6899 164.027 15.3111 162.166 16.2254 160.784Z" fill="#EFEEF4"/>
</g>
</g>
<g clip-path="url(#clip1_3185_71162)">
<path d="M18.2572 65.9807C17.4293 60.8441 17.0154 58.2758 18.5017 57.1023C19.9879 55.9288 22.3901 56.9273 27.1946 58.9241L28.4375 59.4408C29.8028 60.0082 30.4854 60.2919 31.1899 60.2785C31.8944 60.2651 32.541 59.9561 33.8342 59.3381L35.0115 58.7754C39.5622 56.6005 41.8375 55.5131 43.463 56.6274C45.0884 57.7417 44.9874 60.3198 44.7855 65.476L44.7333 66.8099C44.6759 68.2752 44.6472 69.0078 44.9062 69.6817C45.1651 70.3555 45.6823 70.8944 46.7168 71.9721L47.6586 72.9532C51.2991 76.7457 53.1193 78.6419 52.6375 80.5041C52.1558 82.3663 49.6912 82.9612 44.762 84.151L43.4868 84.4588C42.086 84.7969 41.3857 84.966 40.8412 85.3959C40.2968 85.8258 39.9699 86.4678 39.316 87.7519L38.7208 88.9209C36.42 93.4397 35.2696 95.6991 33.3464 95.7357C31.4233 95.7722 30.001 93.5618 27.1565 89.141L26.4206 87.9973C25.6123 86.741 25.2081 86.1129 24.6127 85.7047C24.0173 85.2965 23.298 85.1544 21.8594 84.8703L20.5497 84.6117C15.4873 83.612 12.9562 83.1122 12.2493 81.2726C11.5424 79.433 13.128 77.472 16.2992 73.5499L17.1197 72.5352C18.0208 71.4207 18.4714 70.8635 18.6479 70.1813C18.8243 69.4991 18.7067 68.7693 18.4714 67.3096L18.2572 65.9807Z" fill="#EFEEF4"/>
<path opacity="0.8" fill-rule="evenodd" clip-rule="evenodd" d="M4.24847 39.0507C5.54885 38.0239 7.43535 38.2458 8.46208 39.5462L13.4196 45.8249C14.4463 47.1253 14.2245 49.0118 12.9241 50.0385C11.6237 51.0653 9.73723 50.8434 8.7105 49.5431L3.75299 43.2643C2.72626 41.9639 2.94809 40.0774 4.24847 39.0507ZM-2.85341 99.4457C-3.88014 98.1454 -3.65831 96.2589 -2.35793 95.2321L3.92086 90.2746C5.22124 89.2479 7.10773 89.4697 8.13446 90.7701C9.1612 92.0705 8.93936 93.957 7.63898 94.9837L1.3602 99.9412C0.0598205 100.968 -1.82668 100.746 -2.85341 99.4457ZM53.6557 54.8282C52.6289 53.5278 52.8508 51.6413 54.1511 50.6146L60.4299 45.6571C61.7303 44.6303 63.6168 44.8522 64.6435 46.1526C65.6703 47.4529 65.4484 49.3394 64.1481 50.3662L57.8693 55.3237C56.5689 56.3504 54.6824 56.1286 53.6557 54.8282ZM48.866 95.5597C50.1664 94.533 52.0529 94.7548 53.0796 96.0552L58.0371 102.334C59.0639 103.634 58.842 105.521 57.5417 106.548C56.2413 107.574 54.3548 107.353 53.328 106.052L48.3705 99.7734C47.3438 98.473 47.5656 96.5865 48.866 95.5597Z" fill="#EFEEF4"/>
<g opacity="0.5">
<path d="M35.2097 36.1105C36.8552 36.304 38.0323 37.7948 37.8388 39.4404L37.612 41.3689C37.4185 43.0144 35.9277 44.1915 34.2822 43.998C32.6367 43.8045 31.4596 42.3137 31.6531 40.6681L31.8799 38.7396C32.0734 37.0941 33.5642 35.917 35.2097 36.1105Z" fill="#EFEEF4"/>
<path d="M-5.79292 68.4853C-5.59942 66.8398 -4.10861 65.6627 -2.46309 65.8562L-0.534595 66.083C1.11092 66.2765 2.28802 67.7673 2.09452 69.4128C1.90102 71.0583 0.410207 72.2354 -1.23531 72.0419L-3.1638 71.8152C-4.80932 71.6217 -5.98641 70.1308 -5.79292 68.4853Z" fill="#EFEEF4"/>
<path d="M27.5086 101.601C29.1542 101.795 30.3313 103.285 30.1378 104.931L29.9111 106.858C29.7176 108.504 28.2268 109.681 26.5813 109.487C24.9358 109.294 23.7587 107.803 23.9522 106.157L24.1788 104.23C24.3723 102.585 25.8631 101.408 27.5086 101.601Z" fill="#EFEEF4"/>
<path d="M59.6975 76.1871C59.891 74.5416 61.3818 73.3645 63.0273 73.558L64.9546 73.7846C66.6001 73.9781 67.7772 75.4689 67.5837 77.1144C67.3902 78.7599 65.8994 79.937 64.2539 79.7435L62.3266 79.5169C60.6811 79.3234 59.504 77.8326 59.6975 76.1871Z" fill="#EFEEF4"/>
</g>
</g>
<g clip-path="url(#clip2_3185_71162)">
<path d="M102.586 94.6673C106.533 91.277 108.506 89.5818 110.284 90.2357C112.061 90.8895 112.465 93.4594 113.273 98.5991L113.483 99.9288C113.712 101.389 113.827 102.12 114.207 102.713C114.586 103.307 115.188 103.697 116.391 104.476L117.486 105.186C121.718 107.929 123.834 109.301 123.734 111.269C123.633 113.237 121.382 114.498 116.881 117.021L115.716 117.673C114.437 118.39 113.797 118.749 113.358 119.321C112.919 119.894 112.73 120.617 112.352 122.062L112.008 123.378C110.677 128.464 110.011 131.006 108.172 131.569C106.333 132.131 104.537 130.341 100.947 126.76L100.018 125.834C98.9976 124.817 98.4875 124.308 97.8364 124.068C97.1854 123.829 96.4672 123.886 95.0307 123.999L93.7229 124.103C88.6679 124.503 86.1404 124.703 85.1042 123.082C84.0679 121.462 85.2092 119.094 87.4917 114.358L88.0822 113.133C88.7308 111.788 89.0551 111.115 89.0919 110.394C89.1288 109.673 88.8739 108.985 88.3643 107.61L87.9004 106.359C86.107 101.52 85.2103 99.1009 86.4093 97.5368C87.6083 95.9728 90.1088 96.2998 95.1099 96.9537L96.4038 97.1229C97.825 97.3087 98.5356 97.4017 99.2094 97.1956C99.8832 96.9895 100.444 96.5078 101.565 95.5444L102.586 94.6673Z" fill="#EFEEF4"/>
<path opacity="0.8" fill-rule="evenodd" clip-rule="evenodd" d="M118.225 68.6498C119.78 69.2218 120.576 70.9462 120.004 72.5011L117.242 80.0091C116.67 81.5641 114.946 82.3608 113.391 81.7888C111.836 81.2167 111.039 79.4924 111.611 77.9374L114.373 70.4294C114.945 68.8745 116.67 68.0777 118.225 68.6498ZM63.0221 94.1582C63.5942 92.6033 65.3185 91.8065 66.8734 92.3786L74.3814 95.1408C75.9364 95.7129 76.7332 97.4372 76.1611 98.9921C75.589 100.547 73.8647 101.344 72.3098 100.772L64.8018 98.0096C63.2468 97.4375 62.45 95.7132 63.0221 94.1582ZM130.594 119.018C131.166 117.463 132.89 116.667 134.445 117.239L141.953 120.001C143.508 120.573 144.305 122.297 143.733 123.852C143.161 125.407 141.437 126.204 139.882 125.632L132.374 122.87C130.819 122.298 130.022 120.573 130.594 119.018ZM93.3645 136.222C94.9194 136.794 95.7162 138.518 95.1441 140.073L92.3819 147.581C91.8098 149.136 90.0855 149.933 88.5306 149.361C86.9756 148.789 86.1788 147.064 86.7509 145.509L89.5131 138.001C90.0852 136.446 91.8095 135.65 93.3645 136.222Z" fill="#EFEEF4"/>
<g opacity="0.5">
<path d="M136.913 93.5103C137.608 95.0143 136.952 96.797 135.448 97.492L133.685 98.3065C132.181 99.0015 130.398 98.3457 129.703 96.8416C129.008 95.3376 129.664 93.5549 131.168 92.8599L132.931 92.0454C134.435 91.3504 136.218 92.0062 136.913 93.5103Z" fill="#EFEEF4"/>
<path d="M87.8824 75.4722C89.3865 74.7772 91.1691 75.4331 91.8641 76.9371L92.6787 78.6998C93.3737 80.2038 92.7178 81.9865 91.2138 82.6815C89.7097 83.3765 87.927 82.7207 87.232 81.2166L86.4175 79.4539C85.7225 77.9499 86.3784 76.1672 87.8824 75.4722Z" fill="#EFEEF4"/>
<path d="M77.0528 121.171C77.7478 122.675 77.0919 124.458 75.5879 125.153L73.8263 125.967C72.3223 126.662 70.5396 126.006 69.8446 124.502C69.1496 122.998 69.8055 121.215 71.3095 120.52L73.0711 119.706C74.5751 119.011 76.3578 119.667 77.0528 121.171Z" fill="#EFEEF4"/>
<path d="M115.542 135.332C117.046 134.637 118.829 135.293 119.524 136.797L120.338 138.559C121.033 140.063 120.377 141.846 118.873 142.541C117.369 143.236 115.586 142.58 114.891 141.076L114.077 139.314C113.382 137.81 114.038 136.027 115.542 135.332Z" fill="#EFEEF4"/>
</g>
</g>
<path d="M55.3623 165.674C58.0318 161.208 59.3666 158.975 61.2594 159.032C63.1523 159.089 64.3497 161.399 66.7445 166.018L67.364 167.213C68.0446 168.525 68.3848 169.182 68.9329 169.625C69.481 170.067 70.1749 170.247 71.5626 170.605L72.826 170.931C77.7095 172.192 80.1512 172.823 80.6793 174.722C81.2073 176.62 79.472 178.53 76.0013 182.348L75.1034 183.336C74.1171 184.421 73.624 184.964 73.3889 185.646C73.1538 186.329 73.2033 187.074 73.3024 188.565L73.3926 189.922C73.7413 195.167 73.9156 197.79 72.3491 198.906C70.7826 200.022 68.5127 198.893 63.9729 196.634L62.7984 196.049C61.5084 195.407 60.8633 195.086 60.1699 195.065C59.4766 195.044 58.8133 195.326 57.4868 195.889L56.2791 196.401C51.6112 198.382 49.2772 199.372 47.781 198.163C46.2848 196.954 46.6172 194.347 47.2822 189.132L47.4542 187.783C47.6431 186.301 47.7376 185.56 47.5442 184.865C47.3507 184.169 46.8913 183.598 45.9724 182.455L45.1358 181.415C41.9022 177.394 40.2853 175.383 40.9271 173.52C41.5689 171.656 44.0443 171.175 48.9951 170.211L50.2759 169.961C51.6827 169.687 52.3862 169.55 52.96 169.142C53.5338 168.733 53.9131 168.098 54.6717 166.829L55.3623 165.674Z" fill="#EFEEF4"/>
<path opacity="0.8" fill-rule="evenodd" clip-rule="evenodd" d="M61.955 136.042C63.6111 136.092 64.913 137.475 64.8629 139.131L64.6212 147.127C64.5711 148.783 63.188 150.085 61.5319 150.035C59.8758 149.985 58.5738 148.602 58.6239 146.946L58.8657 138.95C58.9157 137.294 60.2989 135.992 61.955 136.042ZM17.6751 177.723C17.7252 176.066 19.1083 174.765 20.7644 174.815L28.7607 175.056C30.4168 175.106 31.7188 176.49 31.6687 178.146C31.6186 179.802 30.2355 181.104 28.5794 181.054L20.5831 180.812C18.927 180.762 17.625 179.379 17.6751 177.723ZM89.6422 179.898C89.6923 178.242 91.0754 176.94 92.7315 176.991L100.728 177.232C102.384 177.282 103.686 178.665 103.636 180.322C103.586 181.978 102.203 183.28 100.547 183.23L92.5502 182.988C90.8941 182.938 89.5921 181.555 89.6422 179.898ZM59.779 208.009C61.4351 208.059 62.7371 209.442 62.687 211.098L62.4452 219.094C62.3951 220.751 61.012 222.052 59.3559 222.002C57.6998 221.952 56.3979 220.569 56.448 218.913L56.6897 210.917C56.7398 209.261 58.1229 207.959 59.779 208.009Z" fill="#EFEEF4"/>
<g opacity="0.5">
<path d="M87.5544 153.702C88.69 154.909 88.6326 156.808 87.4261 157.943L86.0122 159.274C84.8058 160.41 82.9072 160.352 81.7715 159.146C80.6359 157.939 80.6933 156.041 81.8997 154.905L83.3137 153.574C84.5201 152.439 86.4187 152.496 87.5544 153.702Z" fill="#EFEEF4"/>
<path d="M35.3351 152.124C36.5416 150.988 38.4402 151.046 39.5758 152.252L40.9067 153.666C42.0424 154.873 41.985 156.771 40.7785 157.907C39.5721 159.043 37.6734 158.985 36.5378 157.779L35.2069 156.365C34.0713 155.158 34.1287 153.26 35.3351 152.124Z" fill="#EFEEF4"/>
<path d="M39.5386 198.9C40.6742 200.106 40.6168 202.005 39.4104 203.141L37.9974 204.471C36.7909 205.606 34.8923 205.549 33.7567 204.342C32.621 203.136 32.6784 201.237 33.8849 200.102L35.2979 198.772C36.5044 197.636 38.403 197.693 39.5386 198.9Z" fill="#EFEEF4"/>
<path d="M80.532 200.14C81.7384 199.005 83.637 199.062 84.7727 200.268L86.1028 201.681C87.2384 202.888 87.181 204.787 85.9745 205.922C84.7681 207.058 82.8695 207 81.7338 205.794L80.4037 204.381C79.2681 203.174 79.3255 201.276 80.532 200.14Z" fill="#EFEEF4"/>
</g>
<g clip-path="url(#clip3_3185_71162)">
<path d="M149.429 180.525C154.567 181.344 157.136 181.753 157.786 183.532C158.437 185.31 156.737 187.28 153.339 191.22L152.46 192.239C151.494 193.359 151.012 193.919 150.804 194.592C150.597 195.266 150.688 195.976 150.871 197.398L151.038 198.692C151.682 203.694 152.004 206.196 150.438 207.392C148.871 208.587 146.454 207.686 141.619 205.883L140.368 205.416C138.994 204.904 138.307 204.648 137.586 204.683C136.865 204.719 136.191 205.042 134.844 205.688L133.618 206.276C128.878 208.549 126.508 209.685 124.89 208.646C123.271 207.606 123.476 205.079 123.886 200.025L123.992 198.717C124.109 197.281 124.167 196.563 123.929 195.912C123.691 195.26 123.183 194.749 122.167 193.727L121.243 192.796C117.669 189.198 115.883 187.399 116.449 185.561C117.015 183.723 119.559 183.063 124.647 181.742L125.964 181.4C127.41 181.025 128.133 180.837 128.707 180.399C129.28 179.961 129.64 179.322 130.359 178.045L131.014 176.881C133.546 172.385 134.812 170.136 136.78 170.04C138.748 169.943 140.116 172.062 142.85 176.3L143.558 177.397C144.335 178.601 144.724 179.203 145.316 179.584C145.909 179.965 146.639 180.081 148.099 180.314L149.429 180.525Z" fill="#EFEEF4"/>
<path opacity="0.8" fill-rule="evenodd" clip-rule="evenodd" d="M179.388 175.633C179.957 177.189 179.157 178.912 177.6 179.481L170.087 182.228C168.531 182.797 166.808 181.997 166.239 180.441C165.67 178.885 166.47 177.162 168.026 176.593L175.54 173.846C177.096 173.277 178.819 174.077 179.388 175.633ZM124.236 150.015C125.792 149.446 127.515 150.246 128.084 151.802L130.831 159.316C131.4 160.872 130.6 162.594 129.044 163.163C127.488 163.732 125.765 162.932 125.196 161.376L122.449 153.862C121.88 152.306 122.68 150.584 124.236 150.015ZM148.962 217.636C150.518 217.067 152.24 217.867 152.809 219.423L155.557 226.937C156.126 228.493 155.326 230.216 153.769 230.785C152.213 231.354 150.491 230.553 149.922 228.997L147.174 221.484C146.605 219.928 147.406 218.205 148.962 217.636ZM111.766 200.359C112.335 201.915 111.535 203.637 109.979 204.206L102.466 206.954C100.91 207.523 99.1868 206.722 98.6178 205.166C98.0488 203.61 98.849 201.888 100.405 201.319L107.919 198.571C109.475 198.002 111.197 198.802 111.766 200.359Z" fill="#EFEEF4"/>
<g opacity="0.5">
<path d="M172.505 205.962C171.807 207.465 170.023 208.117 168.521 207.419L166.76 206.601C165.257 205.903 164.605 204.119 165.303 202.617C166.001 201.114 167.785 200.462 169.287 201.16L171.048 201.978C172.551 202.676 173.203 204.46 172.505 205.962Z" fill="#EFEEF4"/>
<path d="M154.564 156.897C156.067 157.595 156.719 159.379 156.021 160.881L155.203 162.642C154.505 164.145 152.721 164.797 151.218 164.099C149.716 163.401 149.063 161.617 149.761 160.115L150.579 158.354C151.277 156.851 153.061 156.199 154.564 156.897Z" fill="#EFEEF4"/>
<path d="M112.7 178.183C112.003 179.685 110.219 180.338 108.716 179.64L106.956 178.822C105.453 178.124 104.801 176.34 105.499 174.838C106.197 173.335 107.981 172.683 109.484 173.381L111.244 174.198C112.746 174.896 113.398 176.68 112.7 178.183Z" fill="#EFEEF4"/>
<path d="M126.784 216.701C128.286 217.399 128.939 219.183 128.241 220.686L127.423 222.446C126.725 223.948 124.941 224.601 123.438 223.903C121.936 223.205 121.284 221.421 121.982 219.918L122.799 218.158C123.497 216.655 125.281 216.003 126.784 216.701Z" fill="#EFEEF4"/>
</g>
</g>
<g clip-path="url(#clip4_3185_71162)">
<path d="M202.522 176.955C199.307 172.864 197.699 170.819 198.43 169.072C199.161 167.325 201.746 167.033 206.916 166.449L208.253 166.298C209.722 166.132 210.457 166.049 211.067 165.696C211.676 165.342 212.092 164.758 212.923 163.591L213.68 162.528C216.604 158.419 218.067 156.364 220.029 156.55C221.991 156.736 223.153 159.04 225.477 163.647L226.078 164.839C226.739 166.148 227.069 166.803 227.622 167.266C228.175 167.73 228.889 167.95 230.316 168.391L231.616 168.792C236.639 170.343 239.15 171.119 239.632 172.981C240.114 174.843 238.247 176.559 234.514 179.99L233.548 180.878C232.487 181.853 231.956 182.34 231.689 182.98C231.421 183.62 231.447 184.34 231.498 185.78L231.544 187.091C231.724 192.159 231.813 194.693 230.149 195.657C228.485 196.622 226.169 195.379 221.538 192.892L220.339 192.249C219.023 191.543 218.365 191.189 217.646 191.121C216.928 191.053 216.23 191.278 214.834 191.727L213.563 192.136C208.651 193.717 206.195 194.507 204.685 193.241C203.175 191.976 203.61 189.492 204.481 184.524L204.707 183.238C204.954 181.827 205.078 181.121 204.901 180.439C204.725 179.757 204.268 179.175 203.354 178.013L202.522 176.955Z" fill="#EFEEF4"/>
<path opacity="0.8" fill-rule="evenodd" clip-rule="evenodd" d="M177.211 160.198C177.85 158.67 179.607 157.949 181.136 158.588L188.517 161.674C190.045 162.314 190.766 164.071 190.127 165.6C189.488 167.128 187.73 167.849 186.202 167.21L178.821 164.123C177.293 163.484 176.572 161.727 177.211 160.198ZM200.292 216.459C198.763 215.82 198.042 214.062 198.682 212.534L201.768 205.153C202.407 203.625 204.165 202.904 205.693 203.543C207.222 204.182 207.943 205.939 207.304 207.468L204.217 214.849C203.578 216.377 201.821 217.098 200.292 216.459ZM228.07 150.033C226.542 149.394 225.821 147.637 226.46 146.108L229.546 138.728C230.186 137.199 231.943 136.478 233.472 137.117C235 137.756 235.721 139.514 235.082 141.042L231.995 148.423C231.356 149.952 229.599 150.673 228.07 150.033ZM243.637 187.977C244.276 186.448 246.033 185.727 247.562 186.366L254.942 189.453C256.471 190.092 257.192 191.849 256.553 193.378C255.913 194.906 254.156 195.627 252.627 194.988L245.247 191.902C243.718 191.262 242.997 189.505 243.637 187.977Z" fill="#EFEEF4"/>
<g opacity="0.5">
<path d="M202.861 142.611C204.394 141.982 206.147 142.715 206.775 144.248L207.512 146.045C208.141 147.577 207.408 149.33 205.876 149.959C204.343 150.588 202.59 149.855 201.961 148.322L201.224 146.525C200.595 144.993 201.328 143.24 202.861 142.611Z" fill="#EFEEF4"/>
<path d="M182.706 190.81C182.077 189.277 182.81 187.524 184.343 186.896L186.139 186.159C187.672 185.53 189.424 186.263 190.053 187.795C190.682 189.328 189.949 191.081 188.416 191.71L186.62 192.447C185.087 193.075 183.335 192.343 182.706 190.81Z" fill="#EFEEF4"/>
<path d="M227.89 203.619C229.422 202.99 231.175 203.723 231.804 205.255L232.54 207.051C233.169 208.584 232.436 210.336 230.903 210.965C229.371 211.594 227.618 210.861 226.989 209.328L226.253 207.533C225.624 206 226.357 204.247 227.89 203.619Z" fill="#EFEEF4"/>
<path d="M243.713 165.782C243.084 164.249 243.817 162.497 245.35 161.868L247.145 161.131C248.678 160.502 250.431 161.235 251.06 162.768C251.689 164.301 250.956 166.054 249.423 166.682L247.627 167.419C246.095 168.048 244.342 167.315 243.713 165.782Z" fill="#EFEEF4"/>
</g>
</g>
<g clip-path="url(#clip5_3185_71162)">
<path d="M307.429 181.02C311.416 177.677 313.41 176.006 315.179 176.681C316.948 177.356 317.322 179.93 318.069 185.079L318.262 186.411C318.474 187.875 318.58 188.606 318.952 189.204C319.325 189.803 319.922 190.199 321.115 190.993L322.201 191.716C326.401 194.51 328.5 195.907 328.376 197.873C328.252 199.84 325.986 201.074 321.455 203.543L320.283 204.181C318.995 204.883 318.351 205.234 317.905 205.801C317.459 206.369 317.261 207.089 316.866 208.53L316.506 209.841C315.114 214.911 314.418 217.445 312.572 217.986C310.726 218.526 308.953 216.714 305.405 213.091L304.488 212.154C303.48 211.124 302.976 210.609 302.327 210.362C301.679 210.115 300.96 210.163 299.523 210.259L298.214 210.347C293.154 210.686 290.625 210.856 289.608 209.223C288.591 207.59 289.761 205.237 292.1 200.529L292.705 199.311C293.37 197.973 293.702 197.304 293.747 196.584C293.793 195.863 293.546 195.173 293.053 193.792L292.604 192.534C290.869 187.675 290.001 185.245 291.219 183.695C292.437 182.146 294.933 182.503 299.926 183.217L301.218 183.401C302.637 183.604 303.346 183.705 304.022 183.507C304.698 183.31 305.265 182.835 306.398 181.885L307.429 181.02Z" fill="#EFEEF4"/>
<path opacity="0.8" fill-rule="evenodd" clip-rule="evenodd" d="M323.378 155.191C324.926 155.781 325.702 157.515 325.111 159.063L322.259 166.537C321.669 168.085 319.935 168.862 318.387 168.271C316.839 167.68 316.063 165.946 316.654 164.398L319.505 156.924C320.096 155.376 321.83 154.6 323.378 155.191ZM267.874 180.036C268.464 178.488 270.198 177.712 271.746 178.303L279.221 181.155C280.769 181.745 281.545 183.479 280.954 185.027C280.363 186.575 278.63 187.351 277.082 186.76L269.607 183.908C268.059 183.318 267.283 181.584 267.874 180.036ZM335.143 205.704C335.734 204.156 337.467 203.38 339.015 203.97L346.49 206.822C348.038 207.413 348.814 209.147 348.223 210.695C347.633 212.243 345.899 213.019 344.351 212.428L336.876 209.576C335.329 208.986 334.552 207.252 335.143 205.704ZM297.71 222.46C299.258 223.051 300.034 224.784 299.443 226.332L296.592 233.807C296.001 235.355 294.267 236.131 292.719 235.54C291.171 234.95 290.395 233.216 290.986 231.668L293.838 224.193C294.428 222.645 296.162 221.869 297.71 222.46Z" fill="#EFEEF4"/>
<g opacity="0.5">
<path d="M341.766 180.274C342.443 181.787 341.766 183.561 340.254 184.238L338.482 185.032C336.969 185.708 335.195 185.031 334.518 183.519C333.841 182.007 334.518 180.232 336.03 179.555L337.803 178.762C339.315 178.085 341.09 178.762 341.766 180.274Z" fill="#EFEEF4"/>
<path d="M292.956 161.65C294.468 160.973 296.243 161.65 296.92 163.163L297.713 164.935C298.39 166.447 297.713 168.222 296.201 168.899C294.688 169.576 292.914 168.899 292.237 167.386L291.443 165.614C290.766 164.102 291.444 162.327 292.956 161.65Z" fill="#EFEEF4"/>
<path d="M281.58 207.216C282.256 208.728 281.579 210.503 280.067 211.18L278.296 211.973C276.784 212.65 275.009 211.972 274.332 210.46C273.655 208.948 274.332 207.173 275.844 206.496L277.616 205.703C279.128 205.026 280.903 205.704 281.58 207.216Z" fill="#EFEEF4"/>
<path d="M319.897 221.837C321.409 221.16 323.184 221.838 323.861 223.35L324.653 225.121C325.33 226.633 324.653 228.408 323.141 229.085C321.629 229.762 319.854 229.085 319.177 227.573L318.384 225.801C317.707 224.289 318.384 222.514 319.897 221.837Z" fill="#EFEEF4"/>
</g>
</g>
<g clip-path="url(#clip6_3185_71162)">
<path d="M473.699 158.623C474.149 153.44 474.374 150.848 476.102 150.072C477.83 149.297 479.916 150.851 484.088 153.96L485.167 154.764C486.353 155.648 486.945 156.09 487.632 156.248C488.318 156.407 489.021 156.265 490.426 155.982L491.705 155.723C496.648 154.724 499.12 154.225 500.425 155.702C501.729 157.179 501.002 159.655 499.548 164.606L499.172 165.887C498.759 167.294 498.553 167.997 498.639 168.714C498.726 169.431 499.096 170.08 499.836 171.377L500.51 172.558C503.115 177.124 504.418 179.407 503.496 181.096C502.575 182.784 500.04 182.76 494.969 182.711L493.657 182.698C492.216 182.684 491.496 182.677 490.863 182.962C490.23 183.246 489.756 183.788 488.809 184.874L487.947 185.863C484.613 189.684 482.946 191.594 481.072 191.16C479.198 190.726 478.358 188.236 476.678 183.255L476.244 181.966C475.766 180.55 475.527 179.843 475.05 179.301C474.572 178.76 473.909 178.447 472.583 177.821L471.376 177.25C466.711 175.045 464.378 173.943 464.141 171.987C463.905 170.03 465.921 168.515 469.953 165.486L470.996 164.702C472.142 163.841 472.715 163.41 473.053 162.792C473.39 162.173 473.454 161.437 473.582 159.964L473.699 158.623Z" fill="#EFEEF4"/>
<path opacity="0.8" fill-rule="evenodd" clip-rule="evenodd" d="M466.685 129.088C468.197 128.41 469.972 129.085 470.65 130.597L473.926 137.896C474.605 139.407 473.929 141.183 472.418 141.861C470.906 142.539 469.131 141.864 468.452 140.352L465.177 133.054C464.498 131.542 465.174 129.767 466.685 129.088ZM445.062 185.925C444.384 184.414 445.059 182.638 446.571 181.96L453.869 178.684C455.381 178.006 457.156 178.681 457.835 180.193C458.513 181.704 457.838 183.48 456.326 184.158L449.027 187.434C447.516 188.112 445.74 187.437 445.062 185.925ZM510.75 156.444C510.071 154.932 510.747 153.157 512.258 152.479L519.557 149.203C521.068 148.524 522.844 149.2 523.522 150.711C524.201 152.223 523.525 153.998 522.014 154.677L514.715 157.953C513.203 158.631 511.428 157.956 510.75 156.444ZM496.166 194.776C497.678 194.097 499.453 194.773 500.132 196.284L503.408 203.583C504.086 205.095 503.411 206.87 501.899 207.548C500.387 208.227 498.612 207.551 497.934 206.04L494.658 198.741C493.979 197.23 494.655 195.454 496.166 194.776Z" fill="#EFEEF4"/>
<g opacity="0.5">
<path d="M497.428 133.792C498.976 134.382 499.754 136.115 499.165 137.663L498.474 139.478C497.885 141.027 496.152 141.804 494.604 141.215C493.055 140.626 492.277 138.893 492.867 137.344L493.557 135.53C494.146 133.981 495.879 133.203 497.428 133.792Z" fill="#EFEEF4"/>
<path d="M449.765 155.184C450.354 153.636 452.087 152.858 453.636 153.447L455.451 154.138C456.999 154.727 457.777 156.46 457.188 158.008C456.599 159.557 454.866 160.335 453.317 159.746L451.502 159.055C449.954 158.466 449.176 156.733 449.765 155.184Z" fill="#EFEEF4"/>
<path d="M473.98 195.425C475.529 196.014 476.307 197.747 475.717 199.295L475.027 201.109C474.438 202.658 472.705 203.435 471.157 202.846C469.608 202.257 468.83 200.524 469.42 198.976L470.11 197.162C470.699 195.613 472.432 194.836 473.98 195.425Z" fill="#EFEEF4"/>
<path d="M511.397 178.633C511.986 177.084 513.719 176.306 515.268 176.895L517.081 177.585C518.63 178.174 519.408 179.907 518.819 181.456C518.23 183.005 516.497 183.782 514.948 183.193L513.134 182.503C511.586 181.914 510.808 180.181 511.397 178.633Z" fill="#EFEEF4"/>
</g>
</g>
<g clip-path="url(#clip7_3185_71162)">
<path d="M407.312 186.523C412.355 185.244 414.877 184.604 416.177 185.981C417.478 187.358 416.696 189.839 415.131 194.801L414.727 196.085C414.282 197.495 414.06 198.2 414.135 198.901C414.211 199.601 414.576 200.218 415.306 201.451L415.971 202.574C418.539 206.915 419.824 209.085 418.857 210.803C417.891 212.52 415.314 212.648 410.16 212.902L408.827 212.968C407.362 213.041 406.63 213.077 405.982 213.394C405.333 213.712 404.842 214.275 403.86 215.4L402.966 216.425C399.511 220.387 397.783 222.368 395.885 222.052C393.988 221.737 393.177 219.335 391.556 214.53L391.137 213.287C390.676 211.922 390.446 211.239 389.97 210.735C389.493 210.23 388.825 209.962 387.488 209.424L386.271 208.934C381.567 207.042 379.214 206.096 379.008 204.183C378.801 202.271 380.877 200.659 385.029 197.435L386.104 196.601C387.283 195.684 387.873 195.226 388.227 194.597C388.581 193.968 388.659 193.239 388.815 191.781L388.957 190.453C389.505 185.322 389.779 182.757 391.549 181.89C393.319 181.023 395.412 182.43 399.599 185.242L400.683 185.969C401.873 186.768 402.467 187.168 403.163 187.283C403.858 187.399 404.574 187.217 406.007 186.853L407.312 186.523Z" fill="#EFEEF4"/>
<path opacity="0.8" fill-rule="evenodd" clip-rule="evenodd" d="M432.897 170.188C434.035 171.393 433.981 173.291 432.776 174.429L426.96 179.922C425.756 181.06 423.857 181.006 422.719 179.801C421.582 178.597 421.636 176.698 422.84 175.56L428.656 170.067C429.861 168.929 431.759 168.984 432.897 170.188ZM372.111 168.454C373.315 167.316 375.214 167.37 376.352 168.575L381.845 174.391C382.983 175.595 382.928 177.494 381.724 178.632C380.519 179.769 378.621 179.715 377.483 178.511L371.99 172.695C370.852 171.49 370.906 169.591 372.111 168.454ZM421.55 220.797C422.754 219.659 424.653 219.713 425.791 220.918L431.284 226.734C432.421 227.938 432.367 229.837 431.163 230.975C429.958 232.112 428.06 232.058 426.922 230.854L421.429 225.038C420.291 223.833 420.345 221.934 421.55 220.797ZM380.554 219.627C381.692 220.832 381.638 222.73 380.433 223.868L374.617 229.361C373.413 230.499 371.514 230.445 370.376 229.24C369.239 228.036 369.293 226.137 370.497 224.999L376.313 219.506C377.518 218.368 379.416 218.423 380.554 219.627Z" fill="#EFEEF4"/>
<g opacity="0.5">
<path d="M438.564 200.767C438.517 202.423 437.136 203.728 435.48 203.68L433.539 203.625C431.882 203.578 430.578 202.197 430.625 200.541C430.673 198.884 432.054 197.58 433.71 197.627L435.651 197.683C437.307 197.73 438.611 199.111 438.564 200.767Z" fill="#EFEEF4"/>
<path d="M402.691 162.787C404.347 162.835 405.651 164.216 405.604 165.872L405.549 167.813C405.501 169.469 404.12 170.773 402.464 170.726C400.808 170.679 399.504 169.298 399.551 167.642L399.606 165.701C399.654 164.044 401.035 162.74 402.691 162.787Z" fill="#EFEEF4"/>
<path d="M372.649 198.886C372.602 200.543 371.221 201.847 369.565 201.8L367.625 201.744C365.969 201.697 364.664 200.316 364.712 198.66C364.759 197.004 366.14 195.699 367.796 195.747L369.736 195.802C371.392 195.849 372.696 197.23 372.649 198.886Z" fill="#EFEEF4"/>
<path d="M400.809 228.702C402.466 228.749 403.77 230.13 403.723 231.787L403.667 233.726C403.62 235.383 402.239 236.687 400.583 236.64C398.927 236.592 397.622 235.211 397.67 233.555L397.725 231.615C397.772 229.959 399.153 228.655 400.809 228.702Z" fill="#EFEEF4"/>
</g>
</g>
<g clip-path="url(#clip8_3185_71162)">
<path opacity="0.8" fill-rule="evenodd" clip-rule="evenodd" d="M339.379 228.297C340.934 227.726 342.658 228.523 343.229 230.079L345.988 237.588C346.559 239.143 345.761 240.867 344.206 241.439C342.651 242.01 340.927 241.212 340.356 239.657L337.597 232.147C337.026 230.592 337.824 228.868 339.379 228.297ZM313.842 283.486C313.27 281.931 314.068 280.207 315.623 279.636L323.133 276.878C324.688 276.306 326.412 277.104 326.983 278.659C327.554 280.214 326.757 281.938 325.201 282.51L317.692 285.268C316.137 285.839 314.413 285.042 313.842 283.486ZM381.427 258.661C380.855 257.106 381.653 255.382 383.208 254.811L390.718 252.053C392.273 251.481 393.997 252.279 394.568 253.834C395.139 255.39 394.342 257.113 392.786 257.685L385.277 260.443C383.722 261.014 381.998 260.217 381.427 258.661ZM364.204 295.882C365.759 295.311 367.483 296.108 368.054 297.664L370.813 305.173C371.384 306.728 370.586 308.452 369.031 309.023C367.476 309.595 365.752 308.797 365.18 307.242L362.422 299.732C361.851 298.177 362.649 296.453 364.204 295.882Z" fill="#EFEEF4"/>
</g>
<g clip-path="url(#clip9_3185_71162)">
<path opacity="0.8" fill-rule="evenodd" clip-rule="evenodd" d="M489.268 209.444C490.862 209.896 491.788 211.554 491.336 213.149L489.154 220.845C488.702 222.439 487.043 223.365 485.449 222.913C483.855 222.461 482.929 220.803 483.381 219.209L485.563 211.512C486.015 209.918 487.674 208.992 489.268 209.444ZM436.169 239.084C436.621 237.49 438.28 236.564 439.874 237.016L447.57 239.198C449.165 239.65 450.09 241.309 449.638 242.903C449.186 244.497 447.528 245.423 445.934 244.971L438.237 242.789C436.643 242.337 435.717 240.678 436.169 239.084ZM505.439 258.724C505.891 257.13 507.55 256.204 509.144 256.656L516.84 258.838C518.434 259.29 519.36 260.948 518.908 262.543C518.456 264.137 516.798 265.062 515.204 264.61L507.507 262.428C505.913 261.976 504.987 260.318 505.439 258.724ZM469.628 278.714C471.222 279.166 472.148 280.824 471.696 282.418L469.514 290.115C469.062 291.709 467.404 292.635 465.81 292.183C464.216 291.731 463.29 290.072 463.742 288.478L465.924 280.782C466.376 279.188 468.034 278.262 469.628 278.714Z" fill="#EFEEF4"/>
</g>
<g clip-path="url(#clip10_3185_71162)">
<path d="M559.895 169.738C561.471 164.78 562.259 162.301 564.115 161.923C565.97 161.545 567.665 163.519 571.054 167.467L571.93 168.488C572.893 169.61 573.375 170.171 574.01 170.477C574.645 170.782 575.361 170.798 576.794 170.829L578.099 170.857C583.141 170.967 585.662 171.022 586.611 172.749C587.56 174.476 586.308 176.732 583.804 181.244L583.156 182.411C582.444 183.693 582.089 184.334 582.016 185.053C581.944 185.771 582.162 186.485 582.6 187.913L582.999 189.214C584.539 194.24 585.309 196.753 584.04 198.198C582.771 199.643 580.303 199.064 575.366 197.904L574.089 197.604C572.686 197.275 571.985 197.11 571.305 197.248C570.625 197.387 570.044 197.812 568.882 198.664L567.824 199.439C563.733 202.436 561.688 203.935 559.955 203.101C558.221 202.266 557.948 199.652 557.401 194.424L557.26 193.071C557.104 191.585 557.027 190.843 556.679 190.21C556.332 189.577 555.753 189.126 554.597 188.224L553.545 187.403C549.476 184.229 547.442 182.642 547.64 180.681C547.838 178.721 550.137 177.685 554.736 175.613L555.926 175.077C557.232 174.488 557.886 174.194 558.351 173.664C558.816 173.135 559.04 172.43 559.487 171.021L559.895 169.738Z" fill="#EFEEF4"/>
<path opacity="0.8" fill-rule="evenodd" clip-rule="evenodd" d="M559.527 139.384C561.15 139.054 562.734 140.102 563.065 141.726L564.66 149.565C564.991 151.188 563.943 152.772 562.319 153.103C560.695 153.433 559.111 152.385 558.781 150.762L557.185 142.922C556.855 141.299 557.903 139.715 559.527 139.384ZM525.967 190.097C525.637 188.473 526.685 186.889 528.309 186.559L536.148 184.963C537.771 184.633 539.356 185.681 539.686 187.305C540.016 188.928 538.968 190.512 537.345 190.843L529.505 192.438C527.882 192.769 526.298 191.72 525.967 190.097ZM596.521 175.736C596.19 174.112 597.238 172.528 598.862 172.198L606.701 170.602C608.325 170.272 609.909 171.32 610.239 172.944C610.57 174.567 609.521 176.151 607.898 176.482L600.059 178.077C598.435 178.408 596.851 177.359 596.521 175.736ZM573.888 209.938C575.511 209.607 577.095 210.655 577.426 212.279L579.021 220.118C579.352 221.742 578.304 223.326 576.68 223.656C575.056 223.987 573.472 222.938 573.142 221.315L571.546 213.476C571.216 211.852 572.264 210.268 573.888 209.938Z" fill="#EFEEF4"/>
<g opacity="0.5">
<path d="M588.49 150.713C589.872 151.627 590.251 153.488 589.337 154.87L588.265 156.489C587.351 157.871 585.489 158.25 584.108 157.336C582.726 156.421 582.347 154.56 583.261 153.178L584.333 151.559C585.247 150.177 587.109 149.798 588.49 150.713Z" fill="#EFEEF4"/>
<path d="M537.297 161.133C538.211 159.752 540.073 159.373 541.455 160.287L543.074 161.359C544.456 162.273 544.834 164.135 543.92 165.516C543.006 166.898 541.144 167.277 539.763 166.362L538.143 165.291C536.762 164.377 536.383 162.515 537.297 161.133Z" fill="#EFEEF4"/>
<path d="M552.1 205.704C553.481 206.618 553.86 208.48 552.946 209.861L551.875 211.48C550.961 212.861 549.099 213.24 547.718 212.326C546.336 211.412 545.957 209.55 546.871 208.169L547.942 206.55C548.857 205.169 550.718 204.79 552.1 205.704Z" fill="#EFEEF4"/>
<path d="M592.288 197.525C593.202 196.143 595.064 195.764 596.445 196.678L598.064 197.749C599.445 198.664 599.824 200.525 598.91 201.907C597.995 203.288 596.134 203.667 594.752 202.753L593.134 201.682C591.752 200.768 591.374 198.906 592.288 197.525Z" fill="#EFEEF4"/>
</g>
</g>
<g clip-path="url(#clip11_3185_71162)">
<path d="M678.649 131.408C682.596 128.017 684.569 126.322 686.346 126.976C688.123 127.63 688.528 130.2 689.336 135.339L689.545 136.669C689.775 138.13 689.89 138.86 690.269 139.453C690.649 140.047 691.25 140.437 692.453 141.216L693.548 141.926C697.781 144.669 699.897 146.041 699.796 148.009C699.696 149.977 697.445 151.238 692.943 153.761L691.779 154.414C690.5 155.13 689.86 155.489 689.421 156.062C688.982 156.635 688.792 157.357 688.414 158.802L688.07 160.118C686.739 165.204 686.074 167.747 684.234 168.309C682.395 168.872 680.6 167.081 677.009 163.501L676.08 162.574C675.06 161.557 674.55 161.048 673.899 160.809C673.248 160.569 672.53 160.626 671.093 160.74L669.785 160.843C664.73 161.243 662.203 161.443 661.167 159.822C660.13 158.202 661.272 155.834 663.554 151.099L664.145 149.873C664.793 148.528 665.118 147.855 665.154 147.134C665.191 146.413 664.936 145.726 664.427 144.351L663.963 143.099C662.17 138.26 661.273 135.841 662.472 134.277C663.671 132.713 666.171 133.04 671.172 133.694L672.466 133.863C673.887 134.049 674.598 134.142 675.272 133.936C675.946 133.73 676.506 133.248 677.628 132.285L678.649 131.408Z" fill="#EFEEF4"/>
<path opacity="0.8" fill-rule="evenodd" clip-rule="evenodd" d="M694.287 105.39C695.842 105.962 696.639 107.686 696.067 109.241L693.305 116.749C692.732 118.304 691.008 119.101 689.453 118.529C687.898 117.957 687.101 116.233 687.674 114.678L690.436 107.17C691.008 105.615 692.732 104.818 694.287 105.39ZM639.085 130.898C639.657 129.344 641.381 128.547 642.936 129.119L650.444 131.881C651.999 132.453 652.796 134.177 652.224 135.732C651.652 137.287 649.927 138.084 648.372 137.512L640.864 134.75C639.309 134.178 638.513 132.453 639.085 130.898ZM706.657 155.759C707.229 154.204 708.953 153.407 710.508 153.979L718.016 156.741C719.571 157.313 720.368 159.038 719.796 160.593C719.224 162.147 717.499 162.944 715.944 162.372L708.436 159.61C706.881 159.038 706.085 157.314 706.657 155.759ZM669.427 172.962C670.982 173.534 671.779 175.258 671.207 176.813L668.444 184.321C667.872 185.876 666.148 186.673 664.593 186.101C663.038 185.529 662.241 183.805 662.813 182.25L665.576 174.742C666.148 173.187 667.872 172.39 669.427 172.962Z" fill="#EFEEF4"/>
<g opacity="0.5">
<path d="M712.975 130.251C713.67 131.755 713.014 133.537 711.51 134.232L709.748 135.047C708.244 135.742 706.461 135.086 705.766 133.582C705.071 132.078 705.727 130.295 707.231 129.6L708.994 128.786C710.498 128.091 712.28 128.746 712.975 130.251Z" fill="#EFEEF4"/>
<path d="M663.945 112.212C665.449 111.517 667.232 112.173 667.927 113.677L668.741 115.44C669.436 116.944 668.78 118.727 667.276 119.422C665.772 120.117 663.99 119.461 663.295 117.957L662.48 116.194C661.785 114.69 662.441 112.907 663.945 112.212Z" fill="#EFEEF4"/>
<path d="M653.115 157.911C653.81 159.415 653.154 161.198 651.65 161.893L649.889 162.707C648.385 163.402 646.602 162.746 645.907 161.242C645.212 159.738 645.868 157.955 647.372 157.26L649.134 156.446C650.638 155.751 652.42 156.407 653.115 157.911Z" fill="#EFEEF4"/>
<path d="M691.605 172.073C693.109 171.378 694.892 172.033 695.587 173.537L696.401 175.299C697.096 176.803 696.44 178.586 694.936 179.281C693.432 179.976 691.649 179.32 690.954 177.816L690.14 176.054C689.445 174.55 690.101 172.768 691.605 172.073Z" fill="#EFEEF4"/>
</g>
</g>
<path d="M631.425 202.414C634.094 197.948 635.429 195.715 637.322 195.772C639.215 195.83 640.412 198.139 642.807 202.758L643.427 203.953C644.107 205.266 644.447 205.922 644.995 206.365C645.544 206.808 646.237 206.987 647.625 207.345L648.889 207.671C653.772 208.933 656.214 209.563 656.742 211.462C657.27 213.361 655.534 215.27 652.064 219.088L651.166 220.076C650.18 221.161 649.687 221.704 649.451 222.387C649.216 223.069 649.266 223.814 649.365 225.305L649.455 226.662C649.804 231.907 649.978 234.53 648.412 235.646C646.845 236.762 644.575 235.633 640.035 233.374L638.861 232.789C637.571 232.148 636.926 231.827 636.232 231.806C635.539 231.785 634.876 232.066 633.549 232.629L632.342 233.141C627.674 235.122 625.34 236.112 623.843 234.903C622.347 233.695 622.68 231.087 623.345 225.873L623.517 224.523C623.706 223.042 623.8 222.301 623.607 221.605C623.413 220.91 622.954 220.338 622.035 219.196L621.198 218.155C617.965 214.134 616.348 212.123 616.99 210.26C617.631 208.397 620.107 207.915 625.058 206.951L626.338 206.702C627.745 206.428 628.449 206.291 629.022 205.882C629.596 205.473 629.976 204.838 630.734 203.569L631.425 202.414Z" fill="#EFEEF4"/>
<path opacity="0.8" fill-rule="evenodd" clip-rule="evenodd" d="M638.017 172.782C639.674 172.832 640.976 174.215 640.925 175.871L640.684 183.868C640.634 185.524 639.25 186.826 637.594 186.776C635.938 186.725 634.636 185.342 634.686 183.686L634.928 175.69C634.978 174.034 636.361 172.732 638.017 172.782ZM593.738 214.463C593.788 212.807 595.171 211.505 596.827 211.555L604.823 211.797C606.479 211.847 607.781 213.23 607.731 214.886C607.681 216.542 606.298 217.844 604.642 217.794L596.646 217.552C594.989 217.502 593.688 216.119 593.738 214.463ZM665.705 216.639C665.755 214.983 667.138 213.681 668.794 213.731L676.79 213.973C678.446 214.023 679.748 215.406 679.698 217.062C679.648 218.718 678.265 220.02 676.609 219.97L668.613 219.728C666.957 219.678 665.655 218.295 665.705 216.639ZM635.842 244.749C637.498 244.799 638.8 246.182 638.749 247.838L638.508 255.835C638.458 257.491 637.075 258.793 635.418 258.743C633.762 258.693 632.46 257.309 632.51 255.653L632.752 247.657C632.802 246.001 634.185 244.699 635.842 244.749Z" fill="#EFEEF4"/>
<g opacity="0.5">
<path d="M663.617 190.443C664.752 191.649 664.695 193.548 663.489 194.683L662.075 196.014C660.868 197.15 658.97 197.093 657.834 195.886C656.698 194.68 656.756 192.781 657.962 191.645L659.376 190.314C660.583 189.179 662.481 189.236 663.617 190.443Z" fill="#EFEEF4"/>
<path d="M611.398 188.864C612.604 187.729 614.503 187.786 615.638 188.993L616.969 190.406C618.105 191.613 618.047 193.511 616.841 194.647C615.635 195.783 613.736 195.725 612.6 194.519L611.269 193.105C610.134 191.899 610.191 190 611.398 188.864Z" fill="#EFEEF4"/>
<path d="M615.601 235.64C616.737 236.847 616.679 238.745 615.473 239.881L614.06 241.211C612.853 242.347 610.955 242.289 609.819 241.083C608.684 239.876 608.741 237.978 609.947 236.842L611.36 235.512C612.567 234.376 614.465 234.434 615.601 235.64Z" fill="#EFEEF4"/>
<path d="M656.594 236.88C657.801 235.745 659.7 235.802 660.835 237.009L662.165 238.422C663.301 239.628 663.243 241.527 662.037 242.662C660.831 243.798 658.932 243.741 657.796 242.534L656.466 241.121C655.331 239.915 655.388 238.016 656.594 236.88Z" fill="#EFEEF4"/>
</g>
<g clip-path="url(#clip12_3185_71162)">
<path d="M724.518 207.443C729.45 209.1 731.916 209.928 732.264 211.79C732.611 213.651 730.61 215.313 726.607 218.637L725.571 219.497C724.434 220.441 723.865 220.914 723.549 221.543C723.233 222.173 723.206 222.889 723.151 224.322L723.102 225.626C722.91 230.666 722.814 233.186 721.071 234.106C719.329 235.026 717.093 233.738 712.623 231.16L711.467 230.493C710.196 229.761 709.561 229.395 708.844 229.31C708.127 229.226 707.41 229.433 705.974 229.847L704.668 230.225C699.617 231.683 697.092 232.412 695.668 231.119C694.243 229.826 694.863 227.368 696.103 222.451L696.424 221.179C696.776 219.782 696.953 219.083 696.825 218.401C696.698 217.719 696.282 217.131 695.45 215.955L694.692 214.884C691.762 210.745 690.297 208.676 691.16 206.956C692.022 205.237 694.64 205.006 699.877 204.545L701.232 204.426C702.72 204.295 703.464 204.229 704.102 203.892C704.741 203.555 705.201 202.984 706.122 201.843L706.96 200.804C710.2 196.788 711.82 194.78 713.777 195.01C715.735 195.24 716.733 197.556 718.729 202.188L719.246 203.386C719.813 204.703 720.097 205.361 720.618 205.834C721.14 206.308 721.841 206.543 723.242 207.014L724.518 207.443Z" fill="#EFEEF4"/>
<path opacity="0.8" fill-rule="evenodd" clip-rule="evenodd" d="M754.873 207.571C755.177 209.2 754.103 210.767 752.475 211.071L744.61 212.538C742.982 212.842 741.415 211.768 741.111 210.139C740.807 208.51 741.881 206.944 743.51 206.64L751.374 205.173C753.003 204.869 754.57 205.943 754.873 207.571ZM704.717 173.187C706.345 172.883 707.912 173.957 708.216 175.586L709.683 183.45C709.987 185.079 708.913 186.646 707.284 186.95C705.655 187.253 704.089 186.179 703.785 184.551L702.318 176.686C702.014 175.058 703.088 173.491 704.717 173.187ZM717.921 243.966C719.55 243.662 721.117 244.736 721.421 246.365L722.888 254.229C723.192 255.858 722.118 257.424 720.489 257.728C718.86 258.032 717.294 256.958 716.99 255.329L715.523 247.465C715.219 245.836 716.293 244.27 717.921 243.966ZM684.095 220.776C684.399 222.405 683.325 223.972 681.696 224.276L673.831 225.743C672.203 226.047 670.636 224.973 670.332 223.344C670.028 221.715 671.102 220.148 672.731 219.844L680.595 218.377C682.224 218.073 683.791 219.147 684.095 220.776Z" fill="#EFEEF4"/>
<g opacity="0.5">
<path d="M743.072 236.347C742.135 237.713 740.268 238.062 738.901 237.125L737.3 236.027C735.933 235.09 735.585 233.223 736.522 231.856C737.459 230.49 739.326 230.141 740.692 231.078L742.294 232.176C743.661 233.113 744.009 234.98 743.072 236.347Z" fill="#EFEEF4"/>
<path d="M733.49 184.99C734.857 185.927 735.205 187.794 734.268 189.161L733.17 190.762C732.234 192.129 730.366 192.477 729 191.54C727.633 190.603 727.285 188.736 728.222 187.37L729.32 185.768C730.256 184.401 732.124 184.053 733.49 184.99Z" fill="#EFEEF4"/>
<path d="M688.684 199.061C687.747 200.428 685.879 200.776 684.513 199.839L682.912 198.742C681.546 197.805 681.197 195.938 682.134 194.571C683.071 193.205 684.938 192.857 686.305 193.793L687.905 194.891C689.272 195.827 689.62 197.695 688.684 199.061Z" fill="#EFEEF4"/>
<path d="M696.204 239.378C697.571 240.315 697.919 242.182 696.982 243.549L695.885 245.149C694.948 246.516 693.081 246.864 691.714 245.927C690.348 244.99 690 243.123 690.936 241.757L692.034 240.156C692.97 238.789 694.838 238.441 696.204 239.378Z" fill="#EFEEF4"/>
</g>
</g>
<path d="M772.28 159.296C774.448 154.567 775.533 152.202 777.421 152.053C779.309 151.905 780.75 154.071 783.632 158.402L784.377 159.523C785.196 160.754 785.606 161.369 786.199 161.75C786.792 162.131 787.501 162.234 788.919 162.439L790.211 162.626C795.202 163.35 797.698 163.712 798.429 165.542C799.16 167.372 797.643 169.458 794.607 173.631L793.822 174.711C792.959 175.896 792.528 176.489 792.368 177.193C792.208 177.897 792.339 178.633 792.599 180.104L792.836 181.443C793.752 186.62 794.21 189.208 792.774 190.488C791.338 191.767 788.959 190.891 784.201 189.138L782.97 188.685C781.617 188.187 780.941 187.938 780.25 187.992C779.558 188.046 778.93 188.398 777.672 189.102L776.527 189.742C772.102 192.218 769.889 193.456 768.27 192.417C766.652 191.377 766.699 188.749 766.794 183.493L766.819 182.133C766.846 180.64 766.859 179.893 766.591 179.223C766.323 178.552 765.805 178.034 764.767 176.998L763.823 176.055C760.171 172.408 758.346 170.585 758.782 168.663C759.217 166.741 761.626 165.993 766.443 164.497L767.689 164.111C769.058 163.685 769.742 163.473 770.268 163.004C770.794 162.535 771.102 161.863 771.718 160.52L772.28 159.296Z" fill="#EFEEF4"/>
<path opacity="0.8" fill-rule="evenodd" clip-rule="evenodd" d="M775.615 129.123C777.267 128.993 778.712 130.227 778.842 131.879L779.469 139.854C779.599 141.506 778.366 142.95 776.714 143.08C775.062 143.21 773.618 141.977 773.488 140.325L772.86 132.35C772.73 130.698 773.964 129.254 775.615 129.123ZM736.123 175.365C735.993 173.714 737.226 172.269 738.878 172.139L746.853 171.511C748.505 171.381 749.949 172.615 750.079 174.267C750.209 175.918 748.976 177.363 747.324 177.493L739.349 178.121C737.697 178.251 736.253 177.017 736.123 175.365ZM807.901 169.715C807.771 168.063 809.004 166.619 810.656 166.489L818.631 165.861C820.283 165.731 821.727 166.965 821.857 168.616C821.987 170.268 820.754 171.712 819.102 171.843L811.127 172.47C809.475 172.6 808.031 171.367 807.901 169.715ZM781.266 200.901C782.918 200.771 784.362 202.005 784.492 203.657L785.12 211.632C785.25 213.284 784.016 214.728 782.365 214.858C780.713 214.988 779.268 213.755 779.138 212.103L778.511 204.128C778.381 202.476 779.614 201.031 781.266 200.901Z" fill="#EFEEF4"/>
<g opacity="0.5">
<path d="M802.981 143.9C804.241 144.976 804.39 146.87 803.314 148.13L802.053 149.607C800.977 150.866 799.083 151.016 797.823 149.94C796.563 148.863 796.414 146.97 797.49 145.71L798.751 144.233C799.827 142.973 801.721 142.824 802.981 143.9Z" fill="#EFEEF4"/>
<path d="M750.899 148.001C751.975 146.741 753.869 146.592 755.129 147.668L756.605 148.929C757.865 150.005 758.014 151.899 756.938 153.158C755.862 154.418 753.968 154.567 752.709 153.491L751.232 152.23C749.972 151.154 749.823 149.261 750.899 148.001Z" fill="#EFEEF4"/>
<path d="M760.156 194.044C761.416 195.12 761.565 197.013 760.489 198.273L759.229 199.749C758.153 201.009 756.259 201.158 754.999 200.082C753.739 199.006 753.59 197.112 754.666 195.852L755.927 194.377C757.003 193.117 758.896 192.968 760.156 194.044Z" fill="#EFEEF4"/>
<path d="M801.042 190.826C802.118 189.566 804.012 189.417 805.271 190.493L806.747 191.753C808.007 192.829 808.156 194.723 807.08 195.983C806.004 197.243 804.11 197.392 802.85 196.316L801.375 195.056C800.115 193.98 799.966 192.086 801.042 190.826Z" fill="#EFEEF4"/>
</g>
<defs>
<clipPath id="clip0_3185_71162">
<rect x="-64.5684" y="107.318" width="96" height="96" rx="5" transform="rotate(-11.5053 -64.5684 107.318)" fill="white"/>
</clipPath>
<clipPath id="clip1_3185_71162">
<rect x="-36.5225" y="64.8711" width="96" height="96" rx="5" transform="rotate(-38.2934 -36.5225 64.8711)" fill="white"/>
</clipPath>
<clipPath id="clip2_3185_71162">
<rect x="74.9033" y="47.3848" width="96" height="96" rx="5" transform="rotate(20.1989 74.9033 47.3848)" fill="white"/>
</clipPath>
<clipPath id="clip3_3185_71162">
<rect x="167.6" y="128.836" width="96" height="96" rx="5" transform="rotate(69.9152 167.6 128.836)" fill="white"/>
</clipPath>
<clipPath id="clip4_3185_71162">
<rect x="154.079" y="202.553" width="96" height="96" rx="5" transform="rotate(-67.306 154.079 202.553)" fill="white"/>
</clipPath>
<clipPath id="clip5_3185_71162">
<rect x="280.314" y="133.408" width="96" height="96" rx="5" transform="rotate(20.8852 280.314 133.408)" fill="white"/>
</clipPath>
<clipPath id="clip6_3185_71162">
<rect x="420.846" y="144.182" width="96" height="96" rx="5" transform="rotate(-24.1711 420.846 144.182)" fill="white"/>
</clipPath>
<clipPath id="clip7_3185_71162">
<rect x="403.573" y="131.859" width="96" height="96" rx="5" transform="rotate(46.6343 403.573 131.859)" fill="white"/>
</clipPath>
<clipPath id="clip8_3185_71162">
<rect x="292.599" y="240.154" width="96" height="96" rx="5" transform="rotate(-20.169 292.599 240.154)" fill="white"/>
</clipPath>
<clipPath id="clip9_3185_71162">
<rect x="444.452" y="191.541" width="96" height="96" rx="5" transform="rotate(15.8292 444.452 191.541)" fill="white"/>
</clipPath>
<clipPath id="clip10_3185_71162">
<rect x="511.494" y="144.059" width="96" height="96" rx="5" transform="rotate(-11.5053 511.494 144.059)" fill="white"/>
</clipPath>
<clipPath id="clip11_3185_71162">
<rect x="650.966" y="84.125" width="96" height="96" rx="5" transform="rotate(20.1989 650.966 84.125)" fill="white"/>
</clipPath>
<clipPath id="clip12_3185_71162">
<rect x="750.985" y="159.469" width="96" height="96" rx="5" transform="rotate(79.4322 750.985 159.469)" fill="white"/>
</clipPath>
</defs>
</svg>
