<svg width="48" height="49" viewBox="0 0 48 49" fill="none" xmlns="http://www.w3.org/2000/svg">
<g id="&#208;&#161;&#208;&#190;&#209;&#128;&#209;&#130;&#208;&#184;&#209;&#128;&#208;&#190;&#208;&#178;&#208;&#186;&#208;&#176;">
<path id="Vector" fill-rule="evenodd" clip-rule="evenodd" d="M33.5257 6.83684C34.1382 6.63267 34.8126 6.84335 35.2 7.35986L41.2 15.3599C41.6971 16.0226 41.5627 16.9628 40.9 17.4599C40.2373 17.9569 39.2971 17.8226 38.8 17.1599L35.5 12.7599V40.2599C35.5 41.0883 34.8284 41.7599 34 41.7599C33.1716 41.7599 32.5 41.0883 32.5 40.2599V8.25986C32.5 7.61422 32.9131 7.04101 33.5257 6.83684ZM6.5 16.2599C6.5 15.4314 7.17157 14.7599 8 14.7599H26C26.8284 14.7599 27.5 15.4314 27.5 16.2599C27.5 17.0883 26.8284 17.7599 26 17.7599H8C7.17157 17.7599 6.5 17.0883 6.5 16.2599ZM10.5 26.2599C10.5 25.4314 11.1716 24.7599 12 24.7599H26C26.8284 24.7599 27.5 25.4314 27.5 26.2599C27.5 27.0883 26.8284 27.7599 26 27.7599H12C11.1716 27.7599 10.5 27.0883 10.5 26.2599ZM14.5 36.2599C14.5 35.4314 15.1716 34.7599 16 34.7599H26C26.8284 34.7599 27.5 35.4314 27.5 36.2599C27.5 37.0883 26.8284 37.7599 26 37.7599H16C15.1716 37.7599 14.5 37.0883 14.5 36.2599Z" fill="#1C1C1C"/>
</g>
</svg>
