<svg width="64" height="65" viewBox="0 0 64 65" fill="none" xmlns="http://www.w3.org/2000/svg">
<g id="Bold Duotone / Arrows / Round Arrow Right">
<path id="Vector" opacity="0.1" d="M32.0002 58.9271C46.7278 58.9271 58.6668 46.988 58.6668 32.2604C58.6668 17.5328 46.7278 5.59375 32.0002 5.59375C17.2726 5.59375 5.3335 17.5328 5.3335 32.2604C5.3335 46.988 17.2726 58.9271 32.0002 58.9271Z" fill="#6B73C2"/>
<path id="Vector_2" d="M36.081 22.8456C35.3 22.0645 34.0337 22.0645 33.2526 22.8456C32.4716 23.6266 32.4716 24.8929 33.2526 25.674L37.8384 30.2598H21.3335C20.2289 30.2598 19.3335 31.1552 19.3335 32.2598C19.3335 33.3643 20.2289 34.2598 21.3335 34.2598H37.8384L33.2526 38.8455C32.4716 39.6266 32.4716 40.8929 33.2526 41.674C34.0337 42.455 35.3 42.455 36.081 41.674L44.081 33.674C44.8621 32.8929 44.8621 31.6266 44.081 30.8455L36.081 22.8456Z" fill="#6B73C2"/>
</g>
</svg>
