<svg width="523" height="254" viewBox="0 0 523 254" fill="none" xmlns="http://www.w3.org/2000/svg">
<g clip-path="url(#clip0_3185_71400)">
<path d="M55.8326 -24.0019C57.4086 -28.9603 58.1966 -31.4396 60.0522 -31.8173C61.9079 -32.195 63.6023 -30.2211 66.9911 -26.2732L67.8679 -25.2518C68.8309 -24.1299 69.3124 -23.569 69.9473 -23.2634C70.5822 -22.9579 71.2987 -22.9423 72.7316 -22.9112L74.0362 -22.8829C79.0787 -22.7734 81.6 -22.7187 82.5487 -20.9914C83.4975 -19.2641 82.2455 -17.0082 79.7414 -12.4964L79.0935 -11.3291C78.3819 -10.047 78.0262 -9.40592 77.9536 -8.68766C77.881 -7.96941 78.0999 -7.25527 78.5377 -5.82701L78.9362 -4.52669C80.4767 0.499448 81.2469 3.01252 79.9777 4.45776C78.7084 5.90301 76.2401 5.32329 71.3037 4.16386L70.0266 3.86389C68.6238 3.53442 67.9224 3.36968 67.2426 3.50804C66.5629 3.64641 65.9817 4.07222 64.8193 4.92382L63.7611 5.69914C59.6706 8.69598 57.6254 10.1944 55.8921 9.36032C54.1589 8.52624 53.8855 5.91204 53.3387 0.683642L53.1972 -0.669009C53.0418 -2.15476 52.9642 -2.89763 52.6166 -3.53037C52.269 -4.16311 51.691 -4.61408 50.5348 -5.51603L49.4822 -6.33718C45.4137 -9.51116 43.3795 -11.0982 43.5775 -13.0589C43.7756 -15.0196 46.0749 -16.0556 50.6734 -18.1275L51.8631 -18.6635C53.1698 -19.2523 53.8232 -19.5466 54.2882 -20.0761C54.7531 -20.6055 54.9771 -21.31 55.4249 -22.719L55.8326 -24.0019Z" fill="#EFEEF4"/>
<path opacity="0.8" fill-rule="evenodd" clip-rule="evenodd" d="M55.4641 -54.356C57.0877 -54.6865 58.6717 -53.6382 59.0022 -52.0146L60.5979 -44.1754C60.9283 -42.5518 59.8801 -40.9678 58.2565 -40.6373C56.633 -40.3068 55.0489 -41.3551 54.7184 -42.9786L53.1228 -50.8179C52.7923 -52.4415 53.8405 -54.0255 55.4641 -54.356ZM21.9048 -3.64332C21.5743 -5.26688 22.6226 -6.85094 24.2462 -7.18142L32.0854 -8.77708C33.709 -9.10755 35.293 -8.05929 35.6235 -6.43573C35.954 -4.81217 34.9057 -3.22811 33.2822 -2.89764L25.4429 -1.30198C23.8193 -0.971504 22.2353 -2.01976 21.9048 -3.64332ZM92.4581 -18.0043C92.1276 -19.6279 93.1759 -21.2119 94.7994 -21.5424L102.639 -23.1381C104.262 -23.4685 105.846 -22.4203 106.177 -20.7967C106.507 -19.1731 105.459 -17.5891 103.835 -17.2586L95.9962 -15.663C94.3726 -15.3325 92.7885 -16.3807 92.4581 -18.0043ZM69.8251 16.1973C71.4486 15.8668 73.0327 16.9151 73.3632 18.5386L74.9588 26.3779C75.2893 28.0014 74.241 29.5855 72.6175 29.916C70.9939 30.2464 69.4099 29.1982 69.0794 27.5746L67.4837 19.7354C67.1533 18.1118 68.2015 16.5277 69.8251 16.1973Z" fill="#EFEEF4"/>
<g opacity="0.5">
<path d="M84.4279 -43.0275C85.8096 -42.1132 86.1885 -40.2518 85.2741 -38.8701L84.2025 -37.2508C83.2882 -35.8691 81.4268 -35.4902 80.0451 -36.4046C78.6634 -37.3189 78.2845 -39.1802 79.1989 -40.562L80.2705 -42.1813C81.1848 -43.563 83.0462 -43.9419 84.4279 -43.0275Z" fill="#EFEEF4"/>
<path d="M33.2346 -32.6067C34.149 -33.9885 36.0103 -34.3673 37.392 -33.453L39.0113 -32.3814C40.393 -31.467 40.7719 -29.6057 39.8576 -28.224C38.9432 -26.8423 37.0819 -26.4634 35.7002 -27.3778L34.0808 -28.4494C32.6991 -29.3637 32.3203 -31.225 33.2346 -32.6067Z" fill="#EFEEF4"/>
<path d="M48.0372 11.9638C49.4189 12.8781 49.7978 14.7394 48.8834 16.1211L47.8125 17.7395C46.8982 19.1212 45.0368 19.5 43.6551 18.5857C42.2734 17.6713 41.8946 15.81 42.8089 14.4283L43.8798 12.81C44.7942 11.4283 46.6555 11.0494 48.0372 11.9638Z" fill="#EFEEF4"/>
<path d="M88.2254 3.78443C89.1398 2.40272 91.0011 2.02385 92.3828 2.9382L94.0011 4.00912C95.3828 4.92347 95.7617 6.7848 94.8473 8.16652C93.933 9.54822 92.0717 9.92709 90.69 9.01274L89.0717 7.94182C87.6899 7.02747 87.3111 5.16614 88.2254 3.78443Z" fill="#EFEEF4"/>
</g>
</g>
<g clip-path="url(#clip1_3185_71400)">
<path opacity="0.8" fill-rule="evenodd" clip-rule="evenodd" d="M190.225 -88.3502C191.78 -87.7782 192.576 -86.0538 192.004 -84.4989L189.242 -76.9909C188.67 -75.4359 186.946 -74.6392 185.391 -75.2112C183.836 -75.7833 183.039 -77.5076 183.611 -79.0626L186.373 -86.5706C186.945 -88.1255 188.67 -88.9223 190.225 -88.3502ZM135.022 -62.8418C135.594 -64.3967 137.318 -65.1935 138.873 -64.6214L146.381 -61.8592C147.936 -61.2871 148.733 -59.5628 148.161 -58.0079C147.589 -56.4529 145.865 -55.6561 144.31 -56.2282L136.802 -58.9904C135.247 -59.5625 134.45 -61.2868 135.022 -62.8418ZM202.594 -37.9816C203.166 -39.5366 204.89 -40.3334 206.445 -39.7613L213.953 -36.999C215.508 -36.427 216.305 -34.7027 215.733 -33.1477C215.161 -31.5928 213.437 -30.796 211.882 -31.368L204.374 -34.1303C202.819 -34.7024 202.022 -36.4267 202.594 -37.9816ZM165.364 -20.7782C166.919 -20.2062 167.716 -18.4819 167.144 -16.9269L164.382 -9.41891C163.81 -7.86396 162.086 -7.06717 160.531 -7.63925C158.976 -8.21133 158.179 -9.93564 158.751 -11.4906L161.513 -18.9986C162.085 -20.5535 163.81 -21.3503 165.364 -20.7782Z" fill="#EFEEF4"/>
</g>
<path d="M127.362 8.67373C130.032 4.20787 131.367 1.97493 133.259 2.03216C135.152 2.0894 136.35 4.39889 138.744 9.01787L139.364 10.2129C140.045 11.5254 140.385 12.1817 140.933 12.6245C141.481 13.0673 142.175 13.2465 143.563 13.6049L144.826 13.9312C149.709 15.1924 152.151 15.823 152.679 17.7217C153.207 19.6203 151.472 21.5296 148.001 25.3482L147.103 26.3361C146.117 27.4212 145.624 27.9638 145.389 28.6463C145.154 29.3289 145.203 30.0742 145.302 31.5647L145.393 32.9217C145.741 38.1671 145.916 40.7898 144.349 41.906C142.783 43.0222 140.513 41.8927 135.973 39.6337L134.798 39.0493C133.508 38.4073 132.863 38.0864 132.17 38.0654C131.477 38.0444 130.813 38.3258 129.487 38.8887L128.279 39.4011C123.611 41.3816 121.277 42.3719 119.781 41.1631C118.285 39.9543 118.617 37.347 119.282 32.1323L119.454 30.7832C119.643 29.3013 119.738 28.5604 119.544 27.8649C119.351 27.1694 118.891 26.598 117.972 25.4553L117.136 24.415C113.902 20.3937 112.285 18.3831 112.927 16.5198C113.569 14.6565 116.044 14.1746 120.995 13.2107L122.276 12.9613C123.683 12.6874 124.386 12.5505 124.96 12.1416C125.534 11.7327 125.913 11.0982 126.672 9.8291L127.362 8.67373Z" fill="#EFEEF4"/>
<path opacity="0.8" fill-rule="evenodd" clip-rule="evenodd" d="M133.955 -20.9583C135.611 -20.9082 136.913 -19.5251 136.863 -17.869L136.621 -9.87265C136.571 -8.21655 135.188 -6.91461 133.532 -6.96468C131.876 -7.01476 130.574 -8.39788 130.624 -10.054L130.866 -18.0503C130.916 -19.7064 132.299 -21.0084 133.955 -20.9583ZM89.6751 20.7225C89.7252 19.0664 91.1083 17.7645 92.7644 17.8146L100.761 18.0564C102.417 18.1064 103.719 19.4895 103.669 21.1456C103.619 22.8017 102.235 24.1037 100.579 24.0536L92.5831 23.8118C90.927 23.7618 89.625 22.3786 89.6751 20.7225ZM161.642 22.8985C161.692 21.2424 163.075 19.9405 164.731 19.9905L172.728 20.2323C174.384 20.2824 175.686 21.6655 175.636 23.3216C175.586 24.9777 174.203 26.2796 172.547 26.2296L164.55 25.9878C162.894 25.9377 161.592 24.5546 161.642 22.8985ZM131.779 51.0088C133.435 51.0589 134.737 52.442 134.687 54.0981L134.445 62.0945C134.395 63.7506 133.012 65.0525 131.356 65.0024C129.7 64.9524 128.398 63.5692 128.448 61.9131L128.69 53.9168C128.74 52.2607 130.123 50.9587 131.779 51.0088Z" fill="#EFEEF4"/>
<g opacity="0.5">
<path d="M159.554 -3.29755C160.69 -2.09111 160.633 -0.192481 159.426 0.943151L158.012 2.27408C156.806 3.40971 154.907 3.3523 153.772 2.14586C152.636 0.939411 152.693 -0.959215 153.9 -2.09485L155.314 -3.42577C156.52 -4.5614 158.419 -4.504 159.554 -3.29755Z" fill="#EFEEF4"/>
<path d="M107.335 -4.87595C108.542 -6.01158 110.44 -5.95418 111.576 -4.74773L112.907 -3.33382C114.042 -2.12737 113.985 -0.228746 112.779 0.906886C111.572 2.04252 109.673 1.98511 108.538 0.778667L107.207 -0.635249C106.071 -1.84169 106.129 -3.74032 107.335 -4.87595Z" fill="#EFEEF4"/>
<path d="M111.539 41.8999C112.674 43.1063 112.617 45.0049 111.41 46.1406L109.997 47.4707C108.791 48.6063 106.892 48.5489 105.757 47.3424C104.621 46.136 104.678 44.2374 105.885 43.1017L107.298 41.7716C108.504 40.636 110.403 40.6934 111.539 41.8999Z" fill="#EFEEF4"/>
<path d="M152.532 43.1402C153.738 42.0046 155.637 42.062 156.773 43.2684L158.103 44.6814C159.238 45.8879 159.181 47.7865 157.975 48.9222C156.768 50.0578 154.869 50.0004 153.734 48.7939L152.404 47.3809C151.268 46.1745 151.326 44.2758 152.532 43.1402Z" fill="#EFEEF4"/>
</g>
<g clip-path="url(#clip2_3185_71400)">
<path d="M221.429 23.5253C226.567 24.3439 229.136 24.7532 229.786 26.5318C230.437 28.3103 228.737 30.2802 225.339 34.2201L224.46 35.2394C223.494 36.359 223.012 36.9188 222.804 37.5922C222.597 38.2656 222.688 38.9763 222.871 40.3979L223.038 41.6921C223.682 46.6945 224.004 49.1957 222.438 50.3915C220.871 51.5874 218.454 50.6859 213.619 48.8829L212.368 48.4165C210.994 47.9041 210.307 47.6479 209.586 47.6833C208.865 47.7187 208.191 48.0417 206.844 48.6876L205.618 49.2757C200.878 51.5488 198.508 52.6853 196.89 51.6458C195.271 50.6063 195.476 48.0792 195.886 43.0251L195.992 41.7175C196.109 40.2812 196.167 39.5631 195.929 38.9116C195.691 38.2601 195.183 37.7489 194.167 36.7266L193.243 35.7959C189.669 32.1983 187.883 30.3995 188.449 28.5612C189.015 26.7229 191.559 26.0626 196.647 24.7419L197.964 24.4002C199.41 24.0249 200.133 23.8373 200.707 23.3992C201.28 22.9612 201.64 22.3223 202.359 21.0445L203.014 19.8812C205.546 15.3847 206.812 13.1365 208.78 13.0398C210.748 12.9432 212.116 15.0622 214.85 19.3001L215.558 20.3966C216.335 21.6009 216.724 22.203 217.316 22.5838C217.909 22.9646 218.639 23.0809 220.099 23.3135L221.429 23.5253Z" fill="#EFEEF4"/>
<path opacity="0.8" fill-rule="evenodd" clip-rule="evenodd" d="M251.388 18.633C251.957 20.1891 251.157 21.9118 249.6 22.4808L242.087 25.2281C240.531 25.7971 238.808 24.9969 238.239 23.4408C237.67 21.8847 238.47 20.162 240.026 19.593L247.54 16.8457C249.096 16.2767 250.819 17.0769 251.388 18.633ZM196.236 -6.9853C197.792 -7.55428 199.515 -6.75407 200.084 -5.19797L202.831 2.31551C203.4 3.8716 202.6 5.59432 201.044 6.1633C199.488 6.73228 197.765 5.93207 197.196 4.37597L194.449 -3.13751C193.88 -4.6936 194.68 -6.41632 196.236 -6.9853ZM220.962 60.6361C222.518 60.0671 224.24 60.8673 224.809 62.4234L227.557 69.9369C228.126 71.4929 227.326 73.2157 225.769 73.7846C224.213 74.3536 222.491 73.5534 221.922 71.9973L219.174 64.4838C218.605 62.9277 219.406 61.205 220.962 60.6361ZM183.766 43.3586C184.335 44.9147 183.535 46.6374 181.979 47.2064L174.466 49.9537C172.91 50.5226 171.187 49.7224 170.618 48.1663C170.049 46.6102 170.849 44.8875 172.405 44.3185L179.919 41.5713C181.475 41.0023 183.197 41.8025 183.766 43.3586Z" fill="#EFEEF4"/>
<g opacity="0.5">
<path d="M244.505 48.9625C243.807 50.4651 242.023 51.1174 240.521 50.4195L238.76 49.6014C237.257 48.9034 236.605 47.1195 237.303 45.6168C238.001 44.1141 239.785 43.4618 241.287 44.1598L243.048 44.9779C244.551 45.6759 245.203 47.4598 244.505 48.9625Z" fill="#EFEEF4"/>
<path d="M226.564 -0.103318C228.067 0.594676 228.719 2.37865 228.021 3.88131L227.203 5.64237C226.505 7.14503 224.721 7.79733 223.218 7.09934C221.716 6.40135 221.063 4.61737 221.761 3.11471L222.579 1.35365C223.277 -0.149005 225.061 -0.801311 226.564 -0.103318Z" fill="#EFEEF4"/>
<path d="M184.7 21.1828C184.003 22.6854 182.219 23.3377 180.716 22.6397L178.956 21.8222C177.453 21.1242 176.801 19.3402 177.499 17.8376C178.197 16.3349 179.981 15.6826 181.484 16.3806L183.244 17.1981C184.746 17.8961 185.398 19.6801 184.7 21.1828Z" fill="#EFEEF4"/>
<path d="M198.784 59.701C200.286 60.399 200.939 62.183 200.241 63.6857L199.423 65.4456C198.725 66.9483 196.941 67.6006 195.438 66.9026C193.936 66.2046 193.284 64.4206 193.982 62.918L194.799 61.158C195.497 59.6554 197.281 59.003 198.784 59.701Z" fill="#EFEEF4"/>
</g>
</g>
<g clip-path="url(#clip3_3185_71400)">
<path d="M274.522 19.9547C271.307 15.8642 269.699 13.819 270.43 12.0719C271.161 10.3248 273.746 10.0328 278.916 9.44898L280.253 9.29792C281.722 9.13201 282.457 9.04906 283.067 8.69566C283.676 8.34225 284.092 7.75842 284.923 6.59075L285.68 5.52769C288.604 1.41862 290.067 -0.635917 292.029 -0.449778C293.991 -0.263639 295.153 2.0399 297.477 6.64698L298.078 7.83889C298.739 9.14808 299.069 9.80267 299.622 10.2664C300.175 10.7301 300.889 10.9505 302.316 11.3912L303.616 11.7925C308.639 13.3434 311.15 14.1189 311.632 15.981C312.114 17.8432 310.247 19.5588 306.514 22.9899L305.548 23.8776C304.487 24.8527 303.956 25.3402 303.689 25.9802C303.421 26.6202 303.447 27.3402 303.498 28.7803L303.544 30.0913C303.724 35.1589 303.813 37.6927 302.149 38.6574C300.485 39.6222 298.169 38.3789 293.538 35.8924L292.339 35.2492C291.023 34.5426 290.365 34.1893 289.646 34.1211C288.928 34.0529 288.23 34.2775 286.834 34.7268L285.563 35.1358C280.651 36.7169 278.195 37.5074 276.685 36.2415C275.175 34.9755 275.61 32.4916 276.481 27.5237L276.707 26.2384C276.954 24.8267 277.078 24.1208 276.901 23.4387C276.725 22.7565 276.268 22.1753 275.354 21.013L274.522 19.9547Z" fill="#EFEEF4"/>
<path opacity="0.8" fill-rule="evenodd" clip-rule="evenodd" d="M249.211 3.19827C249.85 1.66969 251.607 0.94873 253.136 1.58796L260.517 4.67444C262.045 5.31367 262.766 7.07102 262.127 8.5996C261.488 10.1282 259.73 10.8491 258.202 10.2099L250.821 7.12343C249.293 6.4842 248.572 4.72684 249.211 3.19827ZM272.292 59.4589C270.763 58.8197 270.042 57.0624 270.682 55.5338L273.768 48.1532C274.407 46.6246 276.165 45.9036 277.693 46.5428C279.222 47.1821 279.943 48.9394 279.304 50.468L276.217 57.8486C275.578 59.3772 273.821 60.0982 272.292 59.4589ZM300.07 -6.9667C298.542 -7.60593 297.821 -9.36329 298.46 -10.8919L301.546 -18.2725C302.186 -19.8011 303.943 -20.522 305.472 -19.8828C307 -19.2436 307.721 -17.4862 307.082 -15.9576L303.995 -8.57701C303.356 -7.04843 301.599 -6.32747 300.07 -6.9667ZM315.637 30.9765C316.276 29.448 318.033 28.727 319.562 29.3662L326.942 32.4527C328.471 33.0919 329.192 34.8493 328.553 36.3779C327.913 37.9065 326.156 38.6274 324.627 37.9882L317.247 34.9017C315.718 34.2625 314.997 32.5051 315.637 30.9765Z" fill="#EFEEF4"/>
<g opacity="0.5">
<path d="M274.861 -14.3888C276.394 -15.0176 278.147 -14.2848 278.775 -12.7519L279.512 -10.9554C280.141 -9.42256 279.408 -7.67013 277.876 -7.04127C276.343 -6.4124 274.59 -7.14524 273.961 -8.67812L273.224 -10.4746C272.595 -12.0075 273.328 -13.7599 274.861 -14.3888Z" fill="#EFEEF4"/>
<path d="M254.706 33.8098C254.077 32.2769 254.81 30.5245 256.343 29.8956L258.139 29.1586C259.672 28.5297 261.424 29.2626 262.053 30.7955C262.682 32.3283 261.949 34.0808 260.416 34.7096L258.62 35.4466C257.087 36.0755 255.335 35.3427 254.706 33.8098Z" fill="#EFEEF4"/>
<path d="M299.89 46.6186C301.422 45.9897 303.175 46.7226 303.804 48.2555L304.54 50.0508C305.169 51.5837 304.436 53.3361 302.903 53.965C301.371 54.5938 299.618 53.861 298.989 52.3281L298.253 50.5328C297.624 48.9999 298.357 47.2475 299.89 46.6186Z" fill="#EFEEF4"/>
<path d="M315.713 8.78206C315.084 7.24919 315.817 5.49675 317.35 4.86789L319.145 4.13134C320.678 3.50248 322.431 4.23532 323.06 5.76819C323.689 7.30107 322.956 9.0535 321.423 9.68236L319.627 10.4189C318.095 11.0478 316.342 10.3149 315.713 8.78206Z" fill="#EFEEF4"/>
</g>
</g>
<g clip-path="url(#clip4_3185_71400)">
<path d="M379.428 24.0218C383.415 20.679 385.409 19.0076 387.178 19.6827C388.947 20.3578 389.321 22.9323 390.068 28.0813L390.261 29.4134C390.473 30.8766 390.579 31.6082 390.952 32.2063C391.324 32.8045 391.921 33.2014 393.114 33.9953L394.2 34.718C398.4 37.5117 400.499 38.9085 400.375 40.8753C400.251 42.8421 397.985 44.0763 393.454 46.5448L392.282 47.1834C390.994 47.8849 390.35 48.2356 389.904 48.8032C389.458 49.3709 389.26 50.0911 388.865 51.5317L388.505 52.8432C387.113 57.9126 386.417 60.4473 384.571 60.9877C382.725 61.5282 380.952 59.7164 377.404 56.093L376.487 55.1556C375.479 54.1259 374.975 53.6111 374.327 53.3638C373.678 53.1165 372.96 53.1647 371.522 53.2611L370.213 53.3489C365.153 53.6883 362.624 53.858 361.607 52.2252C360.59 50.5924 361.76 48.2385 364.099 43.5307L364.704 42.3127C365.369 40.9748 365.701 40.3059 365.746 39.5855C365.792 38.865 365.545 38.1745 365.052 36.7936L364.603 35.5363C362.868 30.6767 362 28.2469 363.218 26.6973C364.436 25.1477 366.932 25.5047 371.925 26.2185L373.217 26.4031C374.636 26.606 375.345 26.7074 376.021 26.5094C376.697 26.3115 377.264 25.8365 378.397 24.8866L379.428 24.0218Z" fill="#EFEEF4"/>
<path opacity="0.8" fill-rule="evenodd" clip-rule="evenodd" d="M395.377 -1.80735C396.925 -1.21669 397.701 0.517038 397.11 2.06503L394.258 9.5394C393.668 11.0874 391.934 11.8635 390.386 11.2728C388.838 10.6821 388.062 8.94841 388.653 7.40042L391.505 -0.0739511C392.095 -1.62194 393.829 -2.39801 395.377 -1.80735ZM339.873 23.038C340.463 21.49 342.197 20.714 343.745 21.3046L351.22 24.1566C352.768 24.7473 353.544 26.481 352.953 28.029C352.362 29.577 350.629 30.353 349.081 29.7624L341.606 26.9104C340.058 26.3197 339.282 24.586 339.873 23.038ZM407.142 48.7058C407.733 47.1578 409.467 46.3817 411.015 46.9724L418.489 49.8244C420.037 50.415 420.813 52.1488 420.222 53.6968C419.632 55.2448 417.898 56.0208 416.35 55.4302L408.876 52.5782C407.328 51.9875 406.551 50.2538 407.142 48.7058ZM369.709 65.462C371.257 66.0527 372.033 67.7864 371.443 69.3344L368.591 76.8087C368 78.3567 366.266 79.1328 364.718 78.5421C363.17 77.9515 362.394 76.2178 362.985 74.6698L365.837 67.1954C366.427 65.6474 368.161 64.8713 369.709 65.462Z" fill="#EFEEF4"/>
<g opacity="0.5">
<path d="M413.766 23.2763C414.442 24.7885 413.765 26.5632 412.253 27.2402L410.481 28.0335C408.968 28.7104 407.194 28.0333 406.517 26.521C405.84 25.0088 406.517 23.2341 408.029 22.5571L409.802 21.7638C411.314 21.0869 413.089 21.764 413.766 23.2763Z" fill="#EFEEF4"/>
<path d="M364.955 4.65221C366.467 3.97527 368.242 4.65244 368.919 6.1647L369.712 7.93702C370.389 9.44927 369.712 11.224 368.2 11.9009C366.687 12.5778 364.913 11.9007 364.236 10.3884L363.442 8.61609C362.765 7.10383 363.443 5.32914 364.955 4.65221Z" fill="#EFEEF4"/>
<path d="M353.579 50.2179C354.255 51.7301 353.578 53.5048 352.066 54.1817L350.295 54.9746C348.783 55.6515 347.008 54.9743 346.331 53.4621C345.654 51.9498 346.331 50.1751 347.843 49.4982L349.615 48.7054C351.127 48.0284 352.902 48.7056 353.579 50.2179Z" fill="#EFEEF4"/>
<path d="M391.896 64.8394C393.408 64.1624 395.183 64.8396 395.86 66.3519L396.652 68.1231C397.329 69.6353 396.652 71.41 395.14 72.0869C393.628 72.7639 391.853 72.0867 391.176 70.5745L390.383 68.8033C389.706 67.291 390.383 65.5163 391.896 64.8394Z" fill="#EFEEF4"/>
</g>
</g>
<g clip-path="url(#clip5_3185_71400)">
<path opacity="0.8" fill-rule="evenodd" clip-rule="evenodd" d="M538.684 -27.9097C540.196 -28.5881 541.971 -27.9127 542.65 -26.4011L545.925 -19.1025C546.604 -17.5909 545.928 -15.8155 544.417 -15.1371C542.905 -14.4587 541.13 -15.1341 540.451 -16.6457L537.176 -23.9443C536.497 -25.4559 537.173 -27.2312 538.684 -27.9097ZM517.061 28.9273C516.383 27.4157 517.058 25.6404 518.57 24.9619L525.868 21.6862C527.38 21.0078 529.155 21.6832 529.834 23.1948C530.512 24.7064 529.837 26.4818 528.325 27.1602L521.026 30.4359C519.515 31.1143 517.739 30.4389 517.061 28.9273ZM582.749 -0.554061C582.07 -2.06565 582.746 -3.84101 584.257 -4.51943L591.556 -7.79514C593.067 -8.47356 594.843 -7.79814 595.521 -6.28655C596.2 -4.77496 595.524 -2.9996 594.013 -2.32118L586.714 0.954528C585.202 1.63295 583.427 0.95753 582.749 -0.554061ZM568.166 37.7778C569.677 37.0994 571.452 37.7748 572.131 39.2864L575.407 46.5851C576.085 48.0966 575.41 49.872 573.898 50.5504C572.386 51.2288 570.611 50.5534 569.933 49.0418L566.657 41.7432C565.979 40.2316 566.654 38.4563 568.166 37.7778Z" fill="#EFEEF4"/>
<g opacity="0.5">
<path d="M569.427 -23.2056C570.975 -22.6165 571.753 -20.8835 571.164 -19.335L570.473 -17.5201C569.884 -15.9715 568.151 -15.1937 566.603 -15.7829C565.054 -16.372 564.276 -18.105 564.866 -19.6536L565.556 -21.4684C566.145 -23.017 567.878 -23.7948 569.427 -23.2056Z" fill="#EFEEF4"/>
<path d="M521.764 -1.81358C522.353 -3.36215 524.086 -4.13993 525.635 -3.55079L527.45 -2.86033C528.998 -2.27119 529.776 -0.53823 529.187 1.01034C528.598 2.55892 526.865 3.33669 525.316 2.74755L523.501 2.0571C521.953 1.46795 521.175 -0.265005 521.764 -1.81358Z" fill="#EFEEF4"/>
<path d="M545.979 38.4266C547.528 39.0158 548.306 40.7487 547.717 42.2973L547.026 44.111C546.437 45.6596 544.704 46.4374 543.156 45.8482C541.607 45.2591 540.829 43.5261 541.419 41.9776L542.109 40.1638C542.698 38.6153 544.431 37.8375 545.979 38.4266Z" fill="#EFEEF4"/>
<path d="M583.396 21.6345C583.985 20.0859 585.718 19.3081 587.267 19.8973L589.081 20.5873C590.629 21.1764 591.407 22.9094 590.818 24.458C590.229 26.0065 588.496 26.7843 586.947 26.1952L585.133 25.5051C583.585 24.916 582.807 23.183 583.396 21.6345Z" fill="#EFEEF4"/>
</g>
</g>
<g clip-path="url(#clip6_3185_71400)">
<path d="M479.311 29.5246C484.354 28.2458 486.876 27.6064 488.176 28.9831C489.477 30.3598 488.695 32.8409 487.13 37.803L486.726 39.0868C486.281 40.4969 486.059 41.2019 486.134 41.9025C486.21 42.603 486.575 43.2198 487.305 44.4532L487.97 45.5762C490.538 49.9168 491.823 52.0871 490.856 53.8046C489.89 55.5222 487.313 55.6496 482.159 55.9044L480.826 55.9703C479.361 56.0427 478.629 56.0789 477.981 56.3964C477.333 56.7139 476.842 57.2767 475.859 58.4025L474.965 59.4273C471.51 63.3888 469.782 65.3695 467.884 65.0543C465.987 64.7391 465.176 62.3368 463.555 57.5321L463.136 56.289C462.675 54.9237 462.445 54.241 461.969 53.7367C461.492 53.2324 460.824 52.9635 459.487 52.4258L458.27 51.9362C453.566 50.044 451.213 49.0978 451.007 47.1854C450.8 45.2731 452.876 43.6609 457.028 40.4367L458.103 39.6026C459.282 38.6863 459.872 38.2282 460.226 37.599C460.58 36.9698 460.658 36.2408 460.814 34.7828L460.956 33.4553C461.504 28.3244 461.778 25.7589 463.548 24.8922C465.318 24.0255 467.411 25.4315 471.599 28.2435L472.682 28.971C473.872 29.7701 474.467 30.1696 475.162 30.2851C475.857 30.4005 476.573 30.2188 478.006 29.8554L479.311 29.5246Z" fill="#EFEEF4"/>
<path opacity="0.8" fill-rule="evenodd" clip-rule="evenodd" d="M504.896 13.1901C506.034 14.3946 505.98 16.2933 504.775 17.431L498.959 22.9242C497.755 24.0619 495.856 24.0077 494.718 22.8032C493.581 21.5987 493.635 19.7 494.839 18.5623L500.655 13.0691C501.86 11.9314 503.758 11.9856 504.896 13.1901ZM444.11 11.4557C445.314 10.3181 447.213 10.3722 448.351 11.5767L453.844 17.3926C454.982 18.5971 454.927 20.4959 453.723 21.6335C452.518 22.7712 450.62 22.7171 449.482 21.5125L443.989 15.6967C442.851 14.4921 442.905 12.5934 444.11 11.4557ZM493.549 63.7987C494.753 62.661 496.652 62.7152 497.79 63.9197L503.283 69.7356C504.421 70.9401 504.366 72.8388 503.162 73.9765C501.957 75.1142 500.059 75.06 498.921 73.8555L493.428 68.0396C492.29 66.8351 492.344 64.9364 493.549 63.7987ZM452.553 62.6291C453.691 63.8336 453.637 65.7323 452.432 66.87L446.616 72.3632C445.412 73.5009 443.513 73.4467 442.375 72.2422C441.238 71.0377 441.292 69.139 442.496 68.0013L448.312 62.5081C449.517 61.3704 451.416 61.4245 452.553 62.6291Z" fill="#EFEEF4"/>
<g opacity="0.5">
<path d="M510.563 43.769C510.516 45.4252 509.135 46.7295 507.479 46.6822L505.538 46.6269C503.881 46.5796 502.577 45.1987 502.624 43.5425C502.672 41.8863 504.053 40.582 505.709 40.6293L507.65 40.6847C509.306 40.7319 510.61 42.1128 510.563 43.769Z" fill="#EFEEF4"/>
<path d="M474.69 5.78933C476.346 5.83658 477.65 7.21749 477.603 8.87367L477.548 10.8147C477.5 12.4708 476.119 13.7751 474.463 13.7279C472.807 13.6806 471.503 12.2997 471.55 10.6435L471.605 8.70255C471.653 7.04637 473.034 5.74208 474.69 5.78933Z" fill="#EFEEF4"/>
<path d="M444.648 41.8884C444.601 43.5445 443.22 44.8488 441.564 44.8016L439.624 44.7462C437.968 44.699 436.663 43.3181 436.711 41.6619C436.758 40.0057 438.139 38.7014 439.795 38.7487L441.735 38.804C443.391 38.8513 444.695 40.2322 444.648 41.8884Z" fill="#EFEEF4"/>
<path d="M472.808 71.7042C474.465 71.7514 475.769 73.1323 475.722 74.7885L475.666 76.7283C475.619 78.3845 474.238 79.6888 472.582 79.6415C470.926 79.5943 469.622 78.2133 469.669 76.5572L469.724 74.6174C469.771 72.9612 471.152 71.6569 472.808 71.7042Z" fill="#EFEEF4"/>
</g>
</g>
<g clip-path="url(#clip7_3185_71400)">
<path d="M416.315 101.251C417.126 96.1119 417.531 93.5423 419.309 92.8893C421.086 92.2364 423.059 93.9326 427.004 97.325L428.024 98.2026C429.145 99.1666 429.706 99.6486 430.379 99.855C431.053 100.061 431.764 99.9689 433.185 99.7838L434.479 99.6153C439.48 98.9639 441.981 98.6383 443.179 100.203C444.377 101.768 443.48 104.186 441.684 109.024L441.219 110.275C440.709 111.65 440.454 112.337 440.49 113.058C440.526 113.779 440.85 114.452 441.498 115.798L442.088 117.024C444.368 121.761 445.508 124.129 444.471 125.749C443.434 127.369 440.907 127.168 435.852 126.765L434.544 126.661C433.108 126.546 432.39 126.489 431.738 126.728C431.087 126.968 430.577 127.476 429.556 128.493L428.627 129.419C425.034 132.998 423.238 134.787 421.399 134.224C419.56 133.66 418.896 131.117 417.568 126.031L417.224 124.715C416.847 123.269 416.658 122.547 416.219 121.974C415.78 121.4 415.141 121.042 413.862 120.324L412.698 119.671C408.197 117.146 405.947 115.884 405.848 113.915C405.748 111.947 407.865 110.577 412.099 107.836L413.194 107.127C414.398 106.348 414.999 105.958 415.379 105.365C415.759 104.771 415.874 104.041 416.105 102.581L416.315 101.251Z" fill="#EFEEF4"/>
<path opacity="0.8" fill-rule="evenodd" clip-rule="evenodd" d="M411.378 71.299C412.933 70.7277 414.657 71.5254 415.228 73.0807L417.987 80.5901C418.558 82.1453 417.76 83.8692 416.205 84.4405C414.65 85.0118 412.926 84.2141 412.355 82.6588L409.596 75.1494C409.025 73.5941 409.823 71.8703 411.378 71.299ZM385.841 126.488C385.269 124.933 386.067 123.209 387.622 122.638L395.132 119.879C396.687 119.308 398.411 120.106 398.982 121.661C399.553 123.216 398.756 124.94 397.201 125.512L389.691 128.27C388.136 128.841 386.412 128.043 385.841 126.488ZM453.426 101.663C452.854 100.108 453.652 98.3841 455.207 97.8129L462.717 95.0545C464.272 94.4833 465.996 95.2809 466.567 96.8362C467.138 98.3915 466.341 100.115 464.785 100.687L457.276 103.445C455.721 104.016 453.997 103.219 453.426 101.663ZM436.203 138.884C437.758 138.313 439.482 139.11 440.053 140.666L442.812 148.175C443.383 149.73 442.585 151.454 441.03 152.025C439.475 152.597 437.751 151.799 437.179 150.244L434.421 142.734C433.85 141.179 434.648 139.455 436.203 138.884Z" fill="#EFEEF4"/>
<g opacity="0.5">
<path d="M441.718 78.1358C443.222 78.8316 443.877 80.6146 443.181 82.1183L442.365 83.8806C441.67 85.3843 439.887 86.0392 438.383 85.3434C436.879 84.6476 436.224 82.8646 436.92 81.3609L437.736 79.5987C438.431 78.095 440.214 77.4401 441.718 78.1358Z" fill="#EFEEF4"/>
<path d="M392.679 96.1492C393.374 94.6455 395.158 93.9906 396.661 94.6864L398.423 95.5018C399.927 96.1976 400.582 97.9806 399.886 99.4843C399.19 100.988 397.407 101.643 395.904 100.947L394.142 100.132C392.638 99.4359 391.983 97.6529 392.679 96.1492Z" fill="#EFEEF4"/>
<path d="M414.026 137.981C415.53 138.677 416.185 140.46 415.489 141.964L414.674 143.725C413.978 145.229 412.195 145.884 410.692 145.188C409.188 144.492 408.533 142.709 409.229 141.205L410.044 139.444C410.74 137.94 412.523 137.286 414.026 137.981Z" fill="#EFEEF4"/>
<path d="M452.524 123.842C453.22 122.338 455.003 121.683 456.506 122.379L458.267 123.194C459.771 123.889 460.426 125.672 459.73 127.176C459.035 128.68 457.251 129.335 455.748 128.639L453.987 127.824C452.483 127.128 451.828 125.345 452.524 123.842Z" fill="#EFEEF4"/>
</g>
</g>
<g clip-path="url(#clip8_3185_71400)">
<path opacity="0.8" fill-rule="evenodd" clip-rule="evenodd" d="M561.267 52.4459C562.861 52.8979 563.787 54.5564 563.335 56.1505L561.153 63.8471C560.701 65.4411 559.042 66.367 557.448 65.915C555.854 65.4631 554.928 63.8045 555.38 62.2105L557.562 54.5139C558.014 52.9198 559.673 51.994 561.267 52.4459ZM508.168 82.0862C508.62 80.4922 510.279 79.5663 511.873 80.0183L519.57 82.2004C521.164 82.6524 522.089 84.311 521.637 85.905C521.185 87.499 519.527 88.4249 517.933 87.9729L510.236 85.7907C508.642 85.3388 507.716 83.6802 508.168 82.0862ZM577.438 101.726C577.89 100.132 579.549 99.2058 581.143 99.6577L588.839 101.84C590.433 102.292 591.359 103.95 590.907 105.544C590.455 107.138 588.797 108.064 587.203 107.612L579.506 105.43C577.912 104.978 576.986 103.32 577.438 101.726ZM541.627 121.716C543.221 122.168 544.147 123.826 543.695 125.42L541.513 133.117C541.061 134.711 539.403 135.637 537.809 135.185C536.215 134.733 535.289 133.074 535.741 131.48L537.923 123.784C538.375 122.19 540.033 121.264 541.627 121.716Z" fill="#EFEEF4"/>
<g opacity="0.5">
<path d="M581.794 75.81C582.602 77.2567 582.084 79.0842 580.637 79.8918L578.942 80.8382C577.495 81.6458 575.667 81.1277 574.86 79.681C574.052 78.2342 574.57 76.4068 576.017 75.5992L577.713 74.6528C579.159 73.8452 580.987 74.3633 581.794 75.81Z" fill="#EFEEF4"/>
<path d="M531.532 61.5601C532.979 60.7525 534.806 61.2706 535.614 62.7174L536.561 64.4129C537.368 65.8596 536.85 67.687 535.403 68.4946C533.957 69.3022 532.129 68.7841 531.321 67.3374L530.375 65.6419C529.567 64.1951 530.086 62.3677 531.532 61.5601Z" fill="#EFEEF4"/>
<path d="M524.216 107.951C525.024 109.398 524.505 111.225 523.059 112.033L521.364 112.979C519.918 113.786 518.09 113.268 517.283 111.821C516.475 110.375 516.993 108.547 518.44 107.74L520.134 106.794C521.581 105.986 523.408 106.504 524.216 107.951Z" fill="#EFEEF4"/>
<path d="M563.673 119.139C565.119 118.331 566.947 118.849 567.754 120.296L568.7 121.99C569.508 123.437 568.99 125.265 567.543 126.072C566.096 126.88 564.269 126.362 563.461 124.915L562.515 123.221C561.708 121.774 562.226 119.946 563.673 119.139Z" fill="#EFEEF4"/>
</g>
</g>
<g clip-path="url(#clip9_3185_71400)">
<path d="M489.879 142.903C491.37 137.918 492.116 135.426 493.965 135.017C495.814 134.607 497.542 136.552 500.997 140.442L501.891 141.449C502.873 142.554 503.364 143.107 504.004 143.401C504.644 143.696 505.361 143.699 506.794 143.706L508.099 143.712C513.142 143.736 515.664 143.748 516.642 145.459C517.62 147.17 516.407 149.447 513.979 154.001L513.351 155.179C512.662 156.473 512.317 157.12 512.256 157.839C512.196 158.558 512.427 159.269 512.889 160.689L513.31 161.983C514.935 166.982 515.748 169.482 514.503 170.948C513.259 172.415 510.781 171.877 505.826 170.802L504.544 170.523C503.135 170.218 502.431 170.065 501.754 170.215C501.077 170.365 500.503 170.8 499.355 171.672L498.31 172.465C494.271 175.531 492.252 177.063 490.505 176.259C488.757 175.454 488.44 172.845 487.804 167.627L487.64 166.277C487.459 164.794 487.369 164.052 487.011 163.426C486.652 162.799 486.067 162.358 484.896 161.476L483.829 160.672C479.707 157.568 477.646 156.016 477.811 154.052C477.976 152.088 480.257 151.013 484.82 148.864L486 148.308C487.297 147.697 487.945 147.391 488.401 146.854C488.857 146.317 489.069 145.609 489.493 144.192L489.879 142.903Z" fill="#EFEEF4"/>
<path opacity="0.8" fill-rule="evenodd" clip-rule="evenodd" d="M488.995 112.559C490.613 112.201 492.214 113.222 492.572 114.84L494.301 122.651C494.659 124.269 493.638 125.87 492.02 126.228C490.402 126.586 488.801 125.565 488.443 123.947L486.714 116.136C486.356 114.519 487.377 112.917 488.995 112.559ZM456.301 163.834C455.943 162.216 456.965 160.615 458.582 160.257L466.393 158.528C468.011 158.17 469.613 159.191 469.971 160.809C470.329 162.427 469.308 164.028 467.69 164.386L459.879 166.115C458.261 166.473 456.659 165.452 456.301 163.834ZM526.601 148.277C526.243 146.66 527.264 145.058 528.882 144.7L536.693 142.972C538.31 142.614 539.912 143.635 540.27 145.253C540.628 146.87 539.607 148.472 537.989 148.83L530.178 150.558C528.56 150.916 526.959 149.895 526.601 148.277ZM504.552 182.858C506.169 182.5 507.771 183.521 508.129 185.139L509.857 192.95C510.215 194.568 509.194 196.17 507.576 196.528C505.959 196.886 504.357 195.864 503.999 194.247L502.271 186.436C501.913 184.818 502.934 183.216 504.552 182.858Z" fill="#EFEEF4"/>
<g opacity="0.5">
<path d="M518.147 123.396C519.544 124.287 519.954 126.141 519.063 127.538L518.019 129.176C517.129 130.573 515.274 130.983 513.877 130.092C512.48 129.202 512.07 127.347 512.96 125.95L514.004 124.313C514.895 122.916 516.75 122.505 518.147 123.396Z" fill="#EFEEF4"/>
<path d="M467.138 134.684C468.028 133.287 469.883 132.877 471.28 133.767L472.917 134.811C474.314 135.702 474.725 137.557 473.834 138.954C472.943 140.351 471.089 140.761 469.692 139.871L468.054 138.827C466.657 137.936 466.247 136.081 467.138 134.684Z" fill="#EFEEF4"/>
<path d="M482.695 178.997C484.092 179.888 484.502 181.742 483.611 183.139L482.568 184.776C481.677 186.173 479.823 186.583 478.426 185.692C477.029 184.802 476.618 182.947 477.509 181.55L478.552 179.914C479.443 178.517 481.298 178.106 482.695 178.997Z" fill="#EFEEF4"/>
<path d="M522.738 170.137C523.629 168.74 525.484 168.329 526.881 169.22L528.517 170.263C529.914 171.154 530.324 173.009 529.434 174.406C528.543 175.803 526.688 176.213 525.291 175.322L523.655 174.279C522.258 173.388 521.848 171.534 522.738 170.137Z" fill="#EFEEF4"/>
</g>
</g>
<defs>
<clipPath id="clip0_3185_71400">
<rect x="7.43164" y="-49.6816" width="96" height="96" rx="5" transform="rotate(-11.5053 7.43164 -49.6816)" fill="white"/>
</clipPath>
<clipPath id="clip1_3185_71400">
<rect x="146.903" y="-109.615" width="96" height="96" rx="5" transform="rotate(20.1989 146.903 -109.615)" fill="white"/>
</clipPath>
<clipPath id="clip2_3185_71400">
<rect x="239.6" y="-28.1641" width="96" height="96" rx="5" transform="rotate(69.9152 239.6 -28.1641)" fill="white"/>
</clipPath>
<clipPath id="clip3_3185_71400">
<rect x="226.079" y="45.5527" width="96" height="96" rx="5" transform="rotate(-67.306 226.079 45.5527)" fill="white"/>
</clipPath>
<clipPath id="clip4_3185_71400">
<rect x="352.313" y="-23.5898" width="96" height="96" rx="5" transform="rotate(20.8852 352.313 -23.5898)" fill="white"/>
</clipPath>
<clipPath id="clip5_3185_71400">
<rect x="492.845" y="-12.8164" width="96" height="96" rx="5" transform="rotate(-24.1711 492.845 -12.8164)" fill="white"/>
</clipPath>
<clipPath id="clip6_3185_71400">
<rect x="475.572" y="-25.1387" width="96" height="96" rx="5" transform="rotate(46.6343 475.572 -25.1387)" fill="white"/>
</clipPath>
<clipPath id="clip7_3185_71400">
<rect x="364.598" y="83.1562" width="96" height="96" rx="5" transform="rotate(-20.169 364.598 83.1562)" fill="white"/>
</clipPath>
<clipPath id="clip8_3185_71400">
<rect x="516.451" y="34.543" width="96" height="96" rx="5" transform="rotate(15.8292 516.451 34.543)" fill="white"/>
</clipPath>
<clipPath id="clip9_3185_71400">
<rect x="441.049" y="118.049" width="96" height="96" rx="5" transform="rotate(-12.4779 441.049 118.049)" fill="white"/>
</clipPath>
</defs>
</svg>
